<svg width="140" height="81" viewBox="0 0 140 81" fill="none" xmlns="http://www.w3.org/2000/svg">
<g clip-path="url(#clip0_66_26)">
<mask id="mask0_66_26" style="mask-type:luminance" maskUnits="userSpaceOnUse" x="85" y="34" width="55" height="32">
<path d="M110.818 60.4913C101.301 61.5299 92.2266 58.7718 85.5356 53.562C91.3924 61.8363 102.289 66.8248 113.9 65.5649C129.887 63.8113 141.192 50.889 139.166 36.6898L138.876 34.7148C137.582 47.8414 126.141 58.8058 110.818 60.4913Z" fill="white"/>
</mask>
<g mask="url(#mask0_66_26)">
<path d="M79.2703 35.9917L138.995 23.8696L147.457 65.5649L87.7489 77.687L79.2703 35.9917Z" fill="url(#paint0_linear_66_26)"/>
</g>
<mask id="mask1_66_26" style="mask-type:luminance" maskUnits="userSpaceOnUse" x="124" y="52" width="2" height="2">
<path d="M124.49 53.2725C124.728 53.0682 124.966 52.8469 125.188 52.6426C124.966 52.8469 124.728 53.0682 124.49 53.2725Z" fill="white"/>
</mask>
<g mask="url(#mask1_66_26)">
<path d="M124.268 52.7277L125.086 52.3872L125.409 53.1704L124.592 53.5109L124.268 52.7277Z" fill="url(#paint1_linear_66_26)"/>
</g>
<mask id="mask2_66_26" style="mask-type:luminance" maskUnits="userSpaceOnUse" x="132" y="30" width="1" height="2">
<path d="M132.577 31.0374C132.594 31.1906 132.611 31.3608 132.645 31.5141C132.628 31.3608 132.611 31.2076 132.577 31.0374C132.56 30.9352 132.543 30.816 132.526 30.7139C132.56 30.816 132.577 30.9352 132.577 31.0374Z" fill="white"/>
</mask>
<g mask="url(#mask2_66_26)">
<path d="M132.56 31.5651L132.202 30.9011L132.628 30.6628L132.986 31.3438L132.56 31.5651Z" fill="url(#paint2_linear_66_26)"/>
</g>
<mask id="mask3_66_26" style="mask-type:luminance" maskUnits="userSpaceOnUse" x="123" y="42" width="9" height="12">
<path d="M123.553 53.9706C127.367 50.9401 130.244 47.1093 131.624 42.3082C130.227 46.8369 127.35 50.8719 123.553 53.9706Z" fill="white"/>
</mask>
<g mask="url(#mask3_66_26)">
<path d="M125.375 57.3586L118.65 44.9812L129.785 38.9371L136.51 51.3316L125.375 57.3586Z" fill="url(#paint3_linear_66_26)"/>
</g>
<mask id="mask4_66_26" style="mask-type:luminance" maskUnits="userSpaceOnUse" x="89" y="-1" width="48" height="61">
<path d="M105.711 11.2027C109.048 11.2368 112.487 11.6113 115.517 12.3775C117.237 12.752 118.888 13.3139 120.455 14.0289C120.778 14.1822 121.102 14.3354 121.408 14.5057C123.519 15.6293 125.409 17.0765 126.958 18.779C127.299 19.1536 127.622 19.5282 127.946 19.9197C128.252 20.3113 128.559 20.7199 128.831 21.1285C132.849 27.0364 133.735 34.5616 131.794 41.3718C131.726 41.6442 131.64 41.9336 131.555 42.206V42.223C129.819 48.199 125.784 52.6766 120.489 56.0136C120.574 55.9625 120.676 55.9115 120.761 55.8604C118.684 57.1543 116.454 58.261 114.087 59.0271C150.556 47.569 139.285 0.783166 102.527 2.58786C97.862 2.58786 92.8225 2.50273 89.0088 -0.0170288C91.7158 6.46966 98.526 10.7941 105.711 11.2027Z" fill="white"/>
</mask>
<g mask="url(#mask4_66_26)">
<path d="M103.038 84.8717L64.2708 13.4501L136.561 -25.8105L175.345 45.6111L103.038 84.8717Z" fill="url(#paint4_linear_66_26)"/>
</g>
<mask id="mask5_66_26" style="mask-type:luminance" maskUnits="userSpaceOnUse" x="85" y="12" width="48" height="49">
<path d="M85.5356 53.5619C92.8225 60.5083 103.753 62.1598 113.338 59.2825C113.372 59.2825 113.389 59.2654 113.423 59.2654C113.44 59.2654 113.457 59.2484 113.491 59.2484C114.172 59.0441 114.836 58.8058 115.5 58.5674C115.603 58.5334 115.688 58.4993 115.79 58.4652C117.169 57.9204 118.497 57.2564 119.774 56.5073C119.791 56.4903 119.825 56.4903 119.842 56.4733C120.165 56.286 120.489 56.0987 120.795 55.8944C120.71 55.9455 120.608 55.9966 120.523 56.0476C121.561 55.4007 122.549 54.7026 123.485 53.9365C123.502 53.9195 123.502 53.9195 123.519 53.9024C127.333 50.8719 130.21 47.0412 131.589 42.24V42.223C131.675 41.9506 131.76 41.6612 131.828 41.3888C132.56 38.8009 132.883 36.1279 132.798 33.4719C132.781 33.0974 132.764 32.7058 132.73 32.3312C132.73 32.2291 132.713 32.1099 132.696 32.0078C132.679 31.8375 132.662 31.6843 132.645 31.531C132.628 31.3778 132.611 31.2076 132.594 31.0543C132.577 30.9352 132.56 30.833 132.543 30.7138C132.526 30.5606 132.492 30.4244 132.475 30.2712C132.458 30.1179 132.424 29.9817 132.39 29.8285C131.947 27.462 131.147 25.1465 129.989 23.0013C129.904 22.8651 129.836 22.7119 129.751 22.5757C129.648 22.4054 129.563 22.2352 129.461 22.0649C129.274 21.7414 129.07 21.435 128.865 21.1285C128.593 20.7199 128.286 20.3113 127.98 19.9197C127.674 19.5281 127.333 19.1365 126.993 18.779C125.477 17.1275 123.656 15.7144 121.63 14.6078C121.595 14.5908 121.561 14.5737 121.527 14.5567C121.493 14.5397 121.476 14.5226 121.442 14.5056C121.391 14.4716 121.323 14.4375 121.272 14.4205C121.204 14.3864 121.119 14.3524 121.051 14.3013C120.863 14.1992 120.676 14.114 120.489 14.0289C118.974 13.3138 117.373 12.7861 115.705 12.4115C133.037 31.4629 111.176 60.6275 85.5356 53.5619Z" fill="white"/>
</mask>
<g mask="url(#mask5_66_26)">
<path d="M96.3637 82.0795L64.6794 23.7334L122.225 -7.50824L153.91 50.8379L96.3637 82.0795Z" fill="url(#paint5_linear_66_26)"/>
</g>
<mask id="mask6_66_26" style="mask-type:luminance" maskUnits="userSpaceOnUse" x="85" y="23" width="48" height="37">
<path d="M110.989 53.3066C102.391 56.6436 93.18 56.4903 85.5186 53.5449C93.2481 59.4357 104.757 61.1212 115.262 57.0351C129.682 51.4338 136.714 37.0473 130.942 24.9252L130.142 23.2397C132.492 35.2596 124.83 47.9265 110.989 53.3066Z" fill="white"/>
</mask>
<g mask="url(#mask6_66_26)">
<path d="M69.123 31.3608L125.733 3.33698L153.092 53.0001L96.4829 81.0239L69.123 31.3608Z" fill="url(#paint6_linear_66_26)"/>
</g>
<path d="M6.82729 38.1369H4.49481V44.0277H1.12378V29.4029H4.49481V35.3277H6.91242L10.7602 29.4029H14.3355L9.55136 36.4684L14.4717 44.0277H10.624L6.82729 38.1369Z" fill="#010202"/>
<path d="M29.4539 29.4029V44.0277H26.117V32.161H21.0945L20.9923 35.2086C20.9242 37.2857 20.754 38.9712 20.4986 40.2481C20.2262 41.542 19.7835 42.5295 19.1706 43.2105C18.5577 43.8915 17.6894 44.2491 16.5657 44.2491C16.106 44.2491 15.5442 44.1639 14.8972 44.0107L15.1015 41.1504C15.2888 41.2015 15.4931 41.2356 15.7144 41.2356C16.5146 41.2356 17.0935 40.7588 17.4 39.8054C17.7234 38.852 17.9277 37.3538 18.0129 35.3277L18.2172 29.3859H29.4539V29.4029Z" fill="#010202"/>
<path d="M33.1145 29.4029H36.4685V38.9371L43.4489 29.4029H46.6327V44.0277H43.2957V34.5275L36.3153 44.0277H33.1145V29.4029Z" fill="#010202"/>
<path d="M63.5729 44.0277L63.5559 35.2767L59.2485 42.4954H57.7502L53.4428 35.4469V44.0277H50.259V29.4029H53.0682L58.5334 38.4945L63.9304 29.4029H66.7396L66.7567 44.0277H63.5729Z" fill="#010202"/>
<path d="M80.2919 40.8951H73.4988L72.2049 44.0277H68.7317L75.2524 29.4029H78.5894L85.1272 44.0277H81.5689L80.2919 40.8951ZM79.2193 38.3242L76.9039 32.7228L74.5884 38.3242H79.2193Z" fill="#010202"/>
<path d="M97.5387 32.161H92.8567V44.0277H89.5027V32.161H84.8547V29.4029H97.5387V32.161Z" fill="#010202"/>
<path d="M4.80123 64.8158C3.59242 64.1688 2.65603 63.2665 1.95798 62.1258C1.25994 60.968 0.919434 59.6741 0.919434 58.2269C0.919434 56.7798 1.25994 55.4859 1.95798 54.3281C2.639 53.1704 3.59242 52.2851 4.80123 51.6381C6.01003 50.9911 7.35504 50.6677 8.8703 50.6677C10.1302 50.6677 11.2879 50.889 12.3094 51.3317C13.331 51.7743 14.1993 52.4213 14.8973 53.2555L12.718 55.2645C11.7306 54.1238 10.5047 53.545 9.04056 53.545C8.13821 53.545 7.32099 53.7493 6.62295 54.1408C5.90788 54.5324 5.36307 55.0943 4.95446 55.8093C4.56287 56.5244 4.35857 57.3246 4.35857 58.2269C4.35857 59.1293 4.56287 59.9465 4.95446 60.6446C5.34604 61.3596 5.90788 61.9044 6.62295 62.313C7.33802 62.7046 8.13821 62.9089 9.04056 62.9089C10.5047 62.9089 11.7306 62.3301 12.718 61.1723L14.8803 63.1643C14.1822 64.0156 13.3139 64.6626 12.2924 65.1052C11.2539 65.5479 10.1132 65.7692 8.85328 65.7692C7.35504 65.7862 6.01003 65.4628 4.80123 64.8158Z" fill="#010202"/>
<path d="M28.1261 53.6641H23.4441V65.5308H20.1071V53.6641H15.4421V50.906H28.1261V53.6641Z" fill="#010202"/>
<path d="M39.9586 51.553C40.9121 51.9786 41.6442 52.5915 42.1549 53.3917C42.6657 54.1919 42.9211 55.1283 42.9211 56.2179C42.9211 57.2905 42.6657 58.2269 42.1549 59.0271C41.6442 59.8273 40.9121 60.4402 39.9586 60.8659C39.0052 61.2915 37.8815 61.4958 36.5876 61.4958H33.6422V65.5308H30.2542V50.906H36.5876C37.8815 50.906 39.0052 51.1273 39.9586 51.553ZM38.7158 58.0907C39.2436 57.6481 39.516 57.0352 39.516 56.2179C39.516 55.4007 39.2436 54.7708 38.7158 54.3281C38.188 53.8855 37.4048 53.6641 36.4003 53.6641H33.6422V58.7377H36.4003C37.4219 58.7377 38.188 58.5164 38.7158 58.0907Z" fill="#010202"/>
<path d="M48.267 64.7988C47.0412 64.1518 46.0877 63.2494 45.4067 62.0917C44.7257 60.934 44.3682 59.6571 44.3682 58.2099C44.3682 56.7798 44.7087 55.4859 45.4067 54.3281C46.1048 53.1704 47.0582 52.2851 48.267 51.6211C49.4928 50.9741 50.8548 50.6336 52.3701 50.6336C53.8854 50.6336 55.2474 50.9571 56.4732 51.6211C57.682 52.268 58.6355 53.1704 59.3335 54.3281C60.0315 55.4859 60.3721 56.7628 60.3721 58.2099C60.3721 59.6401 60.0315 60.934 59.3335 62.0917C58.6355 63.2494 57.682 64.1348 56.4732 64.7988C55.2644 65.4457 53.9024 65.7862 52.3701 65.7862C50.8548 65.7862 49.4758 65.4627 48.267 64.7988ZM54.7026 62.313C55.4006 61.9215 55.9454 61.3596 56.337 60.6446C56.7286 59.9295 56.9329 59.1293 56.9329 58.2269C56.9329 57.3246 56.7286 56.5074 56.337 55.8093C55.9454 55.0943 55.4006 54.5495 54.7026 54.1408C54.0045 53.7493 53.2214 53.545 52.3701 53.545C51.5018 53.545 50.7186 53.7493 50.0376 54.1408C49.3396 54.5324 48.7948 55.0943 48.4032 55.8093C48.0116 56.5244 47.8073 57.3246 47.8073 58.2269C47.8073 59.1293 48.0116 59.9465 48.4032 60.6446C48.7948 61.3596 49.3396 61.9044 50.0376 62.313C50.7357 62.7046 51.5188 62.9089 52.3701 62.9089C53.2214 62.9089 54.0045 62.7046 54.7026 62.313Z" fill="#010202"/>
<path d="M62.9771 50.906H66.3481V60.4402L73.3285 50.906H76.5123V65.5308H73.1753V56.0306L66.1949 65.5308H62.9941V50.906H62.9771ZM65.6671 46.7688H67.9825C68.0166 47.7903 68.5954 48.3011 69.7191 48.3011C70.281 48.3011 70.7066 48.1649 70.996 47.9095C71.2855 47.6541 71.4387 47.2796 71.4557 46.7688H73.7712C73.7541 47.8073 73.4136 48.6075 72.7496 49.1524C72.0856 49.6972 71.0641 49.9696 69.7191 49.9696C67.0461 49.9696 65.7011 48.897 65.6671 46.7688Z" fill="#010202"/>
<mask id="mask7_66_26" style="mask-type:luminance" maskUnits="userSpaceOnUse" x="132" y="30" width="1" height="2">
<path d="M132.56 31.0374C132.577 31.1906 132.594 31.3608 132.628 31.5141C132.594 31.3608 132.577 31.2076 132.56 31.0374C132.543 30.9352 132.526 30.816 132.509 30.7139C132.526 30.816 132.543 30.9352 132.56 31.0374Z" fill="white"/>
</mask>
<g mask="url(#mask7_66_26)">
<path d="M132.543 31.5651L132.168 30.9011L132.594 30.6628L132.951 31.3438L132.543 31.5651Z" fill="url(#paint7_linear_66_26)"/>
</g>
<path d="M5.36304 73.686H3.69455V77.9083H2.77518V73.686H1.10669V72.8858H5.36304V73.686Z" fill="#010202"/>
<path d="M9.24483 76.2909H6.24836C6.29944 76.5803 6.43564 76.8016 6.65697 76.9549C6.8783 77.1251 7.15071 77.2102 7.49121 77.2102C7.91685 77.2102 8.25736 77.074 8.52976 76.8016L9.00648 77.3464C8.83622 77.5508 8.61489 77.704 8.35951 77.8061C8.10413 77.9083 7.79767 77.9594 7.47419 77.9594C7.04855 77.9594 6.67399 77.8742 6.36754 77.704C6.04405 77.5337 5.8057 77.2954 5.61842 77.0059C5.44816 76.6995 5.36304 76.376 5.36304 75.9844C5.36304 75.6099 5.44816 75.2693 5.61842 74.9799C5.78867 74.6735 6.02703 74.4521 6.33349 74.2819C6.63994 74.1116 6.98045 74.0265 7.35501 74.0265C7.72957 74.0265 8.07008 74.1116 8.35951 74.2819C8.64894 74.4521 8.8873 74.6735 9.04053 74.9799C9.19376 75.2864 9.29591 75.6269 9.29591 76.0185C9.26186 76.0866 9.26186 76.1717 9.24483 76.2909ZM6.58887 75.014C6.38456 75.1842 6.26538 75.4056 6.23133 75.695H8.41059C8.37654 75.4226 8.25736 75.1842 8.05305 75.014C7.84875 74.8437 7.61039 74.7586 7.32096 74.7586C7.03153 74.7586 6.79317 74.8437 6.58887 75.014Z" fill="#010202"/>
<path d="M12.5308 77.9083L11.5603 76.5803L10.5558 77.9083H9.56836L11.0666 75.9674L9.63646 74.0776H10.641L11.5774 75.3375L12.5138 74.0776H13.4842L12.0541 75.9504L13.5523 77.9083H12.5308Z" fill="#010202"/>
<path d="M14.1821 74.0776H15.0845V75.6439H17.0083V74.0776H17.9107V77.9083H17.0083V76.393H15.0845V77.9083H14.1821V74.0776Z" fill="#010202"/>
<path d="M19.7836 77.704C19.4772 77.5337 19.2218 77.2954 19.0515 77.0059C18.8813 76.6995 18.7961 76.376 18.7961 75.9844C18.7961 75.6099 18.8813 75.2693 19.0515 74.9799C19.2218 74.6905 19.4772 74.4521 19.7836 74.2819C20.0901 74.1116 20.4476 74.0265 20.8392 74.0265C21.2308 74.0265 21.5883 74.1116 21.8948 74.2819C22.2012 74.4521 22.4566 74.6735 22.6269 74.9799C22.7971 75.2693 22.8822 75.6099 22.8822 75.9844C22.8822 76.359 22.7971 76.6995 22.6269 77.0059C22.4566 77.3124 22.2012 77.5337 21.8948 77.704C21.5883 77.8742 21.2308 77.9594 20.8392 77.9594C20.4476 77.9594 20.0901 77.8742 19.7836 77.704ZM21.6394 76.8697C21.8607 76.6484 21.9629 76.359 21.9629 76.0014C21.9629 75.6439 21.8607 75.3545 21.6394 75.1331C21.4181 74.9118 21.1457 74.8097 20.8222 74.8097C20.4987 74.8097 20.2263 74.9118 20.0049 75.1331C19.7836 75.3545 19.6815 75.6439 19.6815 76.0014C19.6815 76.359 19.7836 76.6484 20.0049 76.8697C20.2263 77.0911 20.4817 77.1932 20.8222 77.1932C21.1627 77.1932 21.4351 77.0911 21.6394 76.8697Z" fill="#010202"/>
<path d="M27.1896 74.0776V77.9083H26.2872V74.8437H24.8571L24.823 75.6099C24.806 76.1206 24.7549 76.5463 24.6868 76.8868C24.6187 77.2273 24.4995 77.4997 24.3293 77.704C24.159 77.9083 23.9377 78.0104 23.6483 78.0104C23.5121 78.0104 23.3418 77.9764 23.1545 77.9253L23.2056 77.1762C23.2737 77.1932 23.3248 77.1932 23.3759 77.1932C23.5632 77.1932 23.6994 77.1251 23.7845 76.9719C23.8696 76.8187 23.9377 76.6484 23.9547 76.4441C23.9888 76.2398 24.0058 75.9504 24.0228 75.5758L24.0909 74.0946H27.1896V74.0776Z" fill="#010202"/>
<path d="M29.0624 77.704C28.756 77.5337 28.5006 77.2954 28.3303 77.0059C28.1601 76.6995 28.075 76.376 28.075 75.9844C28.075 75.6099 28.1601 75.2693 28.3303 74.9799C28.5006 74.6905 28.756 74.4521 29.0624 74.2819C29.3689 74.1116 29.7264 74.0265 30.118 74.0265C30.5096 74.0265 30.8671 74.1116 31.1736 74.2819C31.48 74.4521 31.7354 74.6735 31.9057 74.9799C32.0759 75.2693 32.1611 75.6099 32.1611 75.9844C32.1611 76.359 32.0759 76.6995 31.9057 77.0059C31.7354 77.3124 31.48 77.5337 31.1736 77.704C30.8671 77.8742 30.5096 77.9594 30.118 77.9594C29.7094 77.9594 29.3689 77.8742 29.0624 77.704ZM30.9182 76.8697C31.1395 76.6484 31.2417 76.359 31.2417 76.0014C31.2417 75.6439 31.1395 75.3545 30.9182 75.1331C30.6969 74.9118 30.4245 74.8097 30.101 74.8097C29.7775 74.8097 29.5051 74.9118 29.2838 75.1331C29.0624 75.3545 28.9603 75.6439 28.9603 76.0014C28.9603 76.359 29.0624 76.6484 29.2838 76.8697C29.5051 77.0911 29.7605 77.1932 30.101 77.1932C30.4415 77.1932 30.7139 77.0911 30.9182 76.8697Z" fill="#010202"/>
<path d="M35.9747 74.8437H33.9316V77.9083H33.0293V74.0776H35.9747V74.8437Z" fill="#010202"/>
<path d="M36.6387 74.0776H37.524V76.6144L39.6522 74.0776H40.4694V77.9083H39.567V75.3885L37.4559 77.9083H36.6387V74.0776Z" fill="#010202"/>
<path d="M41.6782 74.0776H42.5635V76.6144L44.6917 74.0776H45.5089V77.9083H44.6066V75.3885L42.4954 77.9083H41.6782V74.0776Z" fill="#010202"/>
<path d="M52.7789 77.1592V78.7766H51.9446V77.9253H48.9822V78.7766H48.1479V77.1592H48.3352C48.5736 77.1422 48.7438 76.9889 48.829 76.6825C48.9141 76.376 48.9822 75.9504 48.9992 75.3885L49.0503 74.0776H52.217V77.1422H52.7789V77.1592ZM49.7143 76.5292C49.6632 76.8016 49.5611 77.0059 49.4249 77.1422H51.3147V74.8267H49.8505L49.8335 75.4396C49.7994 75.8993 49.7654 76.2568 49.7143 76.5292Z" fill="#010202"/>
<path d="M57.0692 74.0776V77.9083H56.1669V74.8437H54.7367L54.7027 75.6099C54.6856 76.1206 54.6346 76.5463 54.5665 76.8868C54.4984 77.2273 54.3792 77.4997 54.2089 77.704C54.0387 77.9083 53.8173 78.0104 53.5279 78.0104C53.3917 78.0104 53.2215 77.9764 53.0342 77.9253L53.0853 77.1762C53.1534 77.1932 53.2044 77.1932 53.2555 77.1932C53.4428 77.1932 53.579 77.1251 53.6641 76.9719C53.7492 76.8187 53.8174 76.6484 53.8344 76.4441C53.8684 76.2398 53.8855 75.9504 53.9025 75.5758L53.9706 74.0946H57.0692V74.0776Z" fill="#010202"/>
<path d="M61.5129 74.0776V77.9083H60.7127V76.7506H59.7082L58.925 77.9083H57.9546L58.8569 76.6314C58.5845 76.5292 58.3632 76.393 58.227 76.1887C58.0738 75.9844 58.0057 75.7461 58.0057 75.4566C58.0057 75.014 58.1589 74.6735 58.4654 74.4351C58.7718 74.1968 59.1974 74.0776 59.7423 74.0776H61.5129ZM58.908 75.4907C58.908 75.9163 59.1804 76.1377 59.7423 76.1377H60.6957V74.8437H59.7763C59.1974 74.8267 58.908 75.048 58.908 75.4907Z" fill="#010202"/>
<path d="M66.2799 76.376H65.5989V77.9083H64.6965V74.0776H65.5989V75.6269H66.3139L67.4376 74.0776H68.4081L67.012 75.9163L68.4932 77.9083H67.4376L66.2799 76.376Z" fill="#010202"/>
<path d="M69.6681 77.704C69.3617 77.5337 69.1063 77.2954 68.936 77.0059C68.7658 76.6995 68.6807 76.376 68.6807 75.9844C68.6807 75.6099 68.7658 75.2693 68.936 74.9799C69.1063 74.6905 69.3617 74.4521 69.6681 74.2819C69.9746 74.1116 70.3321 74.0265 70.7237 74.0265C71.1153 74.0265 71.4728 74.1116 71.7793 74.2819C72.0857 74.4521 72.3411 74.6735 72.5114 74.9799C72.6816 75.2693 72.7668 75.6099 72.7668 75.9844C72.7668 76.359 72.6816 76.6995 72.5114 77.0059C72.3411 77.3124 72.0857 77.5337 71.7793 77.704C71.4728 77.8742 71.1153 77.9594 70.7237 77.9594C70.3151 77.9594 69.9746 77.8742 69.6681 77.704ZM71.5239 76.8697C71.7452 76.6484 71.8474 76.359 71.8474 76.0014C71.8474 75.6439 71.7452 75.3545 71.5239 75.1331C71.3026 74.9118 71.0302 74.8097 70.7067 74.8097C70.3832 74.8097 70.1108 74.9118 69.8895 75.1331C69.6681 75.3545 69.566 75.6439 69.566 76.0014C69.566 76.359 69.6681 76.6484 69.8895 76.8697C70.1108 77.0911 70.3662 77.1932 70.7067 77.1932C71.0472 77.1932 71.3196 77.0911 71.5239 76.8697Z" fill="#010202"/>
<path d="M77.4147 77.9083V75.3715L76.1207 77.5167H75.7291L74.4522 75.3715V77.9083H73.635V74.0776H74.5884L75.9505 76.4782L77.3806 74.0776H78.2148V77.9083H77.4147Z" fill="#010202"/>
<path d="M83.9012 77.3975C83.5096 77.738 82.9478 77.9253 82.2157 77.9764V79.3044H81.3644V77.9764C80.6323 77.9253 80.0705 77.738 79.6789 77.3975C79.2873 77.057 79.083 76.5803 79.083 75.9844C79.083 75.3885 79.2873 74.9288 79.6789 74.5883C80.0705 74.2478 80.6323 74.0606 81.3644 74.0095V72.5623H82.2157V74.0095C82.9478 74.0606 83.5096 74.2478 83.9012 74.5883C84.2928 74.9288 84.4971 75.3885 84.4971 75.9674C84.4971 76.5803 84.2928 77.057 83.9012 77.3975ZM80.3088 76.8527C80.5302 77.057 80.8877 77.1762 81.3644 77.2273V74.7926C80.8877 74.8267 80.5472 74.9459 80.3088 75.1502C80.0875 75.3545 79.9683 75.6269 79.9683 75.9844C79.9683 76.359 80.0875 76.6484 80.3088 76.8527ZM83.6118 75.9844C83.6118 75.6269 83.4926 75.3375 83.2713 75.1332C83.0329 74.9288 82.6924 74.8097 82.2157 74.7756V77.2103C83.1521 77.1422 83.6118 76.7335 83.6118 75.9844Z" fill="#010202"/>
<path d="M86.0295 77.704C85.723 77.5337 85.4676 77.2954 85.2974 77.0059C85.1271 76.6995 85.042 76.376 85.042 75.9844C85.042 75.6099 85.1271 75.2693 85.2974 74.9799C85.4676 74.6905 85.723 74.4521 86.0295 74.2819C86.3359 74.1116 86.6935 74.0265 87.085 74.0265C87.4766 74.0265 87.8342 74.1116 88.1406 74.2819C88.4471 74.4521 88.7025 74.6735 88.8727 74.9799C89.043 75.2693 89.1281 75.6099 89.1281 75.9844C89.1281 76.359 89.043 76.6995 88.8727 77.0059C88.7025 77.3124 88.4471 77.5337 88.1406 77.704C87.8342 77.8742 87.4766 77.9594 87.085 77.9594C86.6935 77.9594 86.3359 77.8742 86.0295 77.704ZM87.8852 76.8697C88.1066 76.6484 88.2087 76.359 88.2087 76.0014C88.2087 75.6439 88.1066 75.3545 87.8852 75.1331C87.6639 74.9118 87.3915 74.8097 87.068 74.8097C86.7445 74.8097 86.4721 74.9118 86.2508 75.1331C86.0295 75.3545 85.9273 75.6439 85.9273 76.0014C85.9273 76.359 86.0295 76.6484 86.2508 76.8697C86.4721 77.0911 86.7275 77.1932 87.068 77.1932C87.4085 77.1932 87.6809 77.0911 87.8852 76.8697Z" fill="#010202"/>
<path d="M93.129 74.2819C93.4185 74.4521 93.6568 74.6735 93.8271 74.9629C93.9973 75.2523 94.0824 75.6099 94.0824 75.9844C94.0824 76.359 93.9973 76.7165 93.8271 77.023C93.6568 77.3294 93.4355 77.5508 93.129 77.721C92.8226 77.8913 92.4991 77.9594 92.1245 77.9594C91.6138 77.9594 91.2052 77.7891 90.8987 77.4486V79.3044H89.9963V74.0776H90.8476V74.5883C91.0008 74.4011 91.1711 74.2649 91.3924 74.1797C91.6138 74.0946 91.8521 74.0435 92.1075 74.0435C92.4991 74.0435 92.8396 74.1116 93.129 74.2819ZM92.8396 76.8697C93.0609 76.6484 93.1631 76.359 93.1631 76.0014C93.1631 75.6439 93.0609 75.3545 92.8396 75.1331C92.6183 74.9118 92.3629 74.8097 92.0224 74.8097C91.801 74.8097 91.6138 74.8607 91.4435 74.9629C91.2732 75.065 91.137 75.2012 91.0349 75.3885C90.9327 75.5758 90.8817 75.7801 90.8817 76.0185C90.8817 76.2568 90.9327 76.4611 91.0349 76.6484C91.137 76.8357 91.2732 76.9719 91.4435 77.074C91.6138 77.1762 91.8181 77.2273 92.0224 77.2273C92.3629 77.1932 92.6353 77.0911 92.8396 76.8697Z" fill="#010202"/>
<path d="M97.8621 74.8437H96.5171V77.9083H95.6148V74.8437H94.2698V74.0776H97.8621V74.8437Z" fill="#010202"/>
<path d="M98.509 74.0776H99.4114V75.6439H101.335V74.0776H102.238V77.9083H101.335V76.393H99.4114V77.9083H98.509V74.0776Z" fill="#010202"/>
<path d="M104.111 77.704C103.804 77.5337 103.549 77.2954 103.378 77.0059C103.208 76.6995 103.123 76.376 103.123 75.9844C103.123 75.6099 103.208 75.2693 103.378 74.9799C103.549 74.6905 103.804 74.4521 104.111 74.2819C104.417 74.1116 104.775 74.0265 105.166 74.0265C105.558 74.0265 105.915 74.1116 106.222 74.2819C106.528 74.4521 106.784 74.6735 106.954 74.9799C107.124 75.2693 107.209 75.6099 107.209 75.9844C107.209 76.359 107.124 76.6995 106.954 77.0059C106.784 77.3124 106.528 77.5337 106.222 77.704C105.915 77.8742 105.558 77.9594 105.166 77.9594C104.757 77.9594 104.417 77.8742 104.111 77.704ZM105.966 76.8697C106.188 76.6484 106.29 76.359 106.29 76.0014C106.29 75.6439 106.188 75.3545 105.966 75.1331C105.745 74.9118 105.473 74.8097 105.149 74.8097C104.826 74.8097 104.553 74.9118 104.332 75.1331C104.111 75.3545 104.008 75.6439 104.008 76.0014C104.008 76.359 104.111 76.6484 104.332 76.8697C104.553 77.0911 104.809 77.1932 105.149 77.1932C105.473 77.1932 105.745 77.0911 105.966 76.8697Z" fill="#010202"/>
<path d="M108.077 74.0776H108.98V76.6144L111.091 74.0946H111.908V77.9253H111.006V75.4056L108.895 77.9253H108.06V74.0776H108.077ZM109.048 73.3625C108.843 73.1752 108.741 72.9199 108.741 72.5793H109.337C109.337 72.7496 109.388 72.8858 109.49 72.988C109.593 73.0901 109.746 73.1412 109.933 73.1412C110.12 73.1412 110.257 73.0901 110.376 72.988C110.478 72.8858 110.546 72.7496 110.546 72.5793H111.159C111.159 72.9199 111.057 73.1923 110.835 73.3625C110.631 73.5498 110.325 73.6349 109.95 73.6349C109.559 73.6349 109.252 73.5328 109.048 73.3625Z" fill="#010202"/>
<path d="M118.735 76.376H118.088V77.9083H117.203V76.376H116.556L115.62 77.9083H114.564L115.824 75.9333L114.649 74.0776H115.603L116.539 75.6269H117.203V74.0776H118.088V75.6269H118.752L119.689 74.0776H120.642L119.484 75.9333L120.744 77.9083H119.672L118.735 76.376Z" fill="#010202"/>
<path d="M121.408 74.0776H122.311V76.6144L124.422 74.0776H125.239V77.9083H124.354V75.3885L122.242 77.9083H121.408V74.0776Z" fill="#010202"/>
<path d="M129.24 76.2398C129.376 76.393 129.444 76.5633 129.444 76.7846C129.444 77.023 129.359 77.2273 129.206 77.3975C129.053 77.5848 128.831 77.721 128.559 77.8232C128.287 77.9253 127.963 77.9764 127.606 77.9764C127.316 77.9764 127.027 77.9423 126.737 77.8742C126.448 77.8061 126.193 77.704 125.971 77.5678L126.227 76.9038C126.414 77.0059 126.618 77.0911 126.857 77.1421C127.095 77.1932 127.333 77.2273 127.555 77.2273C127.861 77.2273 128.099 77.1762 128.27 77.0911C128.44 77.0059 128.525 76.8697 128.525 76.6995C128.525 76.5462 128.457 76.4441 128.321 76.359C128.184 76.2738 127.997 76.2398 127.759 76.2398H127.01V75.6439H127.691C127.912 75.6439 128.099 75.6098 128.219 75.5247C128.338 75.4396 128.406 75.3374 128.406 75.2012C128.406 75.065 128.338 74.9459 128.184 74.8778C128.031 74.7926 127.827 74.7586 127.555 74.7586C127.18 74.7586 126.771 74.8437 126.346 75.031L126.124 74.367C126.635 74.1286 127.129 74.0095 127.64 74.0095C127.963 74.0095 128.253 74.0605 128.508 74.1457C128.763 74.2308 128.968 74.367 129.121 74.5202C129.274 74.6735 129.342 74.8607 129.342 75.065C129.342 75.2523 129.291 75.4226 129.172 75.5588C129.053 75.712 128.9 75.8142 128.695 75.8993C128.934 75.9844 129.121 76.0866 129.24 76.2398Z" fill="#010202"/>
<path d="M130.381 74.0776H131.283V75.6439H133.207V74.0776H134.109V77.9083H133.207V76.393H131.283V77.9083H130.381V74.0776Z" fill="#010202"/>
<path d="M135.318 74.0776H136.203V76.6144L138.332 74.0776H139.149V77.9083H138.246V75.3885L136.135 77.9083H135.318V74.0776Z" fill="#010202"/>
</g>
<defs>
<linearGradient id="paint0_linear_66_26" x1="87.9559" y1="55.9323" x2="148.557" y2="43.6314" gradientUnits="userSpaceOnUse">
<stop stop-color="#4064AD"/>
<stop offset="0.00824873" stop-color="#4064AD"/>
<stop offset="0.0231352" stop-color="#4669B0"/>
<stop offset="0.1224" stop-color="#6B89C4"/>
<stop offset="0.2286" stop-color="#8CA7D4"/>
<stop offset="0.3415" stop-color="#A5BFE0"/>
<stop offset="0.4634" stop-color="#BAD3E9"/>
<stop offset="0.5986" stop-color="#C8E1EF"/>
<stop offset="0.7577" stop-color="#D0E9F3"/>
<stop offset="1" stop-color="#D3EBF3"/>
</linearGradient>
<linearGradient id="paint1_linear_66_26" x1="124.419" y1="53.1204" x2="125.242" y2="52.7806" gradientUnits="userSpaceOnUse">
<stop stop-color="#5BB1E4"/>
<stop offset="0.98" stop-color="#C1E5F4"/>
<stop offset="1" stop-color="#C1E5F4"/>
</linearGradient>
<linearGradient id="paint2_linear_66_26" x1="132.774" y1="31.4546" x2="132.409" y2="30.7816" gradientUnits="userSpaceOnUse">
<stop stop-color="#1A66B0"/>
<stop offset="0.00824873" stop-color="#1A66B0"/>
<stop offset="0.0126237" stop-color="#1E69B2"/>
<stop offset="0.0501652" stop-color="#3880C3"/>
<stop offset="0.0905852" stop-color="#4E95D1"/>
<stop offset="0.1342" stop-color="#5FA5DB"/>
<stop offset="0.1826" stop-color="#6CB1E2"/>
<stop offset="0.2396" stop-color="#73B8E6"/>
<stop offset="0.3264" stop-color="#75BAE8"/>
<stop offset="1" stop-color="#C1E5F4"/>
</linearGradient>
<linearGradient id="paint3_linear_66_26" x1="129.101" y1="50.9564" x2="126.051" y2="45.3394" gradientUnits="userSpaceOnUse">
<stop stop-color="#1A66B0"/>
<stop offset="0.00824873" stop-color="#1A66B0"/>
<stop offset="0.0126237" stop-color="#1E69B2"/>
<stop offset="0.0501652" stop-color="#3880C3"/>
<stop offset="0.0905852" stop-color="#4E95D1"/>
<stop offset="0.1342" stop-color="#5FA5DB"/>
<stop offset="0.1826" stop-color="#6CB1E2"/>
<stop offset="0.2396" stop-color="#73B8E6"/>
<stop offset="0.3264" stop-color="#75BAE8"/>
<stop offset="1" stop-color="#C1E5F4"/>
</linearGradient>
<linearGradient id="paint4_linear_66_26" x1="131.261" y1="50.6226" x2="100.414" y2="-6.18512" gradientUnits="userSpaceOnUse">
<stop stop-color="#4064AD"/>
<stop offset="0.00824873" stop-color="#4064AD"/>
<stop offset="0.0231352" stop-color="#4669B0"/>
<stop offset="0.1224" stop-color="#6B89C4"/>
<stop offset="0.2286" stop-color="#8CA7D4"/>
<stop offset="0.3415" stop-color="#A5BFE0"/>
<stop offset="0.4634" stop-color="#BAD3E9"/>
<stop offset="0.5986" stop-color="#C8E1EF"/>
<stop offset="0.7577" stop-color="#D0E9F3"/>
<stop offset="1" stop-color="#D3EBF3"/>
</linearGradient>
<linearGradient id="paint5_linear_66_26" x1="119.739" y1="56.5216" x2="100.315" y2="20.7511" gradientUnits="userSpaceOnUse">
<stop stop-color="#4064AD"/>
<stop offset="0.00824873" stop-color="#4064AD"/>
<stop offset="0.0231352" stop-color="#4669B0"/>
<stop offset="0.1224" stop-color="#6B89C4"/>
<stop offset="0.2286" stop-color="#8CA7D4"/>
<stop offset="0.3415" stop-color="#A5BFE0"/>
<stop offset="0.4634" stop-color="#BAD3E9"/>
<stop offset="0.5986" stop-color="#C8E1EF"/>
<stop offset="0.7577" stop-color="#D0E9F3"/>
<stop offset="1" stop-color="#D3EBF3"/>
</linearGradient>
<linearGradient id="paint6_linear_66_26" x1="87.7129" y1="53.7549" x2="139.621" y2="25.1592" gradientUnits="userSpaceOnUse">
<stop stop-color="#E6332A"/>
<stop offset="0.00824873" stop-color="#E6332A"/>
<stop offset="0.4478" stop-color="#EE7531"/>
<stop offset="0.9112" stop-color="#F9B233"/>
<stop offset="1" stop-color="#F9B233"/>
</linearGradient>
<linearGradient id="paint7_linear_66_26" x1="132.746" y1="31.4545" x2="132.381" y2="30.7816" gradientUnits="userSpaceOnUse">
<stop stop-color="#1A66B0"/>
<stop offset="0.00824873" stop-color="#1A66B0"/>
<stop offset="0.0126237" stop-color="#1E69B2"/>
<stop offset="0.0501652" stop-color="#3880C3"/>
<stop offset="0.0905852" stop-color="#4E95D1"/>
<stop offset="0.1342" stop-color="#5FA5DB"/>
<stop offset="0.1826" stop-color="#6CB1E2"/>
<stop offset="0.2396" stop-color="#73B8E6"/>
<stop offset="0.3264" stop-color="#75BAE8"/>
<stop offset="1" stop-color="#C1E5F4"/>
</linearGradient>
<clipPath id="clip0_66_26">
<rect width="140" height="80.2578" fill="white"/>
</clipPath>
</defs>
</svg>
