<svg width="36" height="36" viewBox="0 0 36 36" fill="none" xmlns="http://www.w3.org/2000/svg">
<rect width="36" height="36" rx="4" fill="#7C96BC"/>
<path d="M18.2127 9C15.651 9 13.5671 11.0839 13.5671 13.6455C13.5671 16.2072 15.651 18.2911 18.2127 18.2911C20.7744 18.2911 22.8582 16.2072 22.8582 13.6455C22.8582 11.0839 20.7744 9 18.2127 9ZM18.2127 15.5688C17.1527 15.5688 16.2894 14.7055 16.2894 13.6455C16.2894 12.5855 17.1527 11.7223 18.2127 11.7223C19.2727 11.7223 20.1359 12.5855 20.1359 13.6455C20.1359 14.7055 19.2727 15.5688 18.2127 15.5688Z" fill="white"/>
<path d="M20.0918 22.0819C21.0474 21.865 21.9588 21.4876 22.79 20.9656C23.4244 20.5641 23.6171 19.725 23.2156 19.0906C22.8181 18.4562 21.9749 18.2634 21.3405 18.6609C19.4373 19.8575 16.988 19.8575 15.0849 18.6609C14.4505 18.2594 13.6113 18.4522 13.2098 19.0866C13.2098 19.0866 13.2098 19.0866 13.2098 19.0906C12.8083 19.725 13.001 20.5681 13.6354 20.9656C14.4665 21.4876 15.378 21.865 16.3336 22.0819L13.7358 24.6797C13.2058 25.2097 13.2058 26.0729 13.7358 26.6029C14.2658 27.1329 15.129 27.1329 15.659 26.6029L18.2127 24.0493L20.7663 26.6029C21.2963 27.1329 22.1556 27.1329 22.6896 26.6029C23.2196 26.0729 23.2236 25.2137 22.6936 24.6797C22.6936 24.6797 22.6936 24.6797 22.6896 24.6757L20.0918 22.0819Z" fill="white"/>
</svg>
