<svg width="31" height="30" viewBox="0 0 31 30" fill="none" xmlns="http://www.w3.org/2000/svg">
<path fill-rule="evenodd" clip-rule="evenodd" d="M2.5 11.751H5.32738L5.44643 11.2847C5.67956 10.3919 6.03175 9.53373 6.49802 8.74504L6.74603 8.32837L4.74702 6.32936L7.5744 3.50198L9.57341 5.50099L9.99008 5.25298C10.7788 4.78671 11.6369 4.43452 12.5298 4.20139L13.001 4.08234V1.25496H16.999V4.08234L17.4653 4.20139C18.3581 4.42956 19.2113 4.78671 20.005 5.25298L20.4216 5.50099L22.4206 3.50198L25.248 6.32936L23.249 8.32837L23.497 8.74504C23.9633 9.53373 24.3155 10.3869 24.5486 11.2847L24.6677 11.751H27.495V13.125H28.745V10.501H25.625C25.4167 9.81647 25.1438 9.16171 24.8115 8.53175L27.0188 6.3244L22.4206 1.72619L20.2133 3.93353C19.5883 3.60119 18.9286 3.32837 18.244 3.12004V0H11.746V3.12004C11.0615 3.32837 10.4067 3.60119 9.77679 3.93353L7.56944 1.72619L2.97123 6.3244L5.17857 8.53175C4.84623 9.15675 4.57341 9.81647 4.36508 10.501H1.25V13.125H2.5V11.751ZM12.5099 13.7698H0.00992063V15.0099H12.5099V13.7698ZM17.5198 13.7698H30.0198V15.0099H17.5198V13.7698ZM12.5 18.75C12.5 20.129 13.621 21.25 15 21.25C16.379 21.25 17.5 20.129 17.5 18.75C17.5 17.371 16.379 16.25 15 16.25C13.621 16.25 12.5 17.371 12.5 18.75ZM16.25 18.75C16.25 19.4395 15.6895 20 15 20C14.3105 20 13.75 19.4395 13.75 18.75C13.75 18.0605 14.3105 17.5 15 17.5C15.6895 17.5 16.25 18.0605 16.25 18.75ZM21.875 27.5C21.875 26.121 22.996 25 24.375 25C25.754 25 26.875 26.121 26.875 27.5C26.875 28.879 25.754 30 24.375 30C22.996 30 21.875 28.879 21.875 27.5ZM23.125 27.5C23.125 28.1895 23.6855 28.75 24.375 28.75C25.0645 28.75 25.625 28.1895 25.625 27.5C25.625 26.8105 25.0645 26.25 24.375 26.25C23.6855 26.25 23.125 26.8105 23.125 27.5ZM3.125 23.125C3.125 24.504 4.24603 25.625 5.625 25.625C7.00397 25.625 8.125 24.504 8.125 23.125C8.125 21.746 7.00397 20.625 5.625 20.625C4.24603 20.625 3.125 21.746 3.125 23.125ZM6.875 23.125C6.875 23.8145 6.31448 24.375 5.625 24.375C4.93552 24.375 4.375 23.8145 4.375 23.125C4.375 22.4355 4.93552 21.875 5.625 21.875C6.31448 21.875 6.875 22.4355 6.875 23.125ZM18.125 18.125H30V19.375H18.125V18.125ZM11.875 18.125H0V19.375H11.875V18.125ZM27.5 26.875H30V28.125H27.5V26.875ZM21.25 26.875H0V28.125H21.25V26.875ZM0 23.75V22.5H2.5V23.75H0ZM30 22.5H8.75V23.75H30V22.5ZM20.625 13.125H19.375C19.375 10.7143 17.4107 8.75 15 8.75C12.5893 8.75 10.625 10.7143 10.625 13.125H9.375C9.375 10.0248 11.8998 7.5 15 7.5C18.1002 7.5 20.625 10.0248 20.625 13.125Z" fill="#EA572E"/>
</svg>
