<svg width="28" height="30" viewBox="0 0 28 30" fill="none" xmlns="http://www.w3.org/2000/svg">
<path fill-rule="evenodd" clip-rule="evenodd" d="M13.0649 0H14.3046V2.47934H13.0649V0ZM4.89271 2.99185L5.90363 2.25747L7.37239 4.2793L6.36147 5.01368L4.89271 2.99185ZM13.6699 3.74876C8.15586 3.74876 3.67321 8.23141 3.67321 13.7455C3.67321 19.2595 8.15586 23.7421 13.6699 23.7421C19.184 23.7421 23.6666 19.2595 23.6666 13.7455C23.6666 8.23141 19.179 3.74876 13.6699 3.74876ZM13.6699 22.4926C8.84512 22.4926 4.9228 18.5702 4.9228 13.7455C4.9228 8.92066 8.84512 4.99835 13.6699 4.99835C18.4947 4.99835 22.417 8.92066 22.417 13.7455C22.417 18.5702 18.4897 22.4926 13.6699 22.4926ZM18.3063 11.5785L19.3228 10.562L16.8484 8.0876L15.8319 9.10413C15.698 9.03967 15.5592 8.98512 15.4154 8.93058V7.49256H11.9145V8.93058C11.7757 8.98017 11.6369 9.03967 11.498 9.10413L10.4815 8.0876L8.0071 10.562L9.02363 11.5785C8.95917 11.7124 8.90462 11.8512 8.85007 11.995H7.41206V15.4959H8.85007C8.89966 15.6347 8.95917 15.7736 9.02363 15.9124L8.0071 16.9289L10.4815 19.4033L11.498 18.3868C11.6319 18.4512 11.7707 18.5058 11.9145 18.5603V19.9983H15.4203V18.5603C15.5592 18.5107 15.698 18.4512 15.8369 18.3868L16.8534 19.4033L19.3278 16.9289L18.3112 15.9124C18.3757 15.7785 18.4302 15.6397 18.4848 15.4959H19.9228V11.995H18.4848C18.4302 11.8562 18.3707 11.7174 18.3063 11.5785ZM18.6683 14.2463H17.5377L17.4187 14.7124C17.3294 15.0645 17.1906 15.3967 17.0071 15.7091L16.7592 16.1256L17.5575 16.924L16.8534 17.6331L16.055 16.8347L15.6385 17.0826C15.3311 17.2661 14.9939 17.405 14.6418 17.4942L14.1707 17.6132V18.7438H13.1691V17.6132L12.698 17.4942C12.3459 17.405 12.0137 17.2661 11.7013 17.0826L11.2848 16.8347L10.4864 17.6331L9.78231 16.924L10.5807 16.1256L10.3327 15.7091C10.1492 15.4017 10.0104 15.0645 9.92115 14.7124L9.80214 14.2463H8.67156V13.2446H9.80214L9.92115 12.7736C10.0104 12.4215 10.1492 12.0893 10.3327 11.7769L10.5807 11.3603L9.78231 10.562L10.4864 9.85289L11.2848 10.6512L11.7013 10.4033C12.0088 10.2198 12.3459 10.081 12.698 9.99174L13.1691 9.87273V8.74215H14.1707V9.87273L14.6418 9.99174C14.9939 10.081 15.3261 10.2198 15.6385 10.4033L16.055 10.6512L16.8534 9.85289L17.5575 10.562L16.7592 11.3603L17.0071 11.7769C17.1906 12.0843 17.3294 12.4215 17.4187 12.7736L17.5377 13.2446H18.6683V14.2463ZM16.784 24.3471H10.536V23.7521H9.29636V25.6364H18.0236V23.7521H16.784V24.3471ZM15.5443 28.7603H11.7757V28.1157H10.536V30H16.784V28.1157H15.5443V28.7603ZM9.29636 26.2314H18.0236V27.4711H9.29636V26.2314ZM10.7939 13.7455C10.7939 12.1587 12.0831 10.8694 13.6699 10.8694C15.2517 10.8694 16.541 12.1587 16.5459 13.7455C16.5459 15.3322 15.2567 16.6215 13.6699 16.6215C12.0831 16.6215 10.7939 15.3322 10.7939 13.7455ZM12.0435 13.7455C12.0435 14.643 12.7724 15.3719 13.6699 15.3719C14.5625 15.3719 15.2914 14.643 15.2964 13.7455C15.2964 12.8479 14.5674 12.119 13.6699 12.119C12.7724 12.119 12.0435 12.8479 12.0435 13.7455ZM0.443698 9.01058L0.0575755 10.1989L2.43429 10.9712L2.82041 9.78283L0.443698 9.01058ZM0 17.6864L2.37671 16.9142L2.76284 18.1025L0.386122 18.8748L0 17.6864ZM6.20558 22.9426L4.73656 24.9644L5.74748 25.6989L7.21649 23.6771L6.20558 22.9426ZM19.7692 23.7936L20.7801 23.0589L22.2493 25.0807L21.2384 25.8154L19.7692 23.7936ZM24.7069 17.0994L24.3206 18.2878L26.6973 19.0602L27.0836 17.8719L24.7069 17.0994ZM24.3802 9.96765L26.7569 9.19541L27.1431 10.3838L24.7663 11.156L24.3802 9.96765ZM21.3954 2.3691L19.9264 4.39093L20.9373 5.12544L22.4063 3.10361L21.3954 2.3691Z" fill="#EA572E"/>
</svg>
