<svg width="23" height="30" viewBox="0 0 23 30" fill="none" xmlns="http://www.w3.org/2000/svg">
<path fill-rule="evenodd" clip-rule="evenodd" d="M21.8678 24.9917H22.5124V0H2.62314C1.2 0 0 1.15537 0 2.52893V26.2314C0 27.6099 1.17521 28.7107 2.62314 28.7107H3.76859V27.4711H2.62314C1.87934 27.4711 1.24959 26.9107 1.24959 26.2314C1.24959 25.6066 1.94876 24.9917 2.62314 24.9917H19.9835V25.6066H9.3719V26.8562H19.9835V27.4711H9.3719V28.7107H22.5124V27.4711H21.2231V24.9917H21.8678ZM2.47934 23.757C2.02314 23.7769 1.59669 23.881 1.23967 24.0793V2.52893C1.23967 1.83967 1.89421 1.23967 2.62314 1.23967H21.2231V23.7521H2.62314C2.57851 23.7521 2.52893 23.7521 2.47934 23.757ZM7.4876 28.7107H5.60331V25.5868H4.36364V30H8.72727V25.5868H7.4876V28.7107ZM7.87438 12.486C7.87438 10.6264 9.38678 9.11405 11.2463 9.11405C13.1058 9.11405 14.6182 10.6264 14.6182 12.486C14.6182 14.3455 13.1058 15.8579 11.2463 15.8579C9.38678 15.8579 7.87438 14.3455 7.87438 12.486ZM9.12397 12.486C9.12397 13.6562 10.076 14.6083 11.2463 14.6083C12.4165 14.6083 13.3686 13.6562 13.3686 12.486C13.3686 11.3157 12.4165 10.3636 11.2463 10.3636C10.076 10.3636 9.12397 11.3157 9.12397 12.486ZM16.7504 9.81322L17.9653 8.59835L15.1388 5.7719L13.924 6.98678C13.7058 6.88264 13.4777 6.78843 13.2496 6.70909V4.99339H9.25289V6.70909C9.01983 6.78843 8.79669 6.88264 8.57851 6.98678L7.36364 5.7719L4.53719 8.59835L5.75207 9.81322C5.64793 10.0314 5.55372 10.2595 5.47438 10.4876H3.74876V14.4843H5.46446C5.5438 14.7174 5.63802 14.9405 5.74215 15.1587L4.52727 16.3736L7.35372 19.2L8.56859 17.9851C8.78678 18.0893 9.01488 18.1835 9.24298 18.2628V19.9835H13.2397V18.2678C13.4727 18.1884 13.6959 18.0942 13.914 17.9901L15.1289 19.205L17.9554 16.3785L16.7405 15.1636C16.8446 14.9455 16.9388 14.7174 17.0182 14.4893H18.7438V10.4926H17.0281C16.9488 10.2545 16.8545 10.0314 16.7504 9.81322ZM17.4942 13.2347H16.081L15.962 13.7058C15.8479 14.1471 15.6744 14.5686 15.4413 14.9554L15.1934 15.3719L16.195 16.3736L15.1339 17.4347L14.1322 16.4331L13.7157 16.681C13.3289 16.9091 12.9074 17.0826 12.4612 17.2017L11.9901 17.3207V18.7339H10.4926V17.3207L10.0215 17.2017C9.58017 17.0876 9.15868 16.914 8.76694 16.681L8.35041 16.4331L7.34876 17.4347L6.29752 16.3736L7.29917 15.3719L7.05124 14.9554C6.82314 14.5686 6.64959 14.1471 6.53058 13.7058L6.41157 13.2347H4.99835V11.7372H6.41157L6.53058 11.2661C6.64463 10.8248 6.81818 10.4033 7.05124 10.0165L7.29917 9.6L6.29752 8.59835L7.35868 7.53719L8.36033 8.53884L8.77686 8.29091C9.16364 8.06281 9.58512 7.88926 10.0314 7.77025L10.5025 7.65124V6.23802H12V7.65124L12.4711 7.77025C12.9124 7.8843 13.3339 8.05785 13.7256 8.29091L14.1421 8.53884L15.1438 7.53719L16.205 8.59835L15.2033 9.6L15.4512 10.0165C15.6793 10.4033 15.8529 10.8248 15.9719 11.2661L16.0909 11.7372H17.5041V13.2347H17.4942ZM2.49917 25.6066H3.7438V26.8562H2.49917V25.6066Z" fill="#EA572E"/>
</svg>
