<svg width="87" height="85" viewBox="0 0 87 85" fill="none" xmlns="http://www.w3.org/2000/svg">
<path d="M84.8543 38.5778C85.6401 38.5778 86.2831 37.9348 86.2831 37.149V32.1482C86.2831 31.7195 86.0688 31.2909 85.7116 31.0051L44.2762 0.285761C44.1333 0.142881 43.9904 0.0714403 43.8475 0.0714403C43.7761 0 43.6332 0 43.5618 0C43.2046 0 42.8474 0.0714403 42.5616 0.285761L1.12621 31.0051C0.769009 31.2909 0.554688 31.7195 0.554688 32.1482V37.149C0.554688 37.9348 1.19765 38.5778 1.98349 38.5778H10.5563V52.0086C5.98415 52.1514 2.3407 51.5085 2.26926 51.437C1.48341 51.2942 0.769009 51.7942 0.626128 52.5801C0.483247 53.3659 0.98333 54.0803 1.76917 54.2232C2.05493 54.2947 5.34119 54.8662 9.48473 54.8662C9.84193 54.8662 10.1991 54.8662 10.5563 54.8662V82.8708C10.5563 83.6566 11.1993 84.2996 11.9851 84.2996C12.771 84.2996 13.4139 83.6566 13.4139 82.8708V54.7233C18.9149 54.1518 24.9158 52.2943 28.2021 47.2221C31.9884 41.2925 36.2034 37.8634 40.7756 37.0775C44.4191 36.4346 48.3483 37.5062 52.5633 40.2924L47.5624 40.721C46.7766 40.7924 46.2051 41.5068 46.2765 42.2927C46.3479 43.0071 46.9909 43.5786 47.7053 43.5786C47.7768 43.5786 47.7767 43.5786 47.8482 43.5786L57.707 42.7213V32.8626C57.707 32.0767 57.064 31.4337 56.2782 31.4337C55.4923 31.4337 54.8493 32.0767 54.8493 32.8626V38.4349C49.7771 34.9343 44.8477 33.5055 40.2755 34.2914C34.9175 35.2201 30.0595 39.0064 25.7731 45.6504C23.1298 49.7225 18.129 51.2942 13.4139 51.8657V37.149C13.4139 36.3631 12.771 35.7202 11.9851 35.7202H3.4123V32.8626L43.4189 3.21481L83.4255 32.8626V35.7202H74.8526C74.0668 35.7202 73.4238 36.3631 73.4238 37.149V50.937C67.9229 51.5085 61.9219 53.3659 58.6357 58.4382C54.8493 64.3677 50.6344 67.7969 46.0622 68.5827C42.4187 69.2257 38.4895 68.1541 34.2745 65.3679L39.2039 64.9393C39.9898 64.8678 40.5613 64.1534 40.4898 63.3676C40.4184 62.6532 39.7754 62.0816 39.061 62.0816C38.9896 62.0816 38.9896 62.0816 38.9182 62.0816L29.1308 62.8675V72.7263C29.1308 73.5121 29.7738 74.1551 30.5596 74.1551C31.3455 74.1551 31.9884 73.5121 31.9884 72.7263V67.1539C37.0607 70.6545 41.9901 72.0833 46.5623 71.2975C51.9203 70.3687 56.7782 66.5824 61.0647 59.9384C63.7079 55.8663 68.7088 54.2947 73.4238 53.7231V82.8708C73.4238 83.6566 74.0668 84.2996 74.8526 84.2996C75.6385 84.2996 76.2814 83.6566 76.2814 82.8708V53.6517C80.8536 53.5088 84.4971 54.2232 84.5685 54.2232C85.3544 54.3661 86.0688 53.866 86.2117 53.0802C86.3545 52.2943 85.8545 51.5799 85.0686 51.437C84.7828 51.3656 81.4966 50.7941 77.3531 50.7941C76.9958 50.7941 76.6387 50.7941 76.2814 50.7941V38.5778H84.8543Z" fill="#EA572E"/>
</svg>
