<svg width="85" height="85" viewBox="0 0 85 85" fill="none" xmlns="http://www.w3.org/2000/svg">
<path d="M72.5717 34.3998C80.1819 34.8447 83.2851 33.1393 84.5411 28.0233C85.2061 25.2799 84.3195 17.0498 79.2953 10.3767C74.8621 4.5934 68.2124 1.33101 60.1589 1.03442C54.6175 0.811988 50.1843 2.51733 47.0073 6.15045C41.7614 11.9338 41.2442 21.2761 41.392 26.5404C39.9881 26.6146 38.6582 26.9111 37.3282 27.356C35.1856 24.3161 34.8161 19.7932 36.0722 13.4908C37.5499 6.00216 36.3677 2.66562 31.4913 0.663698C28.9053 -0.374336 20.6301 -0.670918 13.3154 3.40707C6.96127 6.96605 2.82367 13.046 1.41985 21.0537C0.459335 26.5404 1.49373 31.2116 4.52304 34.8447C10.5078 42.0368 22.4034 43.2972 26.541 43.5197C26.6148 44.2611 26.6887 45.0767 26.8365 45.8182C26.7626 45.8923 26.6887 45.9665 26.6887 46.0406C24.1027 49.0806 19.4479 50.3411 12.5027 49.9703C4.89247 49.5255 1.78928 51.1566 0.533221 56.2727C-0.13175 59.0161 0.754877 67.2462 5.7791 73.9193C10.2122 79.7767 16.7881 82.965 24.9155 83.2616C25.211 83.2616 25.5066 83.2616 25.8021 83.2616C30.9741 83.2616 35.1117 81.5562 38.141 78.1455C43.1652 72.5105 43.9041 63.6872 43.7563 58.2746C45.234 58.1263 46.6378 57.8297 48.0417 57.3107C49.8888 60.3507 50.2582 64.7994 49.0761 70.8052C47.5983 78.2938 48.7805 81.6304 53.657 83.6323C54.6175 84.003 56.3169 84.2996 58.5334 84.2996C62.2277 84.2996 67.2519 83.484 71.8328 80.8889C78.187 77.3299 82.3246 71.25 83.7284 63.2423C84.6889 57.7556 83.6545 53.0844 80.5513 49.4513C74.4188 42.1109 62.0799 40.9246 58.3118 40.7763C58.2379 40.109 58.0901 39.4417 57.9423 38.7744C58.0901 38.6261 58.3118 38.4778 58.4595 38.3295C60.8978 35.3637 65.5526 34.0291 72.5717 34.3998ZM6.8135 32.991C4.37527 30.0252 3.48864 26.1697 4.30139 21.6468C5.55744 14.4547 9.10395 9.19041 14.7931 6.0763C18.9307 3.62951 23.5116 2.9622 26.6887 2.9622C28.462 2.9622 29.7919 3.18464 30.383 3.40707C33.0429 4.51925 34.5945 5.63143 33.1907 12.8235C31.8607 19.6449 32.304 24.8351 34.6684 28.5423C30.383 30.9891 27.2798 35.3637 26.6887 40.5539C22.7728 40.3314 11.9855 39.1451 6.8135 32.991ZM35.8505 76.2178C33.2645 79.1094 29.6441 80.5182 24.9894 80.2958C17.6747 80.0733 12.0594 77.2558 8.14344 72.1398C3.7103 66.2081 2.97145 58.9419 3.41476 57.0141C4.00584 54.4932 4.81859 52.862 10.36 52.862C10.9511 52.862 11.6161 52.862 12.3549 52.9361C19.5218 53.3069 24.6199 52.0464 27.9448 49.0064C30.2352 54.0483 35.0378 57.7556 40.727 58.3487C40.8009 63.2423 40.2098 71.3242 35.8505 76.2178ZM46.3423 54.7898C45.4557 55.0863 44.4952 55.3088 43.5346 55.3829C43.1652 55.3829 42.7958 55.4571 42.4264 55.4571C41.7614 55.4571 41.1703 55.3829 40.5792 55.3088C36.22 54.6415 32.5996 51.824 30.7524 47.9684C30.3091 46.9304 29.9397 45.8923 29.718 44.7802C29.5703 44.1128 29.4964 43.4455 29.4964 42.7782C29.4964 42.6299 29.4964 42.5558 29.4964 42.4816C29.4964 40.9987 29.718 39.5158 30.2352 38.1812C31.1957 35.3637 33.1907 32.9911 35.6289 31.434C36.5894 30.8408 37.6977 30.3218 38.806 30.0252C39.6926 29.7287 40.6531 29.5804 41.6136 29.5062C41.9092 29.5062 42.1308 29.5062 42.4264 29.5062C43.1652 29.5062 43.9041 29.5804 44.569 29.7287C48.485 30.396 51.8098 32.8428 53.657 36.1793C54.248 37.2173 54.6914 38.4037 54.9869 39.59C55.1347 40.3314 55.2825 41.0729 55.2825 41.8143C55.2825 42.0368 55.2825 42.2592 55.2825 42.4816C55.2825 43.8163 55.0608 45.0767 54.6914 46.3372C53.7309 49.303 51.8098 51.824 49.2238 53.4552C48.3372 54.0483 47.3767 54.4932 46.3423 54.7898ZM78.187 51.3791C80.6991 54.3449 81.5118 58.2004 80.6991 62.7233C79.443 69.9154 75.8965 75.1797 70.2812 78.2938C63.7793 81.9269 56.4646 81.6304 54.6914 80.8889C51.9576 79.7767 50.4799 78.5904 51.8837 71.3983C53.2137 64.7252 52.7703 59.6834 50.6277 56.0502C54.913 53.4552 57.7946 48.9323 58.2379 43.7421C61.8583 43.9646 72.9411 45.0767 78.187 51.3791ZM56.7602 35.7344C54.4697 30.8408 49.8149 27.356 44.3474 26.6887C44.1996 21.8693 44.6429 13.1943 49.1499 8.15237C51.7359 5.26071 55.3563 3.92609 60.0111 4.07438C67.2519 4.29682 72.9411 7.11434 76.857 12.2304C81.3641 18.162 82.029 25.5024 81.5857 27.356C80.9208 30.1735 79.9602 31.8789 72.6456 31.434C65.3309 31.0633 60.085 32.472 56.7602 35.7344Z" fill="#EA572E"/>
</svg>
