<svg width="85" height="85" viewBox="0 0 85 85" fill="none" xmlns="http://www.w3.org/2000/svg">
<path d="M75.0186 15.7504H81.2909V12.2658H69.5827L66.335 24.3365L69.722 25.2425L71.8268 17.4091C77.9457 24.5037 81.2909 33.1874 81.2909 42.1359C81.2909 63.4338 63.9515 80.7732 42.6536 80.7732C36.8692 80.7732 31.2381 79.4769 25.9136 76.9122L24.3943 80.0762C30.1927 82.8779 36.3395 84.2857 42.6676 84.2857C65.9029 84.2857 84.8174 65.3712 84.8174 42.1359C84.8034 32.602 81.3606 23.3747 75.0186 15.7504Z" fill="#EA572E"/>
<path d="M13.4527 66.8487C7.34767 59.754 4.01639 51.0983 4.01639 42.1498C4.01639 20.8519 21.3558 3.51248 42.6537 3.51248C48.4382 3.51248 54.0693 4.80876 59.3938 7.37343L60.913 4.2094C55.1147 1.42172 48.9678 0 42.6537 0C19.4183 0 0.503906 18.9144 0.503906 42.1498C0.503906 51.6558 3.91882 60.8412 10.2051 68.4377H4.07214V72.0617H15.7247L18.9723 59.9492L15.5853 59.0014L13.4527 66.8487Z" fill="#EA572E"/>
<path d="M9.92627 42.0941H13.4388C13.4388 26.0649 26.5409 12.907 42.6537 12.907C47.0722 12.907 51.3095 13.8966 55.268 15.7783L56.7873 12.6004C52.3548 10.4817 47.6018 9.39453 42.6537 9.39453C24.6034 9.39453 9.92627 24.1135 9.92627 42.0941Z" fill="#EA572E"/>
<path d="M42.6537 71.3369C38.2073 71.3369 33.9561 70.3891 29.9837 68.4796L28.4504 71.6296C32.8968 73.7762 37.6777 74.8494 42.6537 74.8494C60.704 74.8494 75.3811 60.2141 75.3811 42.0941H71.8686C71.8686 58.2627 58.7665 71.3369 42.6537 71.3369Z" fill="#EA572E"/>
<path d="M31.7263 61.0224L35.1412 57.6075C35.7545 57.9002 36.3956 58.1651 37.0368 58.3881V63.2108H48.2712V58.402C48.9263 58.179 49.5535 57.9142 50.1668 57.6215L53.5817 61.0364L61.5266 53.0915L58.1117 49.6766C58.4044 49.0633 58.6692 48.4221 58.8922 47.7809H63.7149V36.5466H58.9062C58.6832 35.8915 58.4183 35.2642 58.1256 34.6509L61.5405 31.236L53.5956 23.2911L50.1807 26.706C49.5674 26.4133 48.9263 26.1485 48.2851 25.9255V21.1028H37.0507V25.9255C36.3956 26.1485 35.7684 26.4133 35.1551 26.706L31.7263 23.2772L23.7813 31.2221L27.1963 34.637C26.9036 35.2503 26.6387 35.8915 26.4157 36.5326H21.593V47.767H26.4157C26.6387 48.4221 26.9036 49.0493 27.1963 49.6626L23.7813 53.0775L31.7263 61.0224ZM25.0916 44.2545V40.0451H29.064L29.3985 38.7349C29.7191 37.4944 30.207 36.3096 30.8621 35.2224L31.559 34.0516L28.7434 31.2221L31.7263 28.2393L34.5418 31.0548L35.7126 30.3579C36.7998 29.7167 37.9846 29.2289 39.2391 28.8944L40.5493 28.5598V24.5874H44.7587V28.5598L46.0828 28.8944C47.3234 29.2149 48.5081 29.7028 49.6093 30.3579L50.7801 31.0548L53.5956 28.2393L56.5785 31.2221L53.749 34.0376L54.4459 35.2085C55.0871 36.2957 55.5749 37.4804 55.9094 38.721L56.2439 40.0312H60.2164V44.2406H56.2439L55.9094 45.5508C55.5888 46.7913 55.101 47.9761 54.4459 49.0633L53.749 50.2341L56.5645 53.0497L53.5817 56.0325L50.7661 53.2448L49.5953 53.9417C48.5081 54.5829 47.3233 55.0707 46.0689 55.4053L44.7447 55.7398V59.7122H40.5353V55.7398L39.2251 55.4053C37.9846 55.0847 36.7998 54.5968 35.6987 53.9417L34.5279 53.2448L31.7263 56.0604L28.7434 53.0775L31.559 50.262L30.8621 49.0911C30.2209 48.0039 29.7331 46.8192 29.3985 45.5787L29.064 44.2684H25.0916V44.2545Z" fill="#EA572E"/>
<path d="M42.6537 51.628C47.8806 51.628 52.1318 47.3768 52.1318 42.1499C52.1318 36.923 47.8806 32.6718 42.6537 32.6718C37.4268 32.6718 33.1755 36.923 33.1755 42.1499C33.1755 47.3768 37.4268 51.628 42.6537 51.628ZM42.6537 36.1842C45.9431 36.1842 48.6193 38.8604 48.6193 42.1499C48.6193 45.4393 45.9431 48.1155 42.6537 48.1155C39.3642 48.1155 36.688 45.4393 36.688 42.1499C36.688 38.8604 39.3642 36.1842 42.6537 36.1842Z" fill="#EA572E"/>
</svg>
