<svg width="36" height="36" viewBox="0 0 36 36" fill="none" xmlns="http://www.w3.org/2000/svg">
<rect width="36" height="36" rx="4" fill="#7C96BC"/>
<path d="M25.6601 9.22481C25.3531 8.96479 24.8708 8.92759 24.3722 9.1275H24.3713C23.8469 9.33764 9.52653 15.4716 8.94356 15.7223C8.83753 15.7591 7.91149 16.1041 8.00688 16.8727C8.09203 17.5656 8.8363 17.8526 8.92719 17.8858L12.5679 19.1306C12.8094 19.9336 13.6998 22.8959 13.8967 23.5288C14.0196 23.9233 14.2198 24.4417 14.5706 24.5484C14.8785 24.6669 15.1847 24.5586 15.3828 24.4032L17.6087 22.3415L21.2019 25.1399L21.2874 25.191C21.5314 25.299 21.7652 25.3529 21.9883 25.3529C22.1606 25.3529 22.326 25.3206 22.4841 25.2561C23.0224 25.0353 23.2377 24.523 23.2603 24.465L25.9442 10.5335C26.108 9.78939 25.8803 9.41082 25.6601 9.22481ZM15.7787 19.6286L14.5505 22.8992L13.3224 18.8109L22.7383 11.8609L15.7787 19.6286Z" fill="white"/>
</svg>
