<svg width="44" height="31" viewBox="0 0 44 31" fill="none" xmlns="http://www.w3.org/2000/svg">
<g clip-path="url(#clip0_298_480)">
<path d="M43.3467 30.8379H0.841275H0.0952148V30.0544V0.618721V-0.162109H0.841275H43.3467H44.0952V0.618721V30.0544V30.8379H43.3467Z" fill="#005596"/>
<path fill-rule="evenodd" clip-rule="evenodd" d="M43.3464 30.0539H0.841064V0.618164H43.3464V30.0539Z" fill="white"/>
<path fill-rule="evenodd" clip-rule="evenodd" d="M16.2056 20.1154L18.9645 10.5908H21.428L18.6666 20.1154H16.2056Z" fill="#005596"/>
<path fill-rule="evenodd" clip-rule="evenodd" d="M15.1041 10.5938L12.8884 14.6315C12.3226 15.6796 11.9947 16.2246 11.8344 16.8928H11.8019C11.8419 16.0438 11.7293 15.0036 11.7168 14.4167L11.4664 10.5938H7.32552L7.28296 10.8558C8.34947 10.8558 8.98037 11.4139 9.15562 12.5615L9.96176 20.1209H12.5179L17.6752 10.5938H15.1041Z" fill="#005596"/>
<path fill-rule="evenodd" clip-rule="evenodd" d="M34.2562 20.1159L34.1886 18.701H31.1143L30.4859 20.1185H27.8096L32.659 10.6123H35.9411L36.7623 20.1185L34.2562 20.1159ZM33.9758 14.4981C33.9383 13.7527 33.9383 13.0058 33.9758 12.2604H33.9383C33.7881 12.7321 33.1446 14.1522 32.8617 14.8518L31.9454 16.948H34.106L33.9808 14.506L33.9758 14.4981Z" fill="#005596"/>
<path fill-rule="evenodd" clip-rule="evenodd" d="M24.0142 20.3885C22.7008 20.4022 21.411 20.0231 20.2964 19.2959L21.4706 17.4198C22.2091 17.8547 22.7824 18.3421 24.1268 18.3421C24.5549 18.3421 24.9705 18.2268 25.2059 17.7997C25.5489 17.1787 25.1257 16.846 24.1644 16.2774L23.6887 15.9525C22.2617 14.9332 21.6458 13.9637 22.3168 12.2841C22.7474 11.202 23.879 10.3818 25.7491 10.3818C26.9049 10.4042 28.0249 10.8056 28.9512 11.5295L27.6018 13.1855C26.9158 12.6038 26.35 12.3103 25.6941 12.3103C25.1733 12.3103 24.7803 12.5199 24.6426 12.8029C24.3922 13.327 24.7252 13.6991 25.4762 14.1838L26.037 14.5664C27.7695 15.7088 28.1826 16.9088 27.747 18.0277C26.9959 19.9588 25.5388 20.3859 24.0117 20.3859L24.0142 20.3885Z" fill="#005596"/>
<path fill-rule="evenodd" clip-rule="evenodd" d="M37.4957 11.8829H37.3881V11.2016H37.6384C37.7936 11.2016 37.8738 11.2593 37.8738 11.3981C37.8755 11.4221 37.8724 11.4463 37.8648 11.469C37.8571 11.4917 37.845 11.5124 37.8292 11.53C37.8134 11.5475 37.7943 11.5613 37.7731 11.5707C37.7519 11.58 37.729 11.5846 37.706 11.5842L37.8863 11.8829H37.7661L37.5984 11.592H37.4982V11.8829H37.4957ZM37.6159 11.4951C37.6935 11.4951 37.7661 11.4951 37.7661 11.3903C37.7661 11.2855 37.6885 11.2986 37.6234 11.2986H37.4957V11.4951H37.6159ZM37.6159 12.1449C37.4668 12.1347 37.327 12.0655 37.2249 11.9514C37.1228 11.8373 37.0659 11.6868 37.0659 11.5305C37.0659 11.3741 37.1228 11.2236 37.2249 11.1095C37.327 10.9954 37.4668 10.9262 37.6159 10.916C37.765 10.9262 37.9048 10.9954 38.0069 11.1095C38.109 11.2236 38.1659 11.3741 38.1659 11.5305C38.1659 11.6868 38.109 11.8373 38.0069 11.9514C37.9048 12.0655 37.765 12.1347 37.6159 12.1449ZM37.6159 11.0234C37.5539 11.024 37.4926 11.0378 37.4359 11.0641C37.3791 11.0903 37.3281 11.1284 37.2859 11.176C37.2437 11.2235 37.2112 11.2797 37.1905 11.3408C37.1697 11.402 37.1612 11.467 37.1653 11.5318C37.1721 11.6232 37.2042 11.7105 37.2576 11.7831C37.3111 11.8557 37.3836 11.9104 37.4663 11.9405C37.5491 11.9706 37.6384 11.9749 37.7233 11.9528C37.8083 11.9306 37.8853 11.8831 37.9449 11.8159C38.0044 11.7487 38.044 11.6648 38.0587 11.5744C38.0735 11.4841 38.0627 11.3912 38.0278 11.3071C37.9929 11.2231 37.9354 11.1515 37.8622 11.1011C37.7891 11.0507 37.7035 11.0237 37.6159 11.0234Z" fill="#005596"/>
<path fill-rule="evenodd" clip-rule="evenodd" d="M42.3002 23.0742H1.96289V28.7234H42.3002V23.0742Z" fill="#F7AA0F"/>
<path fill-rule="evenodd" clip-rule="evenodd" d="M42.225 2.02832H1.8877V7.67755H42.225V2.02832Z" fill="#005596"/>
<path fill-rule="evenodd" clip-rule="evenodd" d="M41.3087 28.3223H41.2011V27.6437H41.4514C41.6091 27.6437 41.6868 27.6987 41.6868 27.8376C41.6885 27.8616 41.6854 27.8857 41.6778 27.9084C41.6701 27.9311 41.658 27.9519 41.6422 27.9694C41.6264 27.9869 41.6073 28.0008 41.5861 28.0101C41.5649 28.0195 41.542 28.0241 41.519 28.0236L41.6993 28.3223H41.5791L41.4114 28.0315H41.3087V28.3223ZM41.4289 27.9372C41.509 27.9372 41.5791 27.9372 41.5791 27.8297C41.5791 27.7223 41.5015 27.738 41.4364 27.738H41.3087V27.9372H41.4289ZM41.4289 28.5844C41.2798 28.5742 41.14 28.505 41.0379 28.3909C40.9357 28.2768 40.8789 28.1263 40.8789 27.9699C40.8789 27.8136 40.9357 27.6631 41.0379 27.5489C41.14 27.4348 41.2798 27.3657 41.4289 27.3555C41.578 27.3657 41.7178 27.4348 41.8199 27.5489C41.922 27.6631 41.9789 27.8136 41.9789 27.9699C41.9789 28.1263 41.922 28.2768 41.8199 28.3909C41.7178 28.505 41.578 28.5742 41.4289 28.5844ZM41.4289 27.4629C41.3669 27.4635 41.3056 27.4773 41.2488 27.5035C41.1921 27.5297 41.1411 27.5678 41.0989 27.6154C41.0567 27.663 41.0242 27.7191 41.0035 27.7803C40.9827 27.8415 40.9741 27.9064 40.9782 27.9712C40.9782 28.0963 41.0257 28.2163 41.1102 28.3047C41.1947 28.3932 41.3094 28.4429 41.4289 28.4429C41.5484 28.4429 41.663 28.3932 41.7475 28.3047C41.832 28.2163 41.8795 28.0963 41.8795 27.9712C41.8836 27.9064 41.875 27.8415 41.8543 27.7803C41.8335 27.7191 41.8011 27.663 41.7589 27.6154C41.7167 27.5678 41.6657 27.5297 41.6089 27.5035C41.5522 27.4773 41.4909 27.4635 41.4289 27.4629Z" fill="#005596"/>
</g>
<defs>
<clipPath id="clip0_298_480">
<rect width="44" height="31" fill="white"/>
</clipPath>
</defs>
</svg>
