<svg width="36" height="36" viewBox="0 0 36 36" fill="none" xmlns="http://www.w3.org/2000/svg">
<rect width="36" height="36" rx="4" fill="#7C96BC"/>
<path d="M24.3775 11.6158C22.6854 9.92988 20.4351 9.00095 18.0376 9C13.0976 9 9.07712 13.001 9.07515 17.9189C9.07451 19.4909 9.4872 21.0254 10.2715 22.3779L9 27L13.7511 25.7597C15.0602 26.4702 16.534 26.8447 18.034 26.8453H18.0377C22.9771 26.8453 26.998 22.8439 27 17.926C27.001 15.5427 26.0696 13.3017 24.3775 11.6158ZM18.0377 25.3389H18.0346C16.698 25.3384 15.3869 24.9811 14.2432 24.3056L13.9712 24.1449L11.1518 24.881L11.9044 22.1453L11.7272 21.8648C10.9815 20.6845 10.5877 19.3202 10.5883 17.9194C10.5899 13.8319 13.9316 10.5064 18.0406 10.5064C20.0302 10.5072 21.9005 11.2794 23.307 12.6806C24.7134 14.0819 25.4875 15.9445 25.4868 17.9254C25.4852 22.0132 22.1435 25.3389 18.0377 25.3389ZM22.1237 19.7866C21.8997 19.6751 20.7988 19.1359 20.5935 19.0615C20.3882 18.9871 20.239 18.95 20.0896 19.1731C19.9404 19.3962 19.5112 19.8982 19.3805 20.0469C19.2499 20.1957 19.1193 20.2143 18.8954 20.1027C18.6714 19.9912 17.9498 19.7558 17.0945 18.9966C16.4288 18.4057 15.9793 17.6758 15.8487 17.4526C15.7181 17.2295 15.8348 17.1089 15.9469 16.9978C16.0476 16.898 16.1709 16.7375 16.2828 16.6074C16.3948 16.4773 16.4321 16.3842 16.5068 16.2355C16.5814 16.0868 16.5441 15.9566 16.4881 15.8451C16.4321 15.7335 15.9842 14.6365 15.7976 14.1903C15.6159 13.7557 15.4312 13.8145 15.2938 13.8077C15.1633 13.8012 15.0138 13.7999 14.8646 13.7999C14.7153 13.7999 14.4727 13.8556 14.2674 14.0788C14.0622 14.3019 13.4836 14.8411 13.4836 15.938C13.4836 17.035 14.2861 18.0947 14.398 18.2435C14.51 18.3922 15.9771 20.6433 18.2235 21.6087C18.7578 21.8383 19.175 21.9754 19.5002 22.0782C20.0366 22.2477 20.5248 22.2238 20.9107 22.1665C21.341 22.1025 22.2356 21.6273 22.4223 21.1067C22.6089 20.5861 22.6089 20.1399 22.5529 20.047C22.4969 19.954 22.3476 19.8982 22.1237 19.7866Z" fill="white"/>
</svg>
