<svg width="100" height="58" viewBox="0 0 100 58" fill="none" xmlns="http://www.w3.org/2000/svg">
<g clip-path="url(#clip0_66_535)">
<mask id="mask0_66_535" style="mask-type:luminance" maskUnits="userSpaceOnUse" x="61" y="24" width="39" height="23">
<path d="M79.156 43.2077C72.358 43.9495 65.8762 41.9794 61.0969 38.2581C65.2803 44.1684 73.0634 47.7316 81.3572 46.8317C92.7764 45.5791 100.851 36.3489 99.4041 26.2066L99.1974 24.7959C98.2731 34.172 90.1009 42.0037 79.156 43.2077Z" fill="white"/>
</mask>
<g mask="url(#mask0_66_535)">
<path d="M56.6216 25.7084L99.2824 17.0498L105.326 46.8321L62.6778 55.4908L56.6216 25.7084Z" fill="url(#paint0_linear_66_535)"/>
</g>
<mask id="mask1_66_535" style="mask-type:luminance" maskUnits="userSpaceOnUse" x="88" y="37" width="2" height="2">
<path d="M88.9214 38.0515C89.0916 37.9056 89.2619 37.7475 89.42 37.6016C89.2619 37.7475 89.0916 37.9056 88.9214 38.0515Z" fill="white"/>
</mask>
<g mask="url(#mask1_66_535)">
<path d="M88.7632 37.6622L89.3469 37.4189L89.578 37.9783L88.9942 38.2216L88.7632 37.6622Z" fill="url(#paint1_linear_66_535)"/>
</g>
<mask id="mask2_66_535" style="mask-type:luminance" maskUnits="userSpaceOnUse" x="94" y="21" width="1" height="2">
<path d="M94.6979 22.1695C94.71 22.279 94.7222 22.4006 94.7465 22.51C94.7343 22.4006 94.7222 22.2911 94.6979 22.1695C94.6857 22.0966 94.6735 22.0114 94.6614 21.9385C94.6857 22.0114 94.6979 22.0966 94.6979 22.1695Z" fill="white"/>
</mask>
<g mask="url(#mask2_66_535)">
<path d="M94.6858 22.5469L94.4304 22.0726L94.7344 21.9023L94.9898 22.3888L94.6858 22.5469Z" fill="url(#paint2_linear_66_535)"/>
</g>
<mask id="mask3_66_535" style="mask-type:luminance" maskUnits="userSpaceOnUse" x="88" y="30" width="7" height="9">
<path d="M88.2524 38.55C90.9765 36.3854 93.0317 33.6491 94.0168 30.2197C93.0196 33.4546 90.9643 36.3367 88.2524 38.55Z" fill="white"/>
</mask>
<g mask="url(#mask3_66_535)">
<path d="M89.5536 40.9697L84.75 32.1287L92.7033 27.8115L97.5069 36.6647L89.5536 40.9697Z" fill="url(#paint3_linear_66_535)"/>
</g>
<mask id="mask4_66_535" style="mask-type:luminance" maskUnits="userSpaceOnUse" x="63" y="-1" width="35" height="44">
<path d="M75.5078 8.00239C77.8914 8.02671 80.3479 8.29425 82.5126 8.8415C83.7408 9.10904 84.9205 9.51035 86.0393 10.0211C86.2703 10.1306 86.5014 10.24 86.7203 10.3616C88.2283 11.1643 89.5781 12.1979 90.6848 13.414C90.928 13.6816 91.1591 13.9491 91.3901 14.2288C91.609 14.5085 91.8279 14.8004 92.0225 15.0923C94.8925 19.3121 95.5249 24.6873 94.1385 29.5517C94.0899 29.7463 94.0291 29.953 93.9683 30.1476V30.1598C92.7278 34.4283 89.8457 37.6266 86.0636 40.0102C86.1244 39.9737 86.1974 39.9372 86.2582 39.9007C84.7745 40.825 83.1814 41.6154 81.4911 42.1627C107.54 33.9783 99.4894 0.559849 73.2337 1.84892C69.9016 1.84892 66.3019 1.78811 63.5779 -0.0117188C65.5115 4.62163 70.3759 7.71052 75.5078 8.00239Z" fill="white"/>
</mask>
<g mask="url(#mask4_66_535)">
<path d="M73.5986 60.6232L45.908 9.60775L97.5436 -18.4355L125.246 32.5799L73.5986 60.6232Z" fill="url(#paint4_linear_66_535)"/>
</g>
<mask id="mask5_66_535" style="mask-type:luminance" maskUnits="userSpaceOnUse" x="61" y="8" width="34" height="36">
<path d="M61.0969 38.2584C66.3018 43.2201 74.1092 44.3997 80.9559 42.3445C80.9802 42.3445 80.9923 42.3323 81.0167 42.3323C81.0288 42.3323 81.041 42.3202 81.0653 42.3202C81.5517 42.1742 82.026 42.004 82.5003 41.8337C82.5733 41.8094 82.6341 41.7851 82.707 41.7608C83.6921 41.3716 84.6406 40.8973 85.5527 40.3623C85.5649 40.3501 85.5892 40.3501 85.6014 40.3379C85.8324 40.2042 86.0635 40.0704 86.2824 39.9245C86.2216 39.9609 86.1486 39.9974 86.0878 40.0339C86.8296 39.5718 87.535 39.0732 88.2038 38.5259C88.216 38.5138 88.216 38.5138 88.2281 38.5016C90.9522 36.337 93.0074 33.6007 93.9925 30.1713V30.1592C94.0533 29.9646 94.1141 29.7579 94.1627 29.5633C94.6856 27.7148 94.9167 25.8055 94.8559 23.9084C94.8437 23.6409 94.8316 23.3612 94.8072 23.0936C94.8072 23.0207 94.7951 22.9355 94.7829 22.8626C94.7708 22.7409 94.7586 22.6315 94.7464 22.5221C94.7343 22.4126 94.7221 22.291 94.71 22.1815C94.6978 22.0964 94.6856 22.0234 94.6735 21.9383C94.6613 21.8289 94.637 21.7316 94.6248 21.6221C94.6127 21.5127 94.5883 21.4154 94.564 21.306C94.2478 19.6156 93.6763 17.9617 92.8493 16.4294C92.7885 16.3321 92.7399 16.2226 92.6791 16.1254C92.6061 16.0037 92.5453 15.8821 92.4723 15.7605C92.3386 15.5295 92.1926 15.3106 92.0467 15.0917C91.8521 14.7998 91.6332 14.5079 91.4143 14.2282C91.1954 13.9485 90.9522 13.6688 90.709 13.4135C89.6267 12.2338 88.3254 11.2245 86.8783 10.434C86.854 10.4218 86.8296 10.4097 86.8053 10.3975C86.781 10.3854 86.7688 10.3732 86.7445 10.361C86.708 10.3367 86.6594 10.3124 86.6229 10.3002C86.5742 10.2759 86.5134 10.2516 86.4648 10.2151C86.331 10.1421 86.1973 10.0813 86.0635 10.0205C84.9812 9.50977 83.838 9.13278 82.6462 8.86523C95.0261 22.4734 79.4114 43.3052 61.0969 38.2584Z" fill="white"/>
</mask>
<g mask="url(#mask5_66_535)">
<path d="M68.8314 58.628L46.1997 16.9522L87.3039 -5.36328L109.936 36.3125L68.8314 58.628Z" fill="url(#paint5_linear_66_535)"/>
</g>
<mask id="mask6_66_535" style="mask-type:luminance" maskUnits="userSpaceOnUse" x="61" y="16" width="34" height="27">
<path d="M79.2776 38.076C73.1363 40.4595 66.5572 40.3501 61.0847 38.2462C66.6058 42.4539 74.8267 43.6579 82.33 40.7392C92.6304 36.7382 97.6529 26.4622 93.5303 17.8035L92.9587 16.5996C94.637 25.1853 89.1645 34.2331 79.2776 38.076Z" fill="white"/>
</mask>
<g mask="url(#mask6_66_535)">
<path d="M49.3738 22.4008L89.8091 2.38379L109.352 37.8575L68.9165 57.8745L49.3738 22.4008Z" fill="url(#paint6_linear_66_535)"/>
</g>
<path d="M4.87667 27.2406H3.21061V31.4483H0.802734V21.002H3.21061V25.234H4.93748L7.68587 21.002H10.2397L6.82243 26.0488L10.337 31.4483H7.58858L4.87667 27.2406Z" fill="white"/>
<path d="M21.0385 21.0024V31.4487H18.655V22.9725H15.0675L14.9945 25.1493C14.9459 26.6329 14.8243 27.8369 14.6418 28.749C14.4473 29.6732 14.1311 30.3785 13.6933 30.865C13.2555 31.3514 12.6353 31.6068 11.8326 31.6068C11.5043 31.6068 11.103 31.546 10.6409 31.4365L10.7868 29.3935C10.9206 29.43 11.0665 29.4543 11.2246 29.4543C11.7962 29.4543 12.2096 29.1138 12.4285 28.4328C12.6596 27.7518 12.8055 26.6816 12.8663 25.2344L13.0123 20.9902H21.0385V21.0024Z" fill="white"/>
<path d="M23.6531 21.002H26.0488V27.8121L31.0348 21.002H33.3089V31.4483H30.9254V24.6624L25.9393 31.4483H23.6531V21.002Z" fill="white"/>
<path d="M45.4093 31.4483L45.3972 25.1975L42.3204 30.3538H41.2503L38.1735 25.3191V31.4483H35.8994V21.002H37.906L41.8097 27.4959L45.6647 21.002H47.6713L47.6834 31.4483H45.4093Z" fill="white"/>
<path d="M57.3513 29.2106H52.4991L51.5748 31.4483H49.094L53.7517 21.002H56.1352L60.805 31.4483H58.2634L57.3513 29.2106ZM56.5852 27.3743L54.9313 23.3734L53.2774 27.3743H56.5852Z" fill="white"/>
<path d="M69.6706 22.972H66.3263V31.4483H63.9306V22.972H60.6106V21.002H69.6706V22.972Z" fill="white"/>
<path d="M3.42945 46.2972C2.56602 45.8351 1.89716 45.1906 1.39856 44.3758C0.899959 43.5488 0.656738 42.6246 0.656738 41.5909C0.656738 40.5572 0.899959 39.633 1.39856 38.806C1.885 37.9791 2.56602 37.3467 3.42945 36.8846C4.29288 36.4225 5.2536 36.1914 6.33593 36.1914C7.23585 36.1914 8.06279 36.3495 8.79246 36.6657C9.52212 36.9819 10.1423 37.444 10.6409 38.0399L9.08432 39.4749C8.37898 38.6601 7.50339 38.2466 6.45754 38.2466C5.81301 38.2466 5.22928 38.3925 4.73068 38.6723C4.21991 38.952 3.83076 39.3533 3.5389 39.864C3.25919 40.3748 3.11326 40.9464 3.11326 41.5909C3.11326 42.2354 3.25919 42.8192 3.5389 43.3178C3.8186 43.8285 4.21991 44.2177 4.73068 44.5095C5.24144 44.7892 5.81301 44.9352 6.45754 44.9352C7.50339 44.9352 8.37898 44.5217 9.08432 43.6947L10.6288 45.1176C10.1302 45.7256 9.50995 46.1878 8.78029 46.5039C8.03847 46.8201 7.22368 46.9782 6.32377 46.9782C5.2536 46.9904 4.29288 46.7593 3.42945 46.2972Z" fill="white"/>
<path d="M20.09 38.3314H16.7457V46.8076H14.3621V38.3314H11.03V36.3613H20.09V38.3314Z" fill="white"/>
<path d="M28.5419 36.8234C29.2229 37.1275 29.7458 37.5653 30.1107 38.1368C30.4755 38.7084 30.6579 39.3773 30.6579 40.1556C30.6579 40.9217 30.4755 41.5906 30.1107 42.1621C29.7458 42.7337 29.2229 43.1715 28.5419 43.4755C27.8609 43.7795 27.0582 43.9255 26.134 43.9255H24.0302V46.8076H21.6101V36.3613H26.134C27.0582 36.3613 27.8609 36.5194 28.5419 36.8234ZM27.6541 41.4933C28.0311 41.1771 28.2257 40.7393 28.2257 40.1556C28.2257 39.5718 28.0311 39.1219 27.6541 38.8057C27.2771 38.4895 26.7177 38.3314 26.0002 38.3314H24.0302V41.9554H26.0002C26.7299 41.9554 27.2771 41.7973 27.6541 41.4933Z" fill="white"/>
<path d="M34.4765 46.285C33.6009 45.8228 32.9199 45.1783 32.4335 44.3514C31.947 43.5244 31.6917 42.6123 31.6917 41.5786C31.6917 40.5571 31.9349 39.6329 32.4335 38.8059C32.9321 37.979 33.6131 37.3466 34.4765 36.8723C35.3521 36.4102 36.325 36.167 37.4073 36.167C38.4897 36.167 39.4625 36.3981 40.3381 36.8723C41.2016 37.3345 41.8826 37.979 42.3812 38.8059C42.8798 39.6329 43.123 40.545 43.123 41.5786C43.123 42.6002 42.8798 43.5244 42.3812 44.3514C41.8826 45.1783 41.2016 45.8107 40.3381 46.285C39.4747 46.7471 38.5018 46.9903 37.4073 46.9903C36.325 46.9903 35.34 46.7592 34.4765 46.285ZM39.0734 44.5094C39.572 44.2297 39.9611 43.8284 40.2408 43.3177C40.5205 42.8069 40.6665 42.2353 40.6665 41.5908C40.6665 40.9463 40.5205 40.3625 40.2408 39.8639C39.9611 39.3532 39.572 38.964 39.0734 38.6722C38.5748 38.3925 38.0154 38.2465 37.4073 38.2465C36.7871 38.2465 36.2277 38.3925 35.7413 38.6722C35.2427 38.9519 34.8535 39.3532 34.5738 39.8639C34.2941 40.3747 34.1482 40.9463 34.1482 41.5908C34.1482 42.2353 34.2941 42.8191 34.5738 43.3177C34.8535 43.8284 35.2427 44.2176 35.7413 44.5094C36.2399 44.7892 36.7993 44.9351 37.4073 44.9351C38.0154 44.9351 38.5748 44.7892 39.0734 44.5094Z" fill="white"/>
<path d="M44.9836 36.3614H47.3915V43.1715L52.3775 36.3614H54.6516V46.8077H52.2681V40.0218L47.2821 46.8077H44.9958V36.3614H44.9836ZM46.9051 33.4062H48.559C48.5833 34.1359 48.9968 34.5007 49.7994 34.5007C50.2007 34.5007 50.5047 34.4035 50.7115 34.221C50.9182 34.0386 51.0277 33.7711 51.0398 33.4062H52.6937C52.6816 34.1481 52.4383 34.7196 51.9641 35.1088C51.4898 35.4979 50.7601 35.6925 49.7994 35.6925C47.8901 35.6925 46.9294 34.9264 46.9051 33.4062Z" fill="white"/>
<mask id="mask7_66_535" style="mask-type:luminance" maskUnits="userSpaceOnUse" x="94" y="21" width="1" height="2">
<path d="M94.6857 22.1695C94.6978 22.279 94.71 22.4006 94.7343 22.51C94.71 22.4006 94.6978 22.2911 94.6857 22.1695C94.6735 22.0966 94.6613 22.0114 94.6492 21.9385C94.6613 22.0114 94.6735 22.0966 94.6857 22.1695Z" fill="white"/>
</mask>
<g mask="url(#mask7_66_535)">
<path d="M94.6735 22.5469L94.406 22.0726L94.71 21.9023L94.9654 22.3888L94.6735 22.5469Z" fill="url(#paint7_linear_66_535)"/>
</g>
<path d="M3.83078 52.6331H2.639V55.649H1.98231V52.6331H0.790527V52.0615H3.83078V52.6331Z" fill="white"/>
<path d="M6.60352 54.4934H4.46318C4.49967 54.7001 4.59695 54.8582 4.75505 54.9677C4.91314 55.0893 5.10772 55.1501 5.35094 55.1501C5.65496 55.1501 5.89818 55.0528 6.09276 54.8582L6.43327 55.2474C6.31166 55.3933 6.15356 55.5028 5.97115 55.5757C5.78873 55.6487 5.56984 55.6852 5.33878 55.6852C5.03475 55.6852 4.76721 55.6244 4.54831 55.5028C4.31725 55.3811 4.147 55.2109 4.01323 55.0042C3.89162 54.7853 3.83081 54.5542 3.83081 54.2745C3.83081 54.007 3.89162 53.7637 4.01323 53.557C4.13484 53.3381 4.30509 53.18 4.52399 53.0584C4.74289 52.9368 4.98611 52.876 5.25365 52.876C5.52119 52.876 5.76441 52.9368 5.97115 53.0584C6.17789 53.18 6.34814 53.3381 6.45759 53.557C6.56704 53.7759 6.64 54.0191 6.64 54.2988C6.61568 54.3475 6.61568 54.4083 6.60352 54.4934ZM4.7064 53.5813C4.56047 53.7029 4.47534 53.861 4.45102 54.0678H6.00763C5.98331 53.8732 5.89818 53.7029 5.75225 53.5813C5.60632 53.4597 5.43606 53.3989 5.22933 53.3989C5.02259 53.3989 4.85234 53.4597 4.7064 53.5813Z" fill="white"/>
<path d="M8.95049 55.6483L8.25731 54.6998L7.53981 55.6483H6.83447L7.90464 54.262L6.88312 52.9121H7.60062L8.26947 53.812L8.93833 52.9121H9.6315L8.60998 54.2498L9.68015 55.6483H8.95049Z" fill="white"/>
<path d="M10.1301 52.9121H10.7747V54.0309H12.1489V52.9121H12.7934V55.6483H12.1489V54.566H10.7747V55.6483H10.1301V52.9121Z" fill="white"/>
<path d="M14.1311 55.5028C13.9122 55.3811 13.7298 55.2109 13.6082 55.0042C13.4866 54.7853 13.4258 54.5542 13.4258 54.2745C13.4258 54.007 13.4866 53.7637 13.6082 53.557C13.7298 53.3503 13.9122 53.18 14.1311 53.0584C14.35 52.9368 14.6054 52.876 14.8851 52.876C15.1648 52.876 15.4202 52.9368 15.6391 53.0584C15.858 53.18 16.0404 53.3381 16.162 53.557C16.2836 53.7637 16.3444 54.007 16.3444 54.2745C16.3444 54.542 16.2836 54.7853 16.162 55.0042C16.0404 55.2231 15.858 55.3811 15.6391 55.5028C15.4202 55.6244 15.1648 55.6852 14.8851 55.6852C14.6054 55.6852 14.35 55.6244 14.1311 55.5028ZM15.4567 54.9069C15.6148 54.7488 15.6877 54.542 15.6877 54.2867C15.6877 54.0313 15.6148 53.8245 15.4567 53.6664C15.2986 53.5083 15.104 53.4354 14.8729 53.4354C14.6419 53.4354 14.4473 53.5083 14.2892 53.6664C14.1311 53.8245 14.0582 54.0313 14.0582 54.2867C14.0582 54.542 14.1311 54.7488 14.2892 54.9069C14.4473 55.065 14.6297 55.1379 14.8729 55.1379C15.1162 55.1379 15.3107 55.065 15.4567 54.9069Z" fill="white"/>
<path d="M19.4212 52.9121V55.6483H18.7767V53.4594H17.7552L17.7308 54.0066C17.7187 54.3714 17.6822 54.6755 17.6336 54.9187C17.5849 55.1619 17.4998 55.3565 17.3782 55.5024C17.2566 55.6483 17.0985 55.7213 16.8917 55.7213C16.7944 55.7213 16.6728 55.697 16.5391 55.6605L16.5755 55.1254C16.6242 55.1376 16.6607 55.1376 16.6972 55.1376C16.8309 55.1376 16.9282 55.0889 16.989 54.9795C17.0498 54.87 17.0985 54.7484 17.1106 54.6025C17.135 54.4566 17.1471 54.2498 17.1593 53.9823L17.2079 52.9243H19.4212V52.9121Z" fill="white"/>
<path d="M20.7588 55.5028C20.5399 55.3811 20.3575 55.2109 20.2359 55.0042C20.1143 54.7853 20.0535 54.5542 20.0535 54.2745C20.0535 54.007 20.1143 53.7637 20.2359 53.557C20.3575 53.3503 20.5399 53.18 20.7588 53.0584C20.9777 52.9368 21.2331 52.876 21.5128 52.876C21.7925 52.876 22.0479 52.9368 22.2668 53.0584C22.4857 53.18 22.6681 53.3381 22.7897 53.557C22.9113 53.7637 22.9721 54.007 22.9721 54.2745C22.9721 54.542 22.9113 54.7853 22.7897 55.0042C22.6681 55.2231 22.4857 55.3811 22.2668 55.5028C22.0479 55.6244 21.7925 55.6852 21.5128 55.6852C21.2209 55.6852 20.9777 55.6244 20.7588 55.5028ZM22.0844 54.9069C22.2425 54.7488 22.3154 54.542 22.3154 54.2867C22.3154 54.0313 22.2425 53.8245 22.0844 53.6664C21.9263 53.5083 21.7317 53.4354 21.5006 53.4354C21.2696 53.4354 21.075 53.5083 20.9169 53.6664C20.7588 53.8245 20.6858 54.0313 20.6858 54.2867C20.6858 54.542 20.7588 54.7488 20.9169 54.9069C21.075 55.065 21.2574 55.1379 21.5006 55.1379C21.7438 55.1379 21.9384 55.065 22.0844 54.9069Z" fill="white"/>
<path d="M25.6964 53.4594H24.2371V55.6483H23.5925V52.9121H25.6964V53.4594Z" fill="white"/>
<path d="M26.1707 52.9121H26.803V54.7241L28.3232 52.9121H28.9069V55.6483H28.2623V53.8485L26.7544 55.6483H26.1707V52.9121Z" fill="white"/>
<path d="M29.7703 52.9121H30.4026V54.7241L31.9228 52.9121H32.5065V55.6483H31.862V53.8485L30.354 55.6483H29.7703V52.9121Z" fill="white"/>
<path d="M37.6992 55.1133V56.2685H37.1033V55.6605H34.9872V56.2685H34.3914V55.1133H34.5251C34.6954 55.1011 34.817 54.9916 34.8778 54.7727C34.9386 54.5538 34.9872 54.2498 34.9994 53.8485L35.0359 52.9121H37.2978V55.1011H37.6992V55.1133ZM35.5102 54.6633C35.4737 54.8579 35.4007 55.0038 35.3034 55.1011H36.6533V53.4472H35.6075L35.5953 53.885C35.571 54.2133 35.5467 54.4687 35.5102 54.6633Z" fill="white"/>
<path d="M40.7638 52.9121V55.6483H40.1192V53.4594H39.0977L39.0734 54.0066C39.0612 54.3714 39.0247 54.6755 38.9761 54.9187C38.9274 55.1619 38.8423 55.3565 38.7207 55.5024C38.5991 55.6483 38.441 55.7213 38.2343 55.7213C38.137 55.7213 38.0154 55.697 37.8816 55.6605L37.9181 55.1254C37.9667 55.1376 38.0032 55.1376 38.0397 55.1376C38.1735 55.1376 38.2707 55.0889 38.3316 54.9795C38.3924 54.87 38.441 54.7484 38.4532 54.6025C38.4775 54.4566 38.4896 54.2498 38.5018 53.9823L38.5504 52.9243H40.7638V52.9121Z" fill="white"/>
<path d="M43.9379 52.9121V55.6483H43.3663V54.8214H42.6488L42.0894 55.6483H41.3962L42.0408 54.7363C41.8462 54.6633 41.6881 54.566 41.5908 54.4201C41.4814 54.2741 41.4327 54.1039 41.4327 53.8972C41.4327 53.581 41.5422 53.3377 41.7611 53.1675C41.98 52.9972 42.284 52.9121 42.6731 52.9121H43.9379ZM42.0773 53.9215C42.0773 54.2255 42.2718 54.3836 42.6731 54.3836H43.3542V53.4594H42.6975C42.284 53.4472 42.0773 53.6053 42.0773 53.9215Z" fill="white"/>
<path d="M47.3429 54.5538H46.8564V55.6483H46.2119V52.9121H46.8564V54.0188H47.3672L48.1698 52.9121H48.863L47.8658 54.2255L48.9238 55.6483H48.1698L47.3429 54.5538Z" fill="white"/>
<path d="M49.763 55.5028C49.5441 55.3811 49.3616 55.2109 49.24 55.0042C49.1184 54.7853 49.0576 54.5542 49.0576 54.2745C49.0576 54.007 49.1184 53.7637 49.24 53.557C49.3616 53.3503 49.5441 53.18 49.763 53.0584C49.9819 52.9368 50.2372 52.876 50.5169 52.876C50.7966 52.876 51.052 52.9368 51.2709 53.0584C51.4898 53.18 51.6722 53.3381 51.7938 53.557C51.9155 53.7637 51.9763 54.007 51.9763 54.2745C51.9763 54.542 51.9155 54.7853 51.7938 55.0042C51.6722 55.2231 51.4898 55.3811 51.2709 55.5028C51.052 55.6244 50.7966 55.6852 50.5169 55.6852C50.2251 55.6852 49.9819 55.6244 49.763 55.5028ZM51.0885 54.9069C51.2466 54.7488 51.3196 54.542 51.3196 54.2867C51.3196 54.0313 51.2466 53.8245 51.0885 53.6664C50.9304 53.5083 50.7358 53.4354 50.5048 53.4354C50.2737 53.4354 50.0791 53.5083 49.921 53.6664C49.763 53.8245 49.69 54.0313 49.69 54.2867C49.69 54.542 49.763 54.7488 49.921 54.9069C50.0791 55.065 50.2616 55.1379 50.5048 55.1379C50.748 55.1379 50.9426 55.065 51.0885 54.9069Z" fill="white"/>
<path d="M55.2962 55.6483V53.8363L54.3719 55.3686H54.0922L53.1802 53.8363V55.6483H52.5964V52.9121H53.2775L54.2503 54.6268L55.2719 52.9121H55.8677V55.6483H55.2962Z" fill="white"/>
<path d="M59.9296 55.2838C59.6499 55.527 59.2486 55.6608 58.7257 55.6973V56.6458H58.1176V55.6973C57.5947 55.6608 57.1934 55.527 56.9137 55.2838C56.634 55.0406 56.488 54.7001 56.488 54.2744C56.488 53.8488 56.634 53.5205 56.9137 53.2772C57.1934 53.034 57.5947 52.9002 58.1176 52.8638V51.8301H58.7257V52.8638C59.2486 52.9002 59.6499 53.034 59.9296 53.2772C60.2093 53.5205 60.3552 53.8488 60.3552 54.2623C60.3552 54.7001 60.2093 55.0406 59.9296 55.2838ZM57.3636 54.8947C57.5217 55.0406 57.7771 55.1257 58.1176 55.1622V53.4232C57.7771 53.4475 57.5339 53.5326 57.3636 53.6785C57.2055 53.8245 57.1204 54.0191 57.1204 54.2744C57.1204 54.542 57.2055 54.7487 57.3636 54.8947ZM59.7229 54.2744C59.7229 54.0191 59.6377 53.8123 59.4796 53.6664C59.3094 53.5205 59.0662 53.4353 58.7257 53.411V55.15C59.3945 55.1014 59.7229 54.8095 59.7229 54.2744Z" fill="white"/>
<path d="M61.4497 55.5028C61.2308 55.3811 61.0484 55.2109 60.9268 55.0042C60.8052 54.7853 60.7444 54.5542 60.7444 54.2745C60.7444 54.007 60.8052 53.7637 60.9268 53.557C61.0484 53.3503 61.2308 53.18 61.4497 53.0584C61.6686 52.9368 61.924 52.876 62.2037 52.876C62.4834 52.876 62.7388 52.9368 62.9577 53.0584C63.1766 53.18 63.359 53.3381 63.4806 53.557C63.6022 53.7637 63.663 54.007 63.663 54.2745C63.663 54.542 63.6022 54.7853 63.4806 55.0042C63.359 55.2231 63.1766 55.3811 62.9577 55.5028C62.7388 55.6244 62.4834 55.6852 62.2037 55.6852C61.924 55.6852 61.6686 55.6244 61.4497 55.5028ZM62.7753 54.9069C62.9334 54.7488 63.0063 54.542 63.0063 54.2867C63.0063 54.0313 62.9334 53.8245 62.7753 53.6664C62.6172 53.5083 62.4226 53.4354 62.1915 53.4354C61.9605 53.4354 61.7659 53.5083 61.6078 53.6664C61.4497 53.8245 61.3768 54.0313 61.3768 54.2867C61.3768 54.542 61.4497 54.7488 61.6078 54.9069C61.7659 55.065 61.9483 55.1379 62.1915 55.1379C62.4348 55.1379 62.6293 55.065 62.7753 54.9069Z" fill="white"/>
<path d="M66.5208 53.0579C66.7276 53.1796 66.8978 53.3377 67.0194 53.5444C67.141 53.7511 67.2018 54.0065 67.2018 54.274C67.2018 54.5416 67.141 54.797 67.0194 55.0159C66.8978 55.2348 66.7397 55.3929 66.5208 55.5145C66.3019 55.6361 66.0709 55.6847 65.8033 55.6847C65.4385 55.6847 65.1466 55.5631 64.9277 55.3199V56.6454H64.2832V52.912H64.8913V53.2768C65.0007 53.1431 65.1223 53.0458 65.2804 52.985C65.4385 52.9242 65.6088 52.8877 65.7912 52.8877C66.0709 52.8877 66.3141 52.9363 66.5208 53.0579ZM66.3141 54.9064C66.4722 54.7483 66.5452 54.5416 66.5452 54.2862C66.5452 54.0308 66.4722 53.8241 66.3141 53.666C66.156 53.5079 65.9736 53.4349 65.7304 53.4349C65.5723 53.4349 65.4385 53.4714 65.3169 53.5444C65.1953 53.6174 65.098 53.7146 65.025 53.8484C64.9521 53.9822 64.9156 54.1281 64.9156 54.2984C64.9156 54.4686 64.9521 54.6146 65.025 54.7483C65.098 54.8821 65.1953 54.9794 65.3169 55.0524C65.4385 55.1253 65.5844 55.1618 65.7304 55.1618C65.9736 55.1375 66.1682 55.0645 66.3141 54.9064Z" fill="white"/>
<path d="M69.9017 53.4594H68.9409V55.6483H68.2964V53.4594H67.3357V52.9121H69.9017V53.4594Z" fill="white"/>
<path d="M70.3638 52.9121H71.0083V54.0309H72.3825V52.9121H73.027V55.6483H72.3825V54.566H71.0083V55.6483H70.3638V52.9121Z" fill="white"/>
<path d="M74.3648 55.5028C74.1459 55.3811 73.9634 55.2109 73.8418 55.0042C73.7202 54.7853 73.6594 54.5542 73.6594 54.2745C73.6594 54.007 73.7202 53.7637 73.8418 53.557C73.9634 53.3503 74.1459 53.18 74.3648 53.0584C74.5837 52.9368 74.839 52.876 75.1187 52.876C75.3984 52.876 75.6538 52.9368 75.8727 53.0584C76.0916 53.18 76.274 53.3381 76.3957 53.557C76.5173 53.7637 76.5781 54.007 76.5781 54.2745C76.5781 54.542 76.5173 54.7853 76.3957 55.0042C76.274 55.2231 76.0916 55.3811 75.8727 55.5028C75.6538 55.6244 75.3984 55.6852 75.1187 55.6852C74.8269 55.6852 74.5837 55.6244 74.3648 55.5028ZM75.6903 54.9069C75.8484 54.7488 75.9214 54.542 75.9214 54.2867C75.9214 54.0313 75.8484 53.8245 75.6903 53.6664C75.5322 53.5083 75.3376 53.4354 75.1066 53.4354C74.8755 53.4354 74.6809 53.5083 74.5229 53.6664C74.3648 53.8245 74.2918 54.0313 74.2918 54.2867C74.2918 54.542 74.3648 54.7488 74.5229 54.9069C74.6809 55.065 74.8634 55.1379 75.1066 55.1379C75.3376 55.1379 75.5322 55.065 75.6903 54.9069Z" fill="white"/>
<path d="M77.1982 52.912H77.8427V54.724L79.3507 52.9241H79.9344V55.6604H79.2899V53.8605L77.7819 55.6604H77.186V52.912H77.1982ZM77.8914 52.4012C77.7454 52.2674 77.6725 52.085 77.6725 51.8418H78.0981C78.0981 51.9634 78.1346 52.0607 78.2076 52.1337C78.2805 52.2066 78.39 52.2431 78.5237 52.2431C78.6575 52.2431 78.7548 52.2066 78.8399 52.1337C78.9129 52.0607 78.9615 51.9634 78.9615 51.8418H79.3993C79.3993 52.085 79.3264 52.2796 79.1683 52.4012C79.0223 52.535 78.8034 52.5958 78.5359 52.5958C78.2562 52.5958 78.0373 52.5228 77.8914 52.4012Z" fill="white"/>
<path d="M84.811 54.5538H84.3489V55.6483H83.7165V54.5538H83.2544L82.5855 55.6483H81.8315L82.7315 54.2377L81.8923 52.9121H82.5734L83.2422 54.0188H83.7165V52.9121H84.3489V54.0188H84.8231L85.492 52.9121H86.173L85.3461 54.2377L86.246 55.6483H85.4798L84.811 54.5538Z" fill="white"/>
<path d="M86.7202 52.9121H87.3648V54.7241L88.8727 52.9121H89.4564V55.6483H88.8241V53.8485L87.3161 55.6483H86.7202V52.9121Z" fill="white"/>
<path d="M92.3144 54.4564C92.4117 54.5658 92.4603 54.6874 92.4603 54.8455C92.4603 55.0158 92.3995 55.1617 92.2901 55.2833C92.1806 55.4171 92.0225 55.5144 91.828 55.5873C91.6334 55.6603 91.4023 55.6968 91.1469 55.6968C90.9402 55.6968 90.7335 55.6725 90.5267 55.6238C90.32 55.5752 90.1376 55.5022 89.9795 55.4049L90.1619 54.9307C90.2957 55.0036 90.4416 55.0644 90.6119 55.1009C90.7821 55.1374 90.9524 55.1617 91.1105 55.1617C91.3294 55.1617 91.4996 55.1252 91.6212 55.0644C91.7428 55.0036 91.8036 54.9063 91.8036 54.7847C91.8036 54.6753 91.755 54.6023 91.6577 54.5415C91.5604 54.4807 91.4267 54.4564 91.2564 54.4564H90.7213V54.0307H91.2078C91.3658 54.0307 91.4996 54.0064 91.5847 53.9456C91.6699 53.8848 91.7185 53.8118 91.7185 53.7146C91.7185 53.6173 91.6699 53.5321 91.5604 53.4835C91.451 53.4227 91.305 53.3984 91.1105 53.3984C90.8429 53.3984 90.5511 53.4592 90.247 53.5929L90.0889 53.1187C90.4538 52.9484 90.8064 52.8633 91.1713 52.8633C91.4023 52.8633 91.6091 52.8998 91.7915 52.9606C91.9739 53.0214 92.1198 53.1187 92.2293 53.2281C92.3387 53.3376 92.3874 53.4713 92.3874 53.6173C92.3874 53.751 92.3509 53.8726 92.2658 53.9699C92.1806 54.0794 92.0712 54.1523 91.9253 54.2132C92.0955 54.274 92.2293 54.3469 92.3144 54.4564Z" fill="white"/>
<path d="M93.1292 52.9121H93.7737V54.0309H95.1479V52.9121H95.7924V55.6483H95.1479V54.566H93.7737V55.6483H93.1292V52.9121Z" fill="white"/>
<path d="M96.6558 52.9121H97.2881V54.7241L98.8083 52.9121H99.392V55.6483H98.7475V53.8485L97.2395 55.6483H96.6558V52.9121Z" fill="white"/>
</g>
<defs>
<linearGradient id="paint0_linear_66_535" x1="62.8256" y1="39.9517" x2="106.112" y2="31.1653" gradientUnits="userSpaceOnUse">
<stop stop-color="#4064AD"/>
<stop offset="0.00824873" stop-color="#4064AD"/>
<stop offset="0.0231352" stop-color="#4669B0"/>
<stop offset="0.1224" stop-color="#6B89C4"/>
<stop offset="0.2286" stop-color="#8CA7D4"/>
<stop offset="0.3415" stop-color="#A5BFE0"/>
<stop offset="0.4634" stop-color="#BAD3E9"/>
<stop offset="0.5986" stop-color="#C8E1EF"/>
<stop offset="0.7577" stop-color="#D0E9F3"/>
<stop offset="1" stop-color="#D3EBF3"/>
</linearGradient>
<linearGradient id="paint1_linear_66_535" x1="88.8709" y1="37.9427" x2="89.4586" y2="37.7" gradientUnits="userSpaceOnUse">
<stop stop-color="#5BB1E4"/>
<stop offset="0.98" stop-color="#C1E5F4"/>
<stop offset="1" stop-color="#C1E5F4"/>
</linearGradient>
<linearGradient id="paint2_linear_66_535" x1="94.8389" y1="22.4679" x2="94.5778" y2="21.9872" gradientUnits="userSpaceOnUse">
<stop stop-color="#1A66B0"/>
<stop offset="0.00824873" stop-color="#1A66B0"/>
<stop offset="0.0126237" stop-color="#1E69B2"/>
<stop offset="0.0501652" stop-color="#3880C3"/>
<stop offset="0.0905852" stop-color="#4E95D1"/>
<stop offset="0.1342" stop-color="#5FA5DB"/>
<stop offset="0.1826" stop-color="#6CB1E2"/>
<stop offset="0.2396" stop-color="#73B8E6"/>
<stop offset="0.3264" stop-color="#75BAE8"/>
<stop offset="1" stop-color="#C1E5F4"/>
</linearGradient>
<linearGradient id="paint3_linear_66_535" x1="92.2152" y1="36.3967" x2="90.0365" y2="32.3846" gradientUnits="userSpaceOnUse">
<stop stop-color="#1A66B0"/>
<stop offset="0.00824873" stop-color="#1A66B0"/>
<stop offset="0.0126237" stop-color="#1E69B2"/>
<stop offset="0.0501652" stop-color="#3880C3"/>
<stop offset="0.0905852" stop-color="#4E95D1"/>
<stop offset="0.1342" stop-color="#5FA5DB"/>
<stop offset="0.1826" stop-color="#6CB1E2"/>
<stop offset="0.2396" stop-color="#73B8E6"/>
<stop offset="0.3264" stop-color="#75BAE8"/>
<stop offset="1" stop-color="#C1E5F4"/>
</linearGradient>
<linearGradient id="paint4_linear_66_535" x1="93.7583" y1="36.1595" x2="71.7245" y2="-4.41738" gradientUnits="userSpaceOnUse">
<stop stop-color="#4064AD"/>
<stop offset="0.00824873" stop-color="#4064AD"/>
<stop offset="0.0231352" stop-color="#4669B0"/>
<stop offset="0.1224" stop-color="#6B89C4"/>
<stop offset="0.2286" stop-color="#8CA7D4"/>
<stop offset="0.3415" stop-color="#A5BFE0"/>
<stop offset="0.4634" stop-color="#BAD3E9"/>
<stop offset="0.5986" stop-color="#C8E1EF"/>
<stop offset="0.7577" stop-color="#D0E9F3"/>
<stop offset="1" stop-color="#D3EBF3"/>
</linearGradient>
<linearGradient id="paint5_linear_66_535" x1="85.528" y1="40.3723" x2="71.6538" y2="14.822" gradientUnits="userSpaceOnUse">
<stop stop-color="#4064AD"/>
<stop offset="0.00824873" stop-color="#4064AD"/>
<stop offset="0.0231352" stop-color="#4669B0"/>
<stop offset="0.1224" stop-color="#6B89C4"/>
<stop offset="0.2286" stop-color="#8CA7D4"/>
<stop offset="0.3415" stop-color="#A5BFE0"/>
<stop offset="0.4634" stop-color="#BAD3E9"/>
<stop offset="0.5986" stop-color="#C8E1EF"/>
<stop offset="0.7577" stop-color="#D0E9F3"/>
<stop offset="1" stop-color="#D3EBF3"/>
</linearGradient>
<linearGradient id="paint6_linear_66_535" x1="62.6523" y1="38.3966" x2="99.7293" y2="17.9711" gradientUnits="userSpaceOnUse">
<stop stop-color="#E6332A"/>
<stop offset="0.00824873" stop-color="#E6332A"/>
<stop offset="0.4478" stop-color="#EE7531"/>
<stop offset="0.9112" stop-color="#F9B233"/>
<stop offset="1" stop-color="#F9B233"/>
</linearGradient>
<linearGradient id="paint7_linear_66_535" x1="94.819" y1="22.4679" x2="94.558" y2="21.9872" gradientUnits="userSpaceOnUse">
<stop stop-color="#1A66B0"/>
<stop offset="0.00824873" stop-color="#1A66B0"/>
<stop offset="0.0126237" stop-color="#1E69B2"/>
<stop offset="0.0501652" stop-color="#3880C3"/>
<stop offset="0.0905852" stop-color="#4E95D1"/>
<stop offset="0.1342" stop-color="#5FA5DB"/>
<stop offset="0.1826" stop-color="#6CB1E2"/>
<stop offset="0.2396" stop-color="#73B8E6"/>
<stop offset="0.3264" stop-color="#75BAE8"/>
<stop offset="1" stop-color="#C1E5F4"/>
</linearGradient>
<clipPath id="clip0_66_535">
<rect width="100" height="57.327" fill="white"/>
</clipPath>
</defs>
</svg>
