<svg width="46" height="32" viewBox="0 0 46 32" fill="none" xmlns="http://www.w3.org/2000/svg">
<g clip-path="url(#clip0_298_491)">
<path d="M45.0654 0H0V31.0303H45.0654V0Z" fill="white" stroke="#1D1D1B" stroke-width="2" stroke-miterlimit="10"/>
<path fill-rule="evenodd" clip-rule="evenodd" d="M30.5932 27.8408L31.2163 27.8251L31.8292 27.7805L32.4318 27.6992L33.0292 27.5917L33.6113 27.4553L34.1831 27.29L34.7446 27.0933L35.2934 26.873L35.8293 26.6238L36.3498 26.3537L36.855 26.0547L37.3473 25.7347L37.8191 25.3885L38.2729 25.0239L38.7114 24.6358L39.1319 24.224L39.5345 23.7965L39.9115 23.348L40.2704 22.8811L40.6063 22.3985L40.9192 21.8949L41.2141 21.3809L41.4782 20.8484L41.7218 20.2977L41.9372 19.7364L42.1269 19.1646L42.291 18.5771L42.4243 17.9817L42.5295 17.3706L42.6064 16.7569L42.6526 16.1274L42.6679 15.4927L42.6526 14.8606L42.6064 14.2364L42.5295 13.62L42.4243 13.0168L42.291 12.424L42.1269 11.8418L41.9372 11.2674L41.7218 10.7087L41.4782 10.1658L41.2141 9.63336L40.9192 9.12192L40.6063 8.61834L40.2704 8.13574L39.9115 7.67413L39.5345 7.22563L39.1319 6.79549L38.7114 6.38896L38.2729 6.00341L37.8191 5.63622L37.3473 5.29263L36.855 4.97003L36.3498 4.67627L35.8293 4.40612L35.2934 4.15696L34.7446 3.93664L34.1831 3.73993L33.6113 3.5747L33.0292 3.43831L32.4318 3.32815L31.8292 3.24947L31.2163 3.20488L30.5932 3.18652L29.9753 3.20488L29.3624 3.24947L28.7599 3.32815L28.1675 3.43831L27.5855 3.5747L27.0137 3.73993L26.4547 3.93664L25.9059 4.15696L25.3751 4.40612L24.8572 4.67627L24.3546 4.97003L23.8674 5.29263L23.3956 5.63622L22.9392 6.00341L22.5033 6.38896L22.0853 6.79549L21.6879 7.22563L21.3084 7.67413L20.9519 8.13574L20.6186 8.61834L20.3058 9.12192L20.016 9.63336L19.7493 10.1658L19.5083 10.7087L19.2929 11.2674L19.1057 11.8418L18.9442 12.424L18.8083 13.0168L18.7032 13.62L18.6262 14.2364L18.5826 14.8606L18.5647 15.4927L18.5826 16.1274L18.6262 16.7569L18.7032 17.3706L18.8083 17.9817L18.9442 18.5771L19.1057 19.1646L19.2929 19.7364L19.5083 20.2977L19.7493 20.8484L20.016 21.3809L20.3058 21.8949L20.6186 22.3985L20.9519 22.8811L21.3084 23.348L21.6879 23.7965L22.0853 24.224L22.5033 24.6358L22.9392 25.0239L23.3956 25.3885L23.8674 25.7347L24.3546 26.0547L24.8572 26.3537L25.3751 26.6238L25.9059 26.873L26.4547 27.0933L27.0137 27.29L27.5855 27.4553L28.1675 27.5917L28.7599 27.6992L29.3624 27.7805L29.9753 27.8251L30.5932 27.8408Z" fill="#FAB51D"/>
<path fill-rule="evenodd" clip-rule="evenodd" d="M14.4722 27.8408L15.0901 27.8251L15.703 27.7805L16.3055 27.6992L16.8979 27.5917L17.4799 27.4553L18.0518 27.29L18.6107 27.0933L19.1595 26.873L19.6903 26.6238L20.2082 26.3537L20.7108 26.0547L21.198 25.7347L21.6698 25.3885L22.1262 25.0239L22.5621 24.6358L22.9801 24.224L23.3775 23.7965L23.757 23.348L24.1135 22.8811L24.4468 22.3985L24.7596 21.8949L25.0494 21.3809L25.3161 20.8484L25.5571 20.2977L25.7725 19.7364L25.9597 19.1646L26.1212 18.5771L26.2571 17.9817L26.3622 17.3706L26.4392 16.7569L26.4828 16.1274L26.5007 15.4927L26.4828 14.8606L26.4392 14.2364L26.3622 13.62L26.2571 13.0168L26.1212 12.424L25.9597 11.8418L25.7725 11.2674L25.5571 10.7087L25.3161 10.1658L25.0494 9.63336L24.7596 9.12192L24.4468 8.61834L24.1135 8.13574L23.757 7.67413L23.3775 7.22563L22.9801 6.79549L22.5621 6.38896L22.1262 6.00341L21.6698 5.63622L21.198 5.29263L20.7108 4.97003L20.2082 4.67627L19.6903 4.40612L19.1595 4.15696L18.6107 3.93664L18.0518 3.73993L17.4799 3.5747L16.8979 3.43831L16.3055 3.32815L15.703 3.24947L15.0901 3.20488L14.4722 3.18652L13.8491 3.20488L13.2362 3.24947L12.6336 3.32815L12.0362 3.43831L11.4541 3.5747L10.8823 3.73993L10.3208 3.93664L9.77203 4.15696L9.23612 4.40612L8.71559 4.67627L8.21045 4.97003L7.71812 5.29263L7.24632 5.63622L6.79246 6.00341L6.35142 6.38896L5.93346 6.79549L5.53088 7.22563L5.15395 7.67413L4.79496 8.13574L4.45906 8.61834L4.14623 9.12192L3.85135 9.63336L3.58724 10.1658L3.34364 10.7087L3.12825 11.2674L2.9385 11.8418L2.77439 12.424L2.64106 13.0168L2.53593 13.62L2.459 14.2364L2.41285 14.8606L2.39746 15.4927L2.41285 16.1274L2.459 16.7569L2.53593 17.3706L2.64106 17.9817L2.77439 18.5771L2.9385 19.1646L3.12825 19.7364L3.34364 20.2977L3.58724 20.8484L3.85135 21.3809L4.14623 21.8949L4.45906 22.3985L4.79496 22.8811L5.15395 23.348L5.53088 23.7965L5.93346 24.224L6.35142 24.6358L6.79246 25.0239L7.24632 25.3885L7.71812 25.7347L8.21045 26.0547L8.71559 26.3537L9.23612 26.6238L9.77203 26.873L10.3208 27.0933L10.8823 27.29L11.4541 27.4553L12.0362 27.5917L12.6336 27.6992L13.2362 27.7805L13.8491 27.8251L14.4722 27.8408Z" fill="#E40520"/>
<path fill-rule="evenodd" clip-rule="evenodd" d="M21.1211 7.91589H27.5238V7.24707H21.675L21.1211 7.91589Z" fill="#FAB51D"/>
<path fill-rule="evenodd" clip-rule="evenodd" d="M20.1621 9.40581H27.5239V8.73438H20.5493L20.1621 9.40581Z" fill="#FAB51D"/>
<path fill-rule="evenodd" clip-rule="evenodd" d="M19.4468 10.8902H27.5239V10.2188H19.7314L19.4468 10.8902Z" fill="#FAB51D"/>
<path fill-rule="evenodd" clip-rule="evenodd" d="M18.9543 12.3768H27.5238V11.708H19.1595L18.9543 12.3768Z" fill="#FAB51D"/>
<path fill-rule="evenodd" clip-rule="evenodd" d="M19.2389 19.5712H27.5443V18.9023H19.0364L19.2389 19.5712Z" fill="#FAB51D"/>
<path fill-rule="evenodd" clip-rule="evenodd" d="M19.8545 21.0611H27.5444V20.3896H19.5493L19.8545 21.0611Z" fill="#FAB51D"/>
<path fill-rule="evenodd" clip-rule="evenodd" d="M20.7159 22.5428H27.5443V21.874H20.3057L20.7159 22.5428Z" fill="#FAB51D"/>
<path fill-rule="evenodd" clip-rule="evenodd" d="M21.9032 24.0325H27.5444V23.3584H21.3289L21.9032 24.0325Z" fill="#FAB51D"/>
<path fill-rule="evenodd" clip-rule="evenodd" d="M18.6672 13.8612H27.5239V13.1924H18.7929L18.6672 13.8612Z" fill="#FAB51D"/>
<path fill-rule="evenodd" clip-rule="evenodd" d="M24.0647 18.0868H27.4443V17.418H24.1878L24.0647 18.0868Z" fill="#FAB51D"/>
<path fill-rule="evenodd" clip-rule="evenodd" d="M24.334 16.6028H27.4443V15.9287H24.4545L24.334 16.6028Z" fill="#FAB51D"/>
<path fill-rule="evenodd" clip-rule="evenodd" d="M18.4414 15.9287H19.3209V16.6028H18.4824L18.4414 15.9287Z" fill="#FAB51D"/>
<path fill-rule="evenodd" clip-rule="evenodd" d="M16.8056 15.1175L16.7466 15.1122L16.6902 15.1044L16.6389 15.0965L16.5851 15.0886L16.5364 15.0808L16.4825 15.0729L16.4312 15.0624L16.3748 15.0545L16.3159 15.0467L16.2518 15.0414L16.1774 15.0388L16.1005 15.0335H16.0158L15.9235 15.0388L15.8158 15.0467L15.6979 15.0545L15.6184 15.0676L15.5389 15.0808L15.4722 15.1044L15.4107 15.1306L15.3543 15.1594L15.3004 15.1909L15.2594 15.2329L15.2235 15.2722L15.1979 15.3168L15.1774 15.364L15.1697 15.4139V15.4611L15.1825 15.5161L15.1979 15.5712L15.2312 15.6237L15.2722 15.6788L15.3543 15.7574L15.4517 15.8204L15.5646 15.8728L15.6876 15.9201L15.8158 15.962L15.9517 16.0066L16.0851 16.0564L16.2159 16.1115L16.3364 16.1823L16.4518 16.2689L16.5518 16.3738L16.6389 16.5023L16.703 16.6597L16.7441 16.8459L16.7595 17.0715L16.7441 17.3337L16.7159 17.5278L16.6671 17.6983L16.6005 17.8583L16.521 17.9947L16.4261 18.1153L16.321 18.2202L16.2082 18.312L16.08 18.3907L15.9517 18.4511L15.8158 18.5061L15.6774 18.5481L15.5363 18.5822L15.3979 18.6058L15.2645 18.6189L15.1286 18.6268L15.003 18.632H14.8286L14.6671 18.6268H14.5235L14.3902 18.6215L14.2671 18.6189L14.1594 18.611L14.0594 18.6006L13.9671 18.5901L13.8825 18.5822L13.8055 18.5638L13.726 18.5507L13.6594 18.5324L13.5876 18.514L13.5235 18.4904L13.4594 18.4642L13.3901 18.4406L13.5722 17.52L13.6107 17.5278L13.6542 17.5409L13.7107 17.5593L13.7799 17.575L13.8543 17.5908L13.9337 17.6091L14.0235 17.6301L14.1209 17.6459L14.2235 17.6616L14.3286 17.68L14.4389 17.6904L14.5517 17.7036L14.6697 17.7088L14.7876 17.7114H14.9056L15.0235 17.7088L15.1415 17.6826L15.2363 17.6511L15.3081 17.6039L15.3645 17.5462L15.4056 17.4885L15.4389 17.4203L15.4594 17.3547L15.4748 17.2918L15.4825 17.1711L15.4466 17.0688L15.3774 16.9849L15.2774 16.9141L15.1543 16.8511L15.0107 16.7882L14.8543 16.7305L14.6953 16.6649L14.5312 16.5889L14.3773 16.5023L14.2363 16.3948L14.1055 16.2663L14.003 16.1063L13.9312 15.9201L13.8927 15.6945L13.8978 15.4296L13.9184 15.267L13.9466 15.1122L13.9876 14.9732L14.0363 14.8395L14.1004 14.7136L14.1748 14.606L14.2594 14.5011L14.362 14.4093L14.4799 14.3306L14.6107 14.2651L14.7568 14.2021L14.9184 14.1575L15.1004 14.1208L15.3004 14.0893L15.521 14.0736L15.7594 14.0684H15.9107L16.0492 14.0736L16.1748 14.0789L16.2877 14.0815L16.3902 14.0893L16.4825 14.0998L16.5646 14.1077L16.6389 14.1156L16.7082 14.1234L16.7646 14.1366L16.8159 14.1444L16.8646 14.1523L16.9056 14.1602L16.9441 14.1654L16.98 14.1733L17.0107 14.1785L16.8056 15.1175Z" fill="white"/>
<path d="M16.8056 15.1175L16.7466 15.1122L16.6902 15.1044L16.6389 15.0965L16.5851 15.0886L16.5364 15.0808L16.4825 15.0729L16.4312 15.0624L16.3748 15.0545L16.3159 15.0467L16.2518 15.0414L16.1774 15.0388L16.1005 15.0335H16.0158L15.9235 15.0388L15.8158 15.0467L15.6979 15.0545L15.6184 15.0676L15.5389 15.0808L15.4722 15.1044L15.4107 15.1306L15.3543 15.1594L15.3004 15.1909L15.2594 15.2329L15.2235 15.2722L15.1979 15.3168L15.1774 15.364L15.1697 15.4139V15.4611L15.1825 15.5161L15.1979 15.5712L15.2312 15.6237L15.2722 15.6788L15.3543 15.7574L15.4517 15.8204L15.5646 15.8728L15.6876 15.9201L15.8158 15.962L15.9517 16.0066L16.0851 16.0564L16.2159 16.1115L16.3364 16.1823L16.4518 16.2689L16.5518 16.3738L16.6389 16.5023L16.703 16.6597L16.7441 16.8459L16.7595 17.0715L16.7441 17.3337L16.7159 17.5278L16.6671 17.6983L16.6005 17.8583L16.521 17.9947L16.4261 18.1153L16.321 18.2202L16.2082 18.312L16.08 18.3907L15.9517 18.4511L15.8158 18.5061L15.6774 18.5481L15.5363 18.5822L15.3979 18.6058L15.2645 18.6189L15.1286 18.6268L15.003 18.632H14.8286L14.6671 18.6268H14.5235L14.3902 18.6215L14.2671 18.6189L14.1594 18.611L14.0594 18.6006L13.9671 18.5901L13.8825 18.5822L13.8055 18.5638L13.726 18.5507L13.6594 18.5324L13.5876 18.514L13.5235 18.4904L13.4594 18.4642L13.3901 18.4406L13.5722 17.52L13.6107 17.5278L13.6542 17.5409L13.7107 17.5593L13.7799 17.575L13.8543 17.5908L13.9337 17.6091L14.0235 17.6301L14.1209 17.6459L14.2235 17.6616L14.3286 17.68L14.4389 17.6904L14.5517 17.7036L14.6697 17.7088L14.7876 17.7114H14.9056L15.0235 17.7088L15.1415 17.6826L15.2363 17.6511L15.3081 17.6039L15.3645 17.5462L15.4056 17.4885L15.4389 17.4203L15.4594 17.3547L15.4748 17.2918L15.4825 17.1711L15.4466 17.0688L15.3774 16.9849L15.2774 16.9141L15.1543 16.8511L15.0107 16.7882L14.8543 16.7305L14.6953 16.6649L14.5312 16.5889L14.3773 16.5023L14.2363 16.3948L14.1055 16.2663L14.003 16.1063L13.9312 15.9201L13.8927 15.6945L13.8978 15.4296L13.9184 15.267L13.9466 15.1122L13.9876 14.9732L14.0363 14.8395L14.1004 14.7136L14.1748 14.606L14.2594 14.5011L14.362 14.4093L14.4799 14.3306L14.6107 14.2651L14.7568 14.2021L14.9184 14.1575L15.1004 14.1208L15.3004 14.0893L15.521 14.0736L15.7594 14.0684H15.9107L16.0492 14.0736L16.1748 14.0789L16.2877 14.0815L16.3902 14.0893L16.4825 14.0998L16.5646 14.1077L16.6389 14.1156L16.7082 14.1234L16.7646 14.1366L16.8159 14.1444L16.8646 14.1523L16.9056 14.1602L16.9441 14.1654L16.98 14.1733L17.0107 14.1785L16.8056 15.1175Z" stroke="white" stroke-width="0.22" stroke-miterlimit="2.61"/>
<path fill-rule="evenodd" clip-rule="evenodd" d="M17.7671 13.1504H18.8953L18.7261 14.1575H19.4056L19.2594 15.0965L18.544 15.0755L18.1543 17.3967L18.1491 17.478L18.1696 17.5488L18.2107 17.6039L18.2645 17.6511L18.3363 17.68L18.4184 17.7036L18.5081 17.7193L18.6055 17.7298L18.6953 17.7246L18.7773 17.7167L18.8491 17.7036L18.9158 17.6878L18.9671 17.6695L19.003 17.659L19.0286 17.6511L19.0363 17.6459L18.8953 18.4196L18.8645 18.4406L18.8363 18.4563L18.8081 18.472L18.7799 18.4904L18.7517 18.5035L18.7184 18.514L18.6825 18.5271L18.6466 18.5402L18.6055 18.5507L18.5645 18.5612L18.5158 18.5691L18.4671 18.577L18.4132 18.5848L18.3543 18.5927L18.2876 18.6006L18.2184 18.6111H17.9107L17.7465 18.5979L17.6055 18.5822L17.4747 18.556L17.3645 18.5271L17.2722 18.4904L17.1953 18.4484L17.126 18.3986L17.0722 18.3435L17.0311 18.2858L17.0029 18.215L16.9824 18.1442L16.9722 18.0655L16.967 17.979V17.8872L16.9799 17.7901L16.9927 17.6878L17.7671 13.1504Z" fill="white"/>
<path d="M17.7671 13.1504H18.8953L18.7261 14.1575H19.4056L19.2594 15.0965L18.544 15.0755L18.1543 17.3967L18.1491 17.478L18.1696 17.5488L18.2107 17.6039L18.2645 17.6511L18.3363 17.68L18.4184 17.7036L18.5081 17.7193L18.6055 17.7298L18.6953 17.7246L18.7773 17.7167L18.8491 17.7036L18.9158 17.6878L18.9671 17.6695L19.003 17.659L19.0286 17.6511L19.0363 17.6459L18.8953 18.4196L18.8645 18.4406L18.8363 18.4563L18.8081 18.472L18.7799 18.4904L18.7517 18.5035L18.7184 18.514L18.6825 18.5271L18.6466 18.5402L18.6055 18.5507L18.5645 18.5612L18.5158 18.5691L18.4671 18.577L18.4132 18.5848L18.3543 18.5927L18.2876 18.6006L18.2184 18.6111H17.9107L17.7465 18.5979L17.6055 18.5822L17.4747 18.556L17.3645 18.5271L17.2722 18.4904L17.1953 18.4484L17.126 18.3986L17.0722 18.3435L17.0311 18.2858L17.0029 18.215L16.9824 18.1442L16.9722 18.0655L16.967 17.979V17.8872L16.9799 17.7901L16.9927 17.6878L17.7671 13.1504Z" stroke="white" stroke-width="0.22" stroke-miterlimit="2.61"/>
<path fill-rule="evenodd" clip-rule="evenodd" d="M20.3056 16.6649L20.2928 16.7357L20.2877 16.8092L20.2979 16.8879L20.3133 16.9665L20.3415 17.0479L20.3749 17.1213L20.4184 17.2L20.4672 17.2708L20.5236 17.3416L20.5851 17.4046L20.6492 17.4675L20.7236 17.5173L20.7979 17.5619L20.8774 17.6013L20.9595 17.6301L21.0415 17.6459L21.1467 17.6616L21.2467 17.6747L21.3544 17.6878L21.4595 17.6957L21.5646 17.6983H21.6749L21.78 17.6957L21.8903 17.6878L22.0005 17.6695L22.1108 17.6511L22.2236 17.6249L22.3339 17.5881L22.4467 17.5409L22.5647 17.4911L22.68 17.4255L22.798 17.3547L22.6339 18.3776L22.5698 18.4117L22.5031 18.4432L22.439 18.4694L22.3775 18.493L22.3159 18.514L22.2518 18.535L22.1877 18.5507L22.1185 18.5638L22.0441 18.5769L21.9646 18.5848L21.8775 18.5927L21.7851 18.6005L21.68 18.6058H21.5698L21.4441 18.611H21.3082L21.1108 18.6058L20.9056 18.5848L20.7031 18.556L20.5005 18.5061L20.3005 18.4432L20.1107 18.3645L19.9261 18.2622L19.7569 18.1416L19.5979 17.9999L19.4594 17.8294L19.3415 17.638L19.2441 17.4177L19.1748 17.1711L19.1312 16.8931L19.1184 16.5862L19.1389 16.2453L19.1543 16.1115L19.1799 15.9568L19.2107 15.7942L19.2569 15.6211L19.3159 15.4427L19.3902 15.2617L19.4825 15.0808L19.5979 14.905L19.7287 14.7398L19.8851 14.5798L20.0646 14.4382L20.2672 14.3149L20.5031 14.21L20.7672 14.1366L21.0621 14.0867L21.3903 14.0684L21.5492 14.0736L21.7159 14.0893L21.8826 14.1208L22.0493 14.1602L22.2108 14.2231L22.3698 14.2992L22.5159 14.3988L22.6493 14.5142L22.7724 14.6559L22.8749 14.8211L22.9544 15.0126L23.0134 15.2329L23.0442 15.482L23.0493 15.7653L23.0211 16.0827L22.9595 16.4315L22.939 16.6859H19.9748L20.162 15.865H21.9441L21.9518 15.7627L21.9467 15.663L21.939 15.5712L21.9236 15.4873L21.8954 15.4086L21.8672 15.3378L21.8262 15.2748L21.7851 15.2171L21.7364 15.1673L21.6826 15.1253L21.621 15.0886L21.5621 15.0545L21.4954 15.0309L21.4313 15.0126L21.3621 15.0021L21.2877 14.9916L21.2108 14.9968L21.139 15.0099L21.0697 15.0257L21.0005 15.0519L20.9313 15.0834L20.8697 15.1227L20.8082 15.1673L20.7569 15.2171L20.7031 15.2748L20.6543 15.3378L20.6108 15.4034L20.5723 15.4742L20.5364 15.5502L20.5082 15.6342L20.4825 15.7155L20.4672 15.8046L20.3056 16.6649Z" fill="white"/>
<path d="M20.3056 16.6649L20.2928 16.7357L20.2877 16.8092L20.2979 16.8879L20.3133 16.9665L20.3415 17.0479L20.3749 17.1213L20.4184 17.2L20.4672 17.2708L20.5236 17.3416L20.5851 17.4046L20.6492 17.4675L20.7236 17.5173L20.7979 17.5619L20.8774 17.6013L20.9595 17.6301L21.0415 17.6459L21.1467 17.6616L21.2467 17.6747L21.3544 17.6878L21.4595 17.6957L21.5646 17.6983H21.6749L21.78 17.6957L21.8903 17.6878L22.0005 17.6695L22.1108 17.6511L22.2236 17.6249L22.3339 17.5881L22.4467 17.5409L22.5647 17.4911L22.68 17.4255L22.798 17.3547L22.6339 18.3776L22.5698 18.4117L22.5031 18.4432L22.439 18.4694L22.3775 18.493L22.3159 18.514L22.2518 18.535L22.1877 18.5507L22.1185 18.5638L22.0441 18.5769L21.9646 18.5848L21.8775 18.5927L21.7851 18.6005L21.68 18.6058H21.5698L21.4441 18.611H21.3082L21.1108 18.6058L20.9056 18.5848L20.7031 18.556L20.5005 18.5061L20.3005 18.4432L20.1107 18.3645L19.9261 18.2622L19.7569 18.1416L19.5979 17.9999L19.4594 17.8294L19.3415 17.638L19.2441 17.4177L19.1748 17.1711L19.1312 16.8931L19.1184 16.5862L19.1389 16.2453L19.1543 16.1115L19.1799 15.9568L19.2107 15.7942L19.2569 15.6211L19.3159 15.4427L19.3902 15.2617L19.4825 15.0808L19.5979 14.905L19.7287 14.7398L19.8851 14.5798L20.0646 14.4382L20.2672 14.3149L20.5031 14.21L20.7672 14.1366L21.0621 14.0867L21.3903 14.0684L21.5492 14.0736L21.7159 14.0893L21.8826 14.1208L22.0493 14.1602L22.2108 14.2231L22.3698 14.2992L22.5159 14.3988L22.6493 14.5142L22.7724 14.6559L22.8749 14.8211L22.9544 15.0126L23.0134 15.2329L23.0442 15.482L23.0493 15.7653L23.0211 16.0827L22.9595 16.4315L22.939 16.6859H19.9748L20.162 15.865H21.9441L21.9518 15.7627L21.9467 15.663L21.939 15.5712L21.9236 15.4873L21.8954 15.4086L21.8672 15.3378L21.8262 15.2748L21.7851 15.2171L21.7364 15.1673L21.6826 15.1253L21.621 15.0886L21.5621 15.0545L21.4954 15.0309L21.4313 15.0126L21.3621 15.0021L21.2877 14.9916L21.2108 14.9968L21.139 15.0099L21.0697 15.0257L21.0005 15.0519L20.9313 15.0834L20.8697 15.1227L20.8082 15.1673L20.7569 15.2171L20.7031 15.2748L20.6543 15.3378L20.6108 15.4034L20.5723 15.4742L20.5364 15.5502L20.5082 15.6342L20.4825 15.7155L20.4672 15.8046L20.3056 16.6649Z" stroke="white" stroke-width="0.22" stroke-miterlimit="2.61"/>
<path fill-rule="evenodd" clip-rule="evenodd" d="M30.0008 14.4074L29.9469 14.3785L29.8956 14.3523L29.8367 14.3235L29.7777 14.2946L29.7161 14.271L29.6469 14.2448L29.5777 14.2212L29.5033 14.1949L29.4264 14.174L29.3495 14.1582L29.2648 14.1399L29.1802 14.1294L29.0853 14.1215L28.993 14.111H28.8956H28.793H28.6905L28.5853 14.1215L28.4751 14.132L28.3623 14.153L28.2494 14.1871L28.134 14.2317L28.0212 14.2894L27.9058 14.3654L27.7981 14.4572L27.6904 14.5647L27.5904 14.6985L27.493 14.8533L27.4033 15.0342L27.3161 15.2441L27.2391 15.4749L27.175 15.7424L27.152 15.8919L27.134 16.0361L27.1263 16.183L27.1314 16.3246L27.1417 16.4663L27.1725 16.5974L27.2084 16.7233L27.252 16.8466L27.3135 16.9594L27.3879 17.0695L27.4725 17.1639L27.5699 17.2505L27.6802 17.3266L27.8058 17.3895L27.9443 17.442L28.0981 17.4787L28.152 17.4918L28.211 17.5049L28.2853 17.5128L28.3674 17.5206L28.4546 17.5285H28.5494H28.652L28.752 17.5206L28.8571 17.5102L28.9648 17.4892L29.0648 17.4603L29.1674 17.4262L29.2674 17.379L29.3623 17.3266L29.4469 17.261L29.529 17.1849L29.3469 18.2944L29.3213 18.3154L29.2982 18.3416L29.2648 18.3704L29.2289 18.394L29.1828 18.4281L29.1264 18.457L29.0623 18.4858L28.9879 18.5121L28.8956 18.5409L28.7905 18.5619L28.6674 18.5776L28.5238 18.5934L28.3674 18.6012L28.1828 18.6065L27.9751 18.6012L27.7494 18.5907L27.5622 18.5698L27.375 18.5278L27.1879 18.4649L27.0007 18.3809L26.8212 18.2813L26.652 18.158L26.4878 18.0111L26.3391 17.8459L26.2032 17.6597L26.0904 17.4498L25.993 17.219L25.9186 16.9646L25.8699 16.6866L25.8545 16.3902L25.8622 16.065L25.9058 15.7214L25.9391 15.5509L25.975 15.3831L26.016 15.2231L26.0571 15.0683L26.1032 14.9215L26.1545 14.7772L26.2083 14.6408L26.2648 14.5123L26.3263 14.3812L26.3878 14.2605L26.4545 14.1451L26.5289 14.0376L26.6032 13.9327L26.6827 13.833L26.7648 13.7412L26.8494 13.6546L26.9443 13.5707L27.0366 13.492L27.134 13.4212L27.2366 13.3556L27.3468 13.2927L27.4545 13.2376L27.5699 13.1878L27.6879 13.1432L27.8135 13.1012L27.9392 13.0671L28.0699 13.0383L28.2084 13.0147L28.3469 12.9937L28.493 12.978L28.6392 12.9675L28.793 12.9648L28.9238 12.9675L29.0495 12.978L29.1725 12.9884L29.293 13.0068L29.4084 13.0225L29.5161 13.0462L29.6238 13.0671L29.7213 13.0934L29.8136 13.117L29.8956 13.1432L29.9726 13.1668L30.0367 13.193L30.0931 13.214L30.1418 13.2297L30.1803 13.2481L30.2033 13.256L30.0008 14.4074Z" fill="white"/>
<path d="M30.0008 14.4074L29.9469 14.3785L29.8956 14.3523L29.8367 14.3235L29.7777 14.2946L29.7161 14.271L29.6469 14.2448L29.5777 14.2212L29.5033 14.1949L29.4264 14.174L29.3495 14.1582L29.2648 14.1399L29.1802 14.1294L29.0853 14.1215L28.993 14.111H28.8956H28.793H28.6905L28.5853 14.1215L28.4751 14.132L28.3623 14.153L28.2494 14.1871L28.134 14.2317L28.0212 14.2894L27.9058 14.3654L27.7981 14.4572L27.6904 14.5647L27.5904 14.6985L27.493 14.8533L27.4033 15.0342L27.3161 15.2441L27.2391 15.4749L27.175 15.7424L27.152 15.8919L27.134 16.0361L27.1263 16.183L27.1314 16.3246L27.1417 16.4663L27.1725 16.5974L27.2084 16.7233L27.252 16.8466L27.3135 16.9594L27.3879 17.0695L27.4725 17.1639L27.5699 17.2505L27.6802 17.3266L27.8058 17.3895L27.9443 17.442L28.0981 17.4787L28.152 17.4918L28.211 17.5049L28.2853 17.5128L28.3674 17.5206L28.4546 17.5285H28.5494H28.652L28.752 17.5206L28.8571 17.5102L28.9648 17.4892L29.0648 17.4603L29.1674 17.4262L29.2674 17.379L29.3623 17.3266L29.4469 17.261L29.529 17.1849L29.3469 18.2944L29.3213 18.3154L29.2982 18.3416L29.2648 18.3704L29.2289 18.394L29.1828 18.4281L29.1264 18.457L29.0623 18.4858L28.9879 18.5121L28.8956 18.5409L28.7905 18.5619L28.6674 18.5776L28.5238 18.5934L28.3674 18.6012L28.1828 18.6065L27.9751 18.6012L27.7494 18.5907L27.5622 18.5698L27.375 18.5278L27.1879 18.4649L27.0007 18.3809L26.8212 18.2813L26.652 18.158L26.4878 18.0111L26.3391 17.8459L26.2032 17.6597L26.0904 17.4498L25.993 17.219L25.9186 16.9646L25.8699 16.6866L25.8545 16.3902L25.8622 16.065L25.9058 15.7214L25.9391 15.5509L25.975 15.3831L26.016 15.2231L26.0571 15.0683L26.1032 14.9215L26.1545 14.7772L26.2083 14.6408L26.2648 14.5123L26.3263 14.3812L26.3878 14.2605L26.4545 14.1451L26.5289 14.0376L26.6032 13.9327L26.6827 13.833L26.7648 13.7412L26.8494 13.6546L26.9443 13.5707L27.0366 13.492L27.134 13.4212L27.2366 13.3556L27.3468 13.2927L27.4545 13.2376L27.5699 13.1878L27.6879 13.1432L27.8135 13.1012L27.9392 13.0671L28.0699 13.0383L28.2084 13.0147L28.3469 12.9937L28.493 12.978L28.6392 12.9675L28.793 12.9648L28.9238 12.9675L29.0495 12.978L29.1725 12.9884L29.293 13.0068L29.4084 13.0225L29.5161 13.0462L29.6238 13.0671L29.7213 13.0934L29.8136 13.117L29.8956 13.1432L29.9726 13.1668L30.0367 13.193L30.0931 13.214L30.1418 13.2297L30.1803 13.2481L30.2033 13.256L30.0008 14.4074Z" stroke="white" stroke-width="0.22" stroke-miterlimit="2.61"/>
<path fill-rule="evenodd" clip-rule="evenodd" d="M40.0088 18.6116H38.8832L38.9652 18.1499V18.108L38.8985 18.1919L38.8319 18.2653L38.7601 18.3309L38.6883 18.3912L38.6139 18.4437L38.5421 18.4909L38.4678 18.5276L38.3908 18.5643L38.3139 18.5932L38.237 18.6142L38.1601 18.6352L38.078 18.6483L37.9985 18.6614L37.919 18.6693L37.8395 18.6719H37.7575L37.5472 18.6561L37.3498 18.6116L37.1729 18.5407L37.0087 18.4437L36.8626 18.323L36.7318 18.1814L36.619 18.0293L36.5215 17.8536L36.4395 17.6673L36.3754 17.4706L36.3292 17.2687L36.2985 17.0562L36.2856 16.8438L36.2908 16.6287L36.3087 16.4163L36.3472 16.2038L36.4087 15.9573L36.4805 15.7239L36.5651 15.514L36.6677 15.3121L36.7728 15.1259L36.8959 14.9606L37.0216 14.8111L37.1549 14.6721L37.2985 14.5515L37.4472 14.4492L37.6036 14.3574L37.7575 14.2866L37.919 14.2289L38.0831 14.1895L38.2447 14.1659L38.4114 14.158L38.5293 14.1607L38.6447 14.1738L38.7498 14.1948L38.8473 14.2236L38.9396 14.2577L39.0216 14.2944L39.1037 14.339L39.1755 14.3862L39.2421 14.4361L39.3011 14.4911L39.355 14.5436L39.4037 14.5987L39.4447 14.6511L39.4806 14.7062L39.5139 14.756L39.537 14.8059L39.8216 13.1719H40.9294L40.0088 18.6116Z" fill="white"/>
<path d="M40.0088 18.6116H38.8832L38.9652 18.1499V18.108L38.8985 18.1919L38.8319 18.2653L38.7601 18.3309L38.6883 18.3912L38.6139 18.4437L38.5421 18.4909L38.4678 18.5276L38.3908 18.5643L38.3139 18.5932L38.237 18.6142L38.1601 18.6352L38.078 18.6483L37.9985 18.6614L37.919 18.6693L37.8395 18.6719H37.7575L37.5472 18.6561L37.3498 18.6116L37.1729 18.5407L37.0087 18.4437L36.8626 18.323L36.7318 18.1814L36.619 18.0293L36.5215 17.8536L36.4395 17.6673L36.3754 17.4706L36.3292 17.2687L36.2985 17.0562L36.2856 16.8438L36.2908 16.6287L36.3087 16.4163L36.3472 16.2038L36.4087 15.9573L36.4805 15.7239L36.5651 15.514L36.6677 15.3121L36.7728 15.1259L36.8959 14.9606L37.0216 14.8111L37.1549 14.6721L37.2985 14.5515L37.4472 14.4492L37.6036 14.3574L37.7575 14.2866L37.919 14.2289L38.0831 14.1895L38.2447 14.1659L38.4114 14.158L38.5293 14.1607L38.6447 14.1738L38.7498 14.1948L38.8473 14.2236L38.9396 14.2577L39.0216 14.2944L39.1037 14.339L39.1755 14.3862L39.2421 14.4361L39.3011 14.4911L39.355 14.5436L39.4037 14.5987L39.4447 14.6511L39.4806 14.7062L39.5139 14.756L39.537 14.8059L39.8216 13.1719H40.9294L40.0088 18.6116Z" stroke="white" stroke-width="0.22" stroke-miterlimit="2.61"/>
<path fill-rule="evenodd" clip-rule="evenodd" d="M38.1678 17.6046L38.2806 17.5967L38.3883 17.5705L38.4857 17.5417L38.578 17.4971L38.6626 17.4472L38.7447 17.3843L38.8216 17.3135L38.8909 17.2374L38.9524 17.1561L39.0088 17.0643L39.0627 16.9673L39.1062 16.8676L39.1473 16.7653L39.1806 16.6578L39.2088 16.545L39.2293 16.4322L39.2498 16.3142L39.2627 16.1962V16.0834L39.2575 15.9654L39.2447 15.8578L39.2293 15.7529L39.2011 15.6559L39.1678 15.5588L39.1268 15.4749L39.078 15.3962L39.0268 15.3306L38.9652 15.2729L38.896 15.2231L38.8216 15.189L38.7447 15.168L38.6601 15.1602L38.5498 15.168L38.4473 15.1838L38.3549 15.2179L38.2626 15.2598L38.1806 15.3123L38.0985 15.3805L38.0293 15.4513L37.9601 15.53L37.8985 15.6218L37.8421 15.7162L37.7908 15.8159L37.7447 15.926L37.7036 16.0362L37.6729 16.149L37.6395 16.2696L37.6139 16.3903L37.5959 16.5738L37.6036 16.7732L37.6318 16.9778L37.6831 17.1718L37.7652 17.3423L37.8703 17.4787L38.0062 17.5705L38.1678 17.6046Z" fill="#FAB51D"/>
<path fill-rule="evenodd" clip-rule="evenodd" d="M13.2029 17.6879L13.0388 18.6111H12.0157L12.0439 18.4406L12.0644 18.2859L12.0798 18.1705L12.0978 18.1076L12.0388 18.1731L11.9747 18.2413L11.8977 18.3016L11.8131 18.362L11.7157 18.4197L11.6131 18.4695L11.508 18.5193L11.3977 18.5613L11.2798 18.598L11.1618 18.6269L11.0439 18.6531L10.9208 18.6688L10.8028 18.6767L10.6849 18.6819L10.5721 18.6688L10.4618 18.6531L10.3208 18.6138L10.19 18.5718L10.0772 18.5193L9.97462 18.4564L9.88487 18.3908L9.80282 18.3148L9.73871 18.2361L9.6823 18.1521L9.63358 18.0656L9.59255 17.9738L9.55922 17.882L9.53614 17.7902L9.52076 17.6958L9.50794 17.6014L9.50024 17.5096V17.4178L9.5105 17.2551L9.53614 17.1004L9.57717 16.9561L9.62845 16.8145L9.69512 16.6807L9.76692 16.5601L9.85154 16.4447L9.95154 16.3398L10.0515 16.2454L10.1669 16.1562L10.2849 16.0775L10.4054 16.0119L10.5362 15.9542L10.6695 15.907L10.808 15.8703L10.9516 15.8441H10.9593L10.9798 15.8415L11.008 15.8362L11.0516 15.8336L11.1003 15.8257L11.1567 15.8205L11.2182 15.8126L11.2875 15.8047L11.3567 15.7942L11.4259 15.7864L11.5003 15.7838L11.5644 15.7733L11.6285 15.7706L11.69 15.7654L11.7465 15.7628H11.7926H11.8849L11.9824 15.7654L12.0721 15.7706H12.1619L12.2362 15.7733L12.2926 15.7785L12.3337 15.7838H12.3439L12.3542 15.7523L12.3772 15.6788L12.3978 15.5923L12.4055 15.5136L12.3901 15.4218L12.3542 15.3379L12.3029 15.2618L12.2388 15.2015L12.1619 15.1464L12.0772 15.1097L11.9798 15.0835L11.8721 15.0756L11.7593 15.073L11.6362 15.0677H11.5106L11.3823 15.073L11.2464 15.0808L11.1182 15.0913L10.9875 15.1044L10.8618 15.1228L10.7387 15.1385L10.6208 15.1595L10.5157 15.1805L10.4182 15.2015L10.3285 15.2251L10.2541 15.2513L10.1977 15.2802L10.1541 15.3038L10.4413 14.3019L10.531 14.2652L10.6208 14.2311L10.7182 14.2022L10.8157 14.1812L10.9131 14.1602L11.0208 14.1445L11.1259 14.1288L11.2362 14.1209L11.349 14.1104L11.467 14.1078L11.59 14.1025H11.7157H11.8439H11.9798L12.1208 14.1078L12.2644 14.1104L12.3772 14.1209L12.5003 14.1393L12.626 14.1681L12.7542 14.2075L12.8824 14.2573L13.0029 14.315L13.126 14.3858L13.2388 14.4645L13.3414 14.5563L13.4311 14.6559L13.5106 14.7687L13.5722 14.892L13.6132 15.0258L13.6388 15.1674V15.3248L13.6132 15.4926L13.2029 17.6879Z" fill="white"/>
<path d="M13.2029 17.6879L13.0388 18.6111H12.0157L12.0439 18.4406L12.0644 18.2859L12.0798 18.1705L12.0978 18.1076L12.0388 18.1731L11.9747 18.2413L11.8977 18.3016L11.8131 18.362L11.7157 18.4197L11.6131 18.4695L11.508 18.5193L11.3977 18.5613L11.2798 18.598L11.1618 18.6269L11.0439 18.6531L10.9208 18.6688L10.8028 18.6767L10.6849 18.6819L10.5721 18.6688L10.4618 18.6531L10.3208 18.6138L10.19 18.5718L10.0772 18.5193L9.97462 18.4564L9.88487 18.3908L9.80282 18.3148L9.73871 18.2361L9.6823 18.1521L9.63358 18.0656L9.59255 17.9738L9.55922 17.882L9.53614 17.7902L9.52076 17.6958L9.50794 17.6014L9.50024 17.5096V17.4178L9.5105 17.2551L9.53614 17.1004L9.57717 16.9561L9.62845 16.8145L9.69512 16.6807L9.76692 16.5601L9.85154 16.4447L9.95154 16.3398L10.0515 16.2454L10.1669 16.1562L10.2849 16.0775L10.4054 16.0119L10.5362 15.9542L10.6695 15.907L10.808 15.8703L10.9516 15.8441H10.9593L10.9798 15.8415L11.008 15.8362L11.0516 15.8336L11.1003 15.8257L11.1567 15.8205L11.2182 15.8126L11.2875 15.8047L11.3567 15.7942L11.4259 15.7864L11.5003 15.7838L11.5644 15.7733L11.6285 15.7706L11.69 15.7654L11.7465 15.7628H11.7926H11.8849L11.9824 15.7654L12.0721 15.7706H12.1619L12.2362 15.7733L12.2926 15.7785L12.3337 15.7838H12.3439L12.3542 15.7523L12.3772 15.6788L12.3978 15.5923L12.4055 15.5136L12.3901 15.4218L12.3542 15.3379L12.3029 15.2618L12.2388 15.2015L12.1619 15.1464L12.0772 15.1097L11.9798 15.0835L11.8721 15.0756L11.7593 15.073L11.6362 15.0677H11.5106L11.3823 15.073L11.2464 15.0808L11.1182 15.0913L10.9875 15.1044L10.8618 15.1228L10.7387 15.1385L10.6208 15.1595L10.5157 15.1805L10.4182 15.2015L10.3285 15.2251L10.2541 15.2513L10.1977 15.2802L10.1541 15.3038L10.4413 14.3019L10.531 14.2652L10.6208 14.2311L10.7182 14.2022L10.8157 14.1812L10.9131 14.1602L11.0208 14.1445L11.1259 14.1288L11.2362 14.1209L11.349 14.1104L11.467 14.1078L11.59 14.1025H11.7157H11.8439H11.9798L12.1208 14.1078L12.2644 14.1104L12.3772 14.1209L12.5003 14.1393L12.626 14.1681L12.7542 14.2075L12.8824 14.2573L13.0029 14.315L13.126 14.3858L13.2388 14.4645L13.3414 14.5563L13.4311 14.6559L13.5106 14.7687L13.5722 14.892L13.6132 15.0258L13.6388 15.1674V15.3248L13.6132 15.4926L13.2029 17.6879Z" stroke="white" stroke-width="0.22" stroke-miterlimit="2.61"/>
<path fill-rule="evenodd" clip-rule="evenodd" d="M12.2234 16.6024L12.2183 16.5814L12.2029 16.5605L12.1773 16.5473L12.1388 16.5395L12.0926 16.5316L12.0388 16.5264H11.9798H11.9183L11.8542 16.5316L11.7849 16.5395L11.7183 16.5473L11.6542 16.5578L11.5926 16.5657L11.5362 16.5762L11.4875 16.5893L11.4413 16.6024L11.4131 16.6103L11.3824 16.6234L11.3362 16.6391L11.2926 16.6601L11.2388 16.6864L11.1875 16.7152L11.1285 16.7441L11.0772 16.7782L11.0208 16.8175L10.967 16.8595L10.9183 16.9093L10.8747 16.9591L10.8336 17.0142L10.8029 17.0719L10.7798 17.1375L10.767 17.2057L10.7644 17.3473L10.7849 17.4601L10.8259 17.5414L10.8772 17.6043L10.9388 17.6463L11.008 17.6699L11.0721 17.683L11.1388 17.6883L11.2593 17.683L11.3695 17.6699L11.4747 17.6542L11.5696 17.6306L11.649 17.6017L11.726 17.5624L11.7952 17.5257L11.8567 17.4784L11.9106 17.4391L11.9593 17.3893L12.0003 17.3421L12.0311 17.2922L12.0593 17.2424L12.085 17.1926L12.1055 17.148L12.1183 17.1008L12.1491 16.9801L12.1773 16.8437L12.2029 16.71L12.2234 16.6024Z" fill="#E40520"/>
<path fill-rule="evenodd" clip-rule="evenodd" d="M4.64886 18.6111H3.5437L4.4668 13.1504H6.38994L6.57199 16.3895L7.9028 13.1504H9.91055L8.96693 18.6111H7.86177L8.55923 14.53H8.51564L6.86174 18.6111H5.61299L5.6053 18.4406L5.57709 17.9868L5.53863 17.3416L5.50017 16.602L5.45914 15.8571L5.42068 15.204L5.39247 14.7293L5.38478 14.53H5.37196H5.34888H5.32324L4.64886 18.6111Z" fill="white"/>
<path d="M4.64886 18.6111H3.5437L4.4668 13.1504H6.38994L6.57199 16.3895L7.9028 13.1504H9.91055L8.96693 18.6111H7.86177L8.55923 14.53H8.51564L6.86174 18.6111H5.61299L5.6053 18.4406L5.57709 17.9868L5.53863 17.3416L5.50017 16.602L5.45914 15.8571L5.42068 15.204L5.39247 14.7293L5.38478 14.53H5.37196H5.34888H5.32324L4.64886 18.6111Z" stroke="white" stroke-width="0.22" stroke-miterlimit="2.61"/>
<path fill-rule="evenodd" clip-rule="evenodd" d="M33.3803 17.6879L33.211 18.6111H32.1931L32.2008 18.4406L32.2033 18.2911V18.1784L32.211 18.1285L32.1597 18.1915L32.0982 18.2518L32.0238 18.3121L31.9443 18.3698L31.8597 18.4223L31.7597 18.4721L31.6597 18.522L31.5571 18.5639L31.4469 18.598L31.3341 18.6321L31.2212 18.6531L31.1059 18.6688L30.9879 18.6767L30.8751 18.6819L30.7648 18.6688L30.6546 18.6531L30.5084 18.6138L30.3776 18.5718L30.2648 18.5193L30.1597 18.4564L30.0699 18.3908L29.993 18.3148L29.9263 18.2361L29.8699 18.1521L29.8212 18.0656L29.7853 17.9738L29.752 17.882L29.7315 17.7902L29.7161 17.6958L29.7032 17.6014L29.6956 17.5096V17.4178L29.7032 17.2551L29.7289 17.1004L29.7648 16.9561L29.8186 16.8145L29.8776 16.6807L29.9571 16.5601L30.0417 16.4447L30.134 16.3398L30.2417 16.2454L30.3494 16.1562L30.4674 16.0775L30.593 16.0119L30.7212 15.9542L30.8546 15.907L30.9879 15.8703L31.1264 15.8441H31.1341L31.1546 15.8415L31.1828 15.8362L31.2238 15.8336L31.2777 15.8257L31.3341 15.8205L31.3956 15.8126L31.4597 15.8047L31.5289 15.7942L31.6033 15.7864L31.6725 15.7838L31.7392 15.7733L31.8059 15.7706L31.8623 15.7654L31.9187 15.7628H31.9649H32.0623L32.1597 15.7654L32.252 15.7706H32.3418L32.4187 15.7733L32.4854 15.7785L32.5213 15.7838H32.5367L32.5444 15.7523L32.5572 15.6788L32.57 15.5923L32.5777 15.5136L32.5623 15.4218L32.529 15.3379L32.4777 15.2618L32.4161 15.2015L32.3418 15.1464L32.2572 15.1097L32.1674 15.0835L32.07 15.0756L31.9572 15.073L31.8341 15.0677H31.7084L31.5777 15.073L31.4443 15.0808L31.3136 15.0913L31.1828 15.1044L31.0571 15.1228L30.9366 15.1385L30.8187 15.1595L30.711 15.1805L30.6135 15.2015L30.5264 15.2251L30.452 15.2513L30.3956 15.2802L30.3494 15.3038L30.634 14.3019L30.7238 14.2652L30.8187 14.2311L30.911 14.2022L31.0084 14.1812L31.111 14.1602L31.211 14.1445L31.3187 14.1288L31.4264 14.1209L31.5418 14.1104L31.6597 14.1078L31.7777 14.1025H31.9033H32.029H32.1597L32.2982 14.1078L32.4367 14.1104L32.5495 14.1209L32.6726 14.1393L32.7982 14.1681L32.9264 14.2075L33.0546 14.2573L33.1803 14.315L33.3008 14.3858L33.4162 14.4645L33.5162 14.5563L33.6111 14.6559L33.6931 14.7687L33.7521 14.892L33.7982 15.0258L33.8264 15.1674V15.3248L33.8059 15.4926L33.3803 17.6879Z" fill="white"/>
<path fill-rule="evenodd" clip-rule="evenodd" d="M33.2111 18.6399L33.2367 18.6137L33.4034 17.6905L33.3547 17.6826L33.188 18.6058L33.2111 18.5822V18.6399L33.2316 18.6347L33.2367 18.6137L33.2111 18.6399Z" fill="white"/>
<path fill-rule="evenodd" clip-rule="evenodd" d="M32.1675 18.6119L32.1931 18.6407H33.2111V18.583H32.1931L32.2162 18.6119H32.1675L32.1624 18.6407H32.1931L32.1675 18.6119Z" fill="white"/>
<path fill-rule="evenodd" clip-rule="evenodd" d="M32.2309 18.1448L32.1954 18.1133L32.1802 18.1789L32.1751 18.2916V18.4411L32.1675 18.6116H32.2157L32.2233 18.4411L32.2309 18.2916L32.2284 18.1789V18.1448L32.1929 18.1133L32.2309 18.1448Z" fill="white"/>
<path fill-rule="evenodd" clip-rule="evenodd" d="M30.6521 18.6772L30.7649 18.6929L30.8752 18.706L30.988 18.7034L31.106 18.6929L31.2239 18.6772L31.3393 18.6562L31.4521 18.6221L31.5649 18.5906L31.6675 18.5487L31.7726 18.4988L31.8701 18.449L31.9573 18.3913L32.0419 18.331L32.1137 18.2733L32.1803 18.2077L32.2316 18.1448L32.1932 18.1133L32.1393 18.1736L32.0829 18.2313L32.0085 18.2916L31.9316 18.3493L31.847 18.3992L31.7496 18.449L31.6521 18.4988L31.5496 18.5408L31.4444 18.5723L31.329 18.6064L31.2162 18.6274L31.106 18.6431L30.988 18.6536L30.8752 18.6562L30.7649 18.6431L30.6598 18.6274L30.6521 18.6772Z" fill="white"/>
<path fill-rule="evenodd" clip-rule="evenodd" d="M29.6675 17.418L29.6726 17.5098L29.6803 17.6016L29.6906 17.6986L29.7085 17.7957L29.729 17.8874L29.7598 17.9819L29.7983 18.0789L29.8495 18.1655L29.9085 18.252L29.9726 18.3307L30.0521 18.412L30.147 18.4776L30.2521 18.5431L30.3701 18.5982L30.506 18.6402L30.6521 18.6769L30.6598 18.6271L30.5137 18.5904L30.388 18.5484L30.2778 18.4933L30.1726 18.4356L30.0854 18.37L30.0136 18.2992L29.947 18.2205L29.8906 18.1419L29.847 18.0527L29.8085 17.9661L29.7777 17.8796L29.7572 17.7878L29.7393 17.6907L29.729 17.6016L29.7213 17.5098L29.7239 17.418H29.6675Z" fill="white"/>
<path fill-rule="evenodd" clip-rule="evenodd" d="M31.1265 15.8203L30.9855 15.8439L30.847 15.8833L30.7111 15.9278L30.5829 15.9855L30.4572 16.0537L30.3342 16.135L30.2239 16.2242L30.1188 16.3239L30.0213 16.4262L29.9367 16.5442L29.8547 16.6675L29.7931 16.8065L29.7393 16.9455L29.7034 17.0976L29.6803 17.255L29.6675 17.4176H29.7239L29.729 17.255L29.7521 17.1055L29.788 16.9639L29.8418 16.8222L29.9034 16.6937L29.9752 16.5757L30.0624 16.4603L30.1521 16.3554L30.2572 16.2662L30.3675 16.177L30.4803 16.1036L30.606 16.0354L30.729 15.9777L30.8624 15.9331L30.9932 15.8938L31.1265 15.8701V15.8203Z" fill="white"/>
<path fill-rule="evenodd" clip-rule="evenodd" d="M31.9649 15.7344H31.9188L31.8624 15.7422L31.806 15.7449L31.7393 15.7501L31.6726 15.758L31.6034 15.7632L31.529 15.7711L31.4598 15.779L31.3957 15.7868L31.3342 15.7947L31.2778 15.7999L31.2239 15.8078L31.1829 15.8131L31.1521 15.8157L31.1342 15.8209H31.1265V15.8708H31.1342L31.1598 15.8655L31.1829 15.8629L31.2239 15.8576L31.2778 15.8498L31.3342 15.8445L31.3957 15.8367L31.4598 15.8288L31.529 15.8209L31.6034 15.8131L31.6726 15.8078L31.7393 15.7999L31.806 15.7947L31.8624 15.7921H31.9188H31.9649V15.7344Z" fill="white"/>
<path fill-rule="evenodd" clip-rule="evenodd" d="M32.5138 15.779L32.5369 15.758H32.5215L32.4856 15.7527L32.4189 15.7501L32.342 15.7422H32.2523H32.16L32.0625 15.7344H31.9651V15.7921H32.0625H32.16L32.2523 15.7999H32.342H32.4189L32.4856 15.8052L32.5215 15.8078H32.5369L32.5625 15.7868L32.5369 15.8078L32.5574 15.8131L32.5625 15.7868L32.5138 15.779Z" fill="white"/>
<path fill-rule="evenodd" clip-rule="evenodd" d="M32.5543 15.5137H32.5492L32.5441 15.5924L32.534 15.6737L32.5213 15.7497L32.5137 15.7786L32.5619 15.7864L32.5695 15.7576L32.5822 15.6842L32.5924 15.5924L32.605 15.5137H32.6025H32.5543Z" fill="white"/>
<path fill-rule="evenodd" clip-rule="evenodd" d="M32.0703 15.102V15.1046L32.1626 15.1098L32.2498 15.1334L32.3293 15.1728L32.3985 15.2226L32.4575 15.2803L32.5062 15.3511L32.537 15.4246L32.5549 15.5137H32.6037L32.5857 15.4167L32.5549 15.3249L32.496 15.2462L32.4319 15.1806L32.3549 15.1229L32.2652 15.0836L32.1729 15.06L32.0703 15.0469V15.0521V15.102Z" fill="white"/>
<path fill-rule="evenodd" clip-rule="evenodd" d="M30.3264 15.3013L30.3674 15.3249L30.4059 15.304L30.4598 15.2751L30.529 15.2515L30.6187 15.2253L30.7162 15.2043L30.8213 15.1833L30.9393 15.1623L31.0572 15.1466L31.1829 15.1309L31.3136 15.1177L31.4444 15.1046L31.5777 15.0968H31.7085H31.8342H31.9572L32.0701 15.102V15.0522L31.9572 15.0469L31.8342 15.0391H31.7085L31.5777 15.0469L31.4444 15.0548L31.3136 15.0679L31.1829 15.081L31.0572 15.0968L30.9316 15.1125L30.8136 15.1335L30.7085 15.1545L30.611 15.1754L30.5213 15.2017L30.4444 15.2253L30.3828 15.2541L30.3341 15.283L30.3751 15.3092L30.3264 15.3013Z" fill="white"/>
<path fill-rule="evenodd" clip-rule="evenodd" d="M30.6264 14.2783L30.611 14.2993L30.3264 15.3012L30.3751 15.3091L30.6598 14.3072L30.6418 14.3282L30.6264 14.2783L30.6136 14.2809L30.611 14.2993L30.6264 14.2783Z" fill="white"/>
<path fill-rule="evenodd" clip-rule="evenodd" d="M32.4368 14.0873L32.2983 14.0795L32.1598 14.0742H32.0291H31.9034H31.7778L31.6598 14.0821L31.5419 14.0873L31.4265 14.0952L31.3188 14.1031L31.2085 14.1214L31.106 14.1372L31.006 14.1581L30.906 14.1791L30.8085 14.208L30.7162 14.2395L30.6265 14.2788L30.6418 14.3286L30.7316 14.2893L30.8265 14.2578L30.9162 14.229L31.0137 14.208L31.1137 14.187L31.2162 14.1686L31.3188 14.1529L31.4265 14.145L31.5419 14.1372L31.6598 14.1319H31.7778H31.9034H32.0291H32.1598L32.2983 14.1372H32.4368V14.0873Z" fill="white"/>
<path fill-rule="evenodd" clip-rule="evenodd" d="M33.8291 15.4954L33.8496 15.3249V15.1675L33.8214 15.0206L33.7778 14.8842L33.7112 14.7557L33.6317 14.6403L33.5342 14.5354L33.4317 14.4436L33.3137 14.3649L33.1906 14.2889L33.0624 14.2312L32.9368 14.1813L32.8009 14.1446L32.6752 14.1158L32.5496 14.0948L32.4368 14.0869V14.1367L32.5496 14.1446L32.6675 14.1656L32.7932 14.1944L32.9188 14.2312L33.0445 14.281L33.1676 14.3387L33.2906 14.4069L33.3983 14.4856L33.5009 14.5774L33.5906 14.6718L33.6727 14.7793L33.7291 14.9L33.7727 15.0311L33.8009 15.1675V15.3249L33.7804 15.4875L33.8291 15.4954Z" fill="white"/>
<path fill-rule="evenodd" clip-rule="evenodd" d="M33.4035 17.6905L33.8291 15.4952L33.7804 15.4873L33.3547 17.6826L33.4035 17.6905Z" fill="white"/>
<path fill-rule="evenodd" clip-rule="evenodd" d="M32.3959 16.6021L32.3882 16.5759L32.3703 16.5575L32.342 16.5444L32.301 16.5313L32.2574 16.5261L32.2036 16.5234H32.1446L32.0831 16.5261L32.0164 16.5366L31.9523 16.5444L31.8882 16.5523L31.8267 16.5602L31.7651 16.5733L31.7113 16.5811L31.66 16.5943L31.619 16.6021L31.5907 16.6047L31.5574 16.6179L31.5164 16.631L31.4728 16.6467L31.4189 16.6729L31.3702 16.6965L31.3138 16.7254L31.26 16.7647L31.2087 16.8015L31.1548 16.846L31.1112 16.8933L31.0651 16.9457L31.0292 17.006L31.001 17.069L30.9753 17.1346L30.9651 17.2054L30.96 17.347L30.9805 17.4598L31.0138 17.5411L31.0625 17.604L31.1241 17.646L31.1907 17.6696L31.26 17.6827L31.3292 17.688L31.4523 17.6827L31.5651 17.6696L31.6728 17.6512L31.7651 17.6198L31.8549 17.5883L31.9318 17.549L32.0061 17.5096L32.0702 17.4598L32.1267 17.4126L32.1754 17.3601L32.2215 17.3103L32.2574 17.2552L32.2856 17.2054L32.3061 17.1555L32.3215 17.1057L32.3344 17.0585L32.3497 16.9431L32.3703 16.8224L32.3882 16.707L32.3959 16.6021Z" fill="#FAB51D"/>
<path fill-rule="evenodd" clip-rule="evenodd" d="M40.7703 18.0398L40.778 17.9454L40.8113 17.8326L40.8677 17.7329L40.9369 17.6464L41.0216 17.5756L41.119 17.5257L41.2241 17.4916L41.3395 17.4785L41.4523 17.4916L41.5575 17.5257L41.6549 17.5756L41.7421 17.6464L41.8113 17.7329L41.8677 17.8326L41.9011 17.9454L41.9088 18.0398H41.7857L41.7806 17.9664L41.7575 17.8746L41.7164 17.7906L41.6652 17.7198L41.5985 17.6621L41.5216 17.6201L41.4318 17.5913L41.3395 17.5834L41.2446 17.5913L41.1549 17.6201L41.078 17.6621L41.0139 17.7198L40.96 17.7906L40.919 17.8746L40.8959 17.9664L40.8882 18.0398H40.7703Z" fill="white"/>
<path fill-rule="evenodd" clip-rule="evenodd" d="M41.1345 18.0392V17.79H41.3602L41.4089 17.7953L41.4525 17.8032L41.4858 17.8163L41.514 17.832L41.5345 17.8582L41.5499 17.8818L41.5576 17.9107L41.5627 17.9422L41.5576 17.9789L41.5499 18.0077L41.5371 18.0313L41.5294 18.0392H41.3602L41.3756 18.0366L41.4038 18.0313L41.4294 18.0235L41.4499 18.0156L41.4653 18.0025L41.473 17.9894L41.4807 17.971V17.9422L41.4781 17.9212L41.4679 17.9028L41.4576 17.895L41.4448 17.8871L41.4243 17.8818L41.4038 17.8792H41.3833H41.3602H41.2371V18.0392H41.1345Z" fill="white"/>
<path fill-rule="evenodd" clip-rule="evenodd" d="M40.7705 18.04L40.7654 18.0663L40.7782 18.1869L40.8115 18.2997L40.8679 18.3994L40.9372 18.4833L41.0218 18.5515L41.1192 18.6066L41.2244 18.6407L41.3398 18.6538L41.4526 18.6407L41.5577 18.6066L41.6551 18.5515L41.7423 18.4833L41.8116 18.3994L41.868 18.2997L41.9013 18.1869L41.9116 18.0663L41.909 18.04H41.7859L41.791 18.0663L41.7808 18.1659L41.7577 18.2577L41.7167 18.3364L41.6654 18.4072L41.5987 18.4649L41.5218 18.5121L41.4321 18.541L41.3398 18.5489L41.2449 18.541L41.1551 18.5121L41.0782 18.4649L41.0141 18.4072L40.9603 18.3364L40.9192 18.2577L40.8962 18.1659L40.8885 18.0663V18.04H40.7705Z" fill="white"/>
<path fill-rule="evenodd" clip-rule="evenodd" d="M41.1345 18.04V18.2945H41.2371V18.0872H41.3397L41.4602 18.2945H41.5422L41.4192 18.0872H41.4499L41.4781 18.0794L41.5012 18.0715L41.5217 18.0532L41.5294 18.04H41.3602L41.3397 18.0453H41.2371V18.04H41.1345Z" fill="white"/>
<path d="M40.7703 18.0663L40.7831 17.9456L40.8164 17.8328L40.8728 17.7332L40.9421 17.6466L41.0267 17.5732L41.1241 17.5234L41.2292 17.4893H41.3446H41.4575L41.5626 17.5234L41.66 17.5732L41.7472 17.644L41.8164 17.7306L41.8729 17.8302L41.9062 17.943V18.0637V18.1843L41.8729 18.2971L41.8164 18.3967L41.7472 18.4807L41.66 18.5515L41.5626 18.6039L41.4575 18.638L41.3446 18.6512L41.2292 18.638L41.1241 18.6039L41.0267 18.5515L40.9421 18.4807L40.8728 18.3967L40.8164 18.2971L40.7831 18.1843L40.7703 18.0637V18.0663ZM41.2421 18.2918H41.1395V17.7909H41.3652H41.4139H41.4575L41.4908 17.804L41.519 17.8197L41.5395 17.846L41.5549 17.8696V17.8984V17.9273V17.9666V17.9955V18.0191L41.5395 18.04L41.519 18.0584H41.4959H41.4677H41.437L41.56 18.2656H41.478L41.3575 18.0584H41.2549V18.2656L41.2421 18.2918ZM41.3575 18.0033H41.3934H41.4216H41.4472H41.4677H41.4831V17.985V17.9404V17.922V17.9037H41.4703H41.4498H41.2626V18.0689H41.3652L41.3575 18.0033ZM41.3652 18.5725H41.4575L41.5472 18.5436L41.6241 18.4964L41.6908 18.4387L41.7421 18.3679L41.7831 18.2892L41.8088 18.1974V18.0977V17.9981L41.7831 17.9063L41.7421 17.8224L41.6908 17.7515L41.6241 17.6938L41.5472 17.6519L41.4575 17.623H41.3652H41.2703L41.1805 17.6519L41.1036 17.6938L41.0395 17.7515L40.9857 17.8224L40.9446 17.9063L40.9215 17.9981V18.0977V18.1974L40.9446 18.2892L40.9857 18.3679L41.0395 18.4387L41.1036 18.4964L41.1805 18.5436L41.2703 18.5725H41.3652Z" stroke="white" stroke-width="0.22" stroke-miterlimit="2.61"/>
<path fill-rule="evenodd" clip-rule="evenodd" d="M33.6831 18.6111H34.8293L35.2421 16.2453L35.2575 16.1535L35.2806 16.0617L35.3062 15.9699L35.3396 15.8781L35.378 15.7863L35.4267 15.6998L35.4806 15.6158L35.5473 15.5372L35.6191 15.4663L35.7011 15.4008L35.7934 15.3378L35.8986 15.288L36.0165 15.246L36.1473 15.2119L36.2909 15.1883L36.4473 15.1805H36.5063H36.537H36.5499L36.7319 14.1104L36.6191 14.1208L36.5088 14.1313L36.4088 14.1523L36.3088 14.1812L36.2216 14.2153L36.1345 14.2572L36.055 14.3018L35.978 14.3516L35.9037 14.4094L35.8344 14.4697L35.7703 14.5352L35.7037 14.6008L35.6421 14.6716L35.5832 14.7503L35.5216 14.8264L35.4652 14.9103L35.5857 14.1576H34.4447L33.6831 18.6111Z" fill="white"/>
<path d="M33.6831 18.6111H34.8293L35.2421 16.2453L35.2575 16.1535L35.2806 16.0617L35.3062 15.9699L35.3396 15.8781L35.378 15.7863L35.4267 15.6998L35.4806 15.6158L35.5473 15.5372L35.6191 15.4663L35.7011 15.4008L35.7934 15.3378L35.8986 15.288L36.0165 15.246L36.1473 15.2119L36.2909 15.1883L36.4473 15.1805H36.5063H36.537H36.5499L36.7319 14.1104L36.6191 14.1208L36.5088 14.1313L36.4088 14.1523L36.3088 14.1812L36.2216 14.2153L36.1345 14.2572L36.055 14.3018L35.978 14.3516L35.9037 14.4094L35.8344 14.4697L35.7703 14.5352L35.7037 14.6008L35.6421 14.6716L35.5832 14.7503L35.5216 14.8264L35.4652 14.9103L35.5857 14.1576H34.4447L33.6831 18.6111Z" stroke="white" stroke-width="0.22" stroke-miterlimit="2.61"/>
<path fill-rule="evenodd" clip-rule="evenodd" d="M22.9185 18.6111H24.0646H24.0852L24.4749 16.2453L24.4929 16.1535L24.5134 16.0643L24.5313 15.9778L24.5621 15.8939L24.5929 15.8125L24.6339 15.7339L24.6826 15.6578L24.739 15.587L24.8057 15.524L24.8775 15.4611L24.9672 15.4139L25.0647 15.3667L25.1801 15.33L25.3057 15.2959L25.4442 15.2749L25.6006 15.2618H25.6134L25.6314 15.267L25.6493 15.2723H25.6698L25.6903 15.2749L25.7083 15.2801L25.7211 15.2827H25.7237L25.7288 15.267L25.739 15.2172L25.757 15.1411L25.7775 15.0519L25.8057 14.9418L25.8339 14.8264L25.8698 14.711L25.9057 14.5929L25.9391 14.5143L25.9801 14.4356L26.0211 14.3569L26.0621 14.2861L26.098 14.2231L26.1262 14.1733L26.1468 14.1444L26.1544 14.1313H26.1493L26.1339 14.1287L26.1134 14.1235L26.0852 14.1208H26.057L26.0237 14.1156L25.9955 14.1104H25.9673L25.8416 14.1208L25.7288 14.1313L25.6211 14.1523L25.5237 14.1785L25.4313 14.21L25.3467 14.252L25.2698 14.2939L25.1954 14.3438L25.1262 14.3989L25.0621 14.4592L25.0006 14.5221L24.939 14.5929L24.8775 14.6638L24.8211 14.7424L24.7595 14.8264L24.7006 14.9103L24.8467 14.1576H23.68L22.9185 18.6111Z" fill="white"/>
<path d="M22.9185 18.6111H24.0646H24.0852L24.4749 16.2453L24.4929 16.1535L24.5134 16.0643L24.5313 15.9778L24.5621 15.8939L24.5929 15.8125L24.6339 15.7339L24.6826 15.6578L24.739 15.587L24.8057 15.524L24.8775 15.4611L24.9672 15.4139L25.0647 15.3667L25.1801 15.33L25.3057 15.2959L25.4442 15.2749L25.6006 15.2618H25.6134L25.6314 15.267L25.6493 15.2723H25.6698L25.6903 15.2749L25.7083 15.2801L25.7211 15.2827H25.7237L25.7288 15.267L25.739 15.2172L25.757 15.1411L25.7775 15.0519L25.8057 14.9418L25.8339 14.8264L25.8698 14.711L25.9057 14.5929L25.9391 14.5143L25.9801 14.4356L26.0211 14.3569L26.0621 14.2861L26.098 14.2231L26.1262 14.1733L26.1468 14.1444L26.1544 14.1313H26.1493L26.1339 14.1287L26.1134 14.1235L26.0852 14.1208H26.057L26.0237 14.1156L25.9955 14.1104H25.9673L25.8416 14.1208L25.7288 14.1313L25.6211 14.1523L25.5237 14.1785L25.4313 14.21L25.3467 14.252L25.2698 14.2939L25.1954 14.3438L25.1262 14.3989L25.0621 14.4592L25.0006 14.5221L24.939 14.5929L24.8775 14.6638L24.8211 14.7424L24.7595 14.8264L24.7006 14.9103L24.8467 14.1576H23.68L22.9185 18.6111Z" stroke="white" stroke-width="0.22" stroke-miterlimit="2.61"/>
<path fill-rule="evenodd" clip-rule="evenodd" d="M40.7781 22.986V22.9677L40.8114 22.8601L40.8678 22.7657L40.9371 22.6818L41.0217 22.6136L41.1191 22.5638L41.2242 22.5349L41.3396 22.5244L41.4525 22.5349L41.5576 22.5638L41.655 22.6136L41.7422 22.6818L41.8114 22.7657L41.8678 22.8601L41.9012 22.9677V22.986H41.7807L41.7576 22.8969L41.7166 22.8182L41.6653 22.7474L41.5986 22.6897L41.5217 22.6451L41.4319 22.6136L41.3396 22.6057L41.2448 22.6136L41.155 22.6451L41.0781 22.6897L41.014 22.7474L40.9601 22.8182L40.9191 22.8969L40.896 22.986H40.7781Z" fill="#FAB51D"/>
<path fill-rule="evenodd" clip-rule="evenodd" d="M41.1345 22.9857V22.8389H41.3602H41.4089L41.4525 22.8467L41.4858 22.8546L41.514 22.873L41.5345 22.8939L41.5499 22.9175L41.5576 22.9464L41.5627 22.9857H41.4807V22.9648L41.4781 22.9438L41.4679 22.9254L41.4576 22.9175L41.4448 22.9097L41.4243 22.9044L41.4038 22.9018H41.3833H41.3602H41.2371V22.9857H41.1345Z" fill="#FAB51D"/>
<path fill-rule="evenodd" clip-rule="evenodd" d="M40.7654 23.0755L40.7782 22.9863H40.8961V22.989L40.8885 23.0755H40.7654Z" fill="#FAB51D"/>
<path fill-rule="evenodd" clip-rule="evenodd" d="M41.1345 23.0755V22.9863H41.2371V23.0676H41.3397L41.3756 23.0598L41.4038 23.0571L41.4294 23.0467L41.4499 23.0388L41.4653 23.0257L41.473 23.0152L41.4807 22.9942V22.9863H41.5627L41.5576 23.0152L41.5499 23.0388L41.5371 23.0598L41.5217 23.0755H41.1345Z" fill="#FAB51D"/>
<path fill-rule="evenodd" clip-rule="evenodd" d="M41.791 23.0755L41.7808 22.989V22.9863H41.9013L41.9115 23.0755H41.791Z" fill="#FAB51D"/>
<path fill-rule="evenodd" clip-rule="evenodd" d="M40.7654 23.0752V23.0883L40.7782 23.209L40.8115 23.3217L40.8679 23.4214L40.9372 23.508L41.0218 23.5788L41.1192 23.6286L41.2244 23.6627L41.3398 23.6758L41.4526 23.6627L41.5577 23.6286L41.6551 23.5788L41.7423 23.508L41.8116 23.4214L41.868 23.3217L41.9013 23.209L41.9116 23.0883V23.0752H41.791V23.0883L41.7808 23.188L41.7577 23.2798L41.7167 23.3585L41.6654 23.4293L41.5987 23.487L41.5218 23.5342L41.4321 23.563L41.3398 23.5709L41.2449 23.563L41.1551 23.5342L41.0782 23.487L41.0141 23.4293L40.9603 23.3585L40.9192 23.2798L40.8962 23.188L40.8885 23.0883V23.0752H40.7654Z" fill="#FAB51D"/>
<path fill-rule="evenodd" clip-rule="evenodd" d="M41.1345 23.0752V23.3165H41.2371V23.1093H41.3397L41.4602 23.3165H41.5422L41.4192 23.1093H41.4499L41.4781 23.1014L41.5012 23.0936L41.5217 23.0752H41.1345Z" fill="#FAB51D"/>
</g>
<defs>
<clipPath id="clip0_298_491">
<rect width="45.0654" height="31.0303" fill="white"/>
</clipPath>
</defs>
</svg>
