<svg width="95" height="93" viewBox="0 0 95 93" fill="none" xmlns="http://www.w3.org/2000/svg">
<g filter="url(#filter0_d_176_438)">
<path d="M60.6438 0H34.4743C28.7566 0 24.1384 4.61815 24.1384 10.3359V73.9637C24.1384 79.6814 28.7566 84.2996 34.4743 84.2996H60.5705C66.2882 84.2996 70.9064 79.6814 70.9064 73.9637V10.3359C70.9797 4.61815 66.3615 0 60.6438 0ZM34.4743 2.85886H60.5705C64.6755 2.85886 68.0475 6.23084 68.0475 10.3359V66.56H26.9973V10.3359C26.9973 6.23084 30.3693 2.85886 34.4743 2.85886ZM60.6438 81.4407H34.4743C30.3693 81.4407 26.9973 78.0687 26.9973 73.9637V69.4922H68.1208V73.9637C68.1208 78.1421 64.7488 81.4407 60.6438 81.4407Z" fill="#EA572E"/>
<path d="M50.8217 73.6706H44.2244C43.418 73.6706 42.7583 74.3303 42.7583 75.1367C42.7583 75.943 43.418 76.6028 44.2244 76.6028H50.8217C51.6281 76.6028 52.2878 75.943 52.2878 75.1367C52.2878 74.3303 51.6281 73.6706 50.8217 73.6706Z" fill="#EA572E"/>
<path d="M19.1545 45.5218C18.788 45.5218 18.4948 45.3752 18.2016 45.1553C15.9292 43.0295 14.5364 39.5109 14.5364 35.5525C14.5364 31.594 15.9292 28.0754 18.2016 25.9496C18.788 25.4365 19.6677 25.4365 20.1808 26.0229C20.6939 26.6094 20.6939 27.489 20.1075 28.0021C18.4215 29.5415 17.3952 32.4004 17.3952 35.4791C17.3952 38.5579 18.4215 41.4168 20.1075 42.9562C20.6939 43.4693 20.6939 44.3489 20.1808 44.9354C19.8876 45.3752 19.521 45.5218 19.1545 45.5218Z" fill="#EA572E"/>
<path d="M11.1635 49.187C10.797 49.187 10.4305 49.0404 10.1373 48.8205C6.83858 45.7418 4.85938 40.5372 4.85938 34.8195C4.85938 29.1018 6.83858 23.8972 10.1373 20.8184C10.7237 20.3053 11.6766 20.3053 12.1898 20.8917C12.7029 21.4781 12.7029 22.4311 12.1165 22.9442C9.40422 25.5099 7.79153 29.9081 7.79153 34.8195C7.79153 39.7308 9.40422 44.1291 12.1165 46.6214C12.7029 47.1345 12.7762 48.0875 12.1898 48.6739C11.8966 49.0404 11.53 49.187 11.1635 49.187Z" fill="#EA572E"/>
<path d="M75.9644 45.5219C75.5979 45.5219 75.2314 45.3752 74.9382 45.082C74.425 44.4956 74.425 43.6159 75.0115 43.1028C76.6974 41.5634 77.7237 38.7046 77.7237 35.6258C77.7237 32.547 76.6974 29.6882 75.0115 28.1488C74.425 27.6357 74.425 26.756 74.9382 26.1696C75.4513 25.5832 76.3309 25.5832 76.9174 26.0963C79.1898 28.2221 80.5826 31.7407 80.5826 35.6991C80.5826 39.6575 79.1898 43.1761 76.9174 45.3019C76.6241 45.3752 76.3309 45.5219 75.9644 45.5219Z" fill="#EA572E"/>
<path d="M83.9551 49.187C83.5886 49.187 83.1488 49.0404 82.8556 48.7472C82.3424 48.1607 82.3424 47.2078 82.9289 46.6946C85.6411 44.2023 87.2538 39.8041 87.2538 34.8927C87.2538 29.9813 85.6411 25.5831 82.9289 23.0908C82.3424 22.5776 82.2691 21.6247 82.8556 21.0382C83.3687 20.4518 84.3216 20.3785 84.9081 20.9649C88.2068 23.9704 90.186 29.2483 90.186 34.966C90.186 40.6837 88.2068 45.8883 84.9081 48.9671C84.6882 49.0404 84.3216 49.187 83.9551 49.187Z" fill="#EA572E"/>
</g>
<defs>
<filter id="filter0_d_176_438" x="0.859375" y="0" width="93.3267" height="92.2996" filterUnits="userSpaceOnUse" color-interpolation-filters="sRGB">
<feFlood flood-opacity="0" result="BackgroundImageFix"/>
<feColorMatrix in="SourceAlpha" type="matrix" values="0 0 0 0 0 0 0 0 0 0 0 0 0 0 0 0 0 0 127 0" result="hardAlpha"/>
<feOffset dy="4"/>
<feGaussianBlur stdDeviation="2"/>
<feComposite in2="hardAlpha" operator="out"/>
<feColorMatrix type="matrix" values="0 0 0 0 0 0 0 0 0 0 0 0 0 0 0 0 0 0 0.25 0"/>
<feBlend mode="normal" in2="BackgroundImageFix" result="effect1_dropShadow_176_438"/>
<feBlend mode="normal" in="SourceGraphic" in2="effect1_dropShadow_176_438" result="shape"/>
</filter>
</defs>
</svg>
