<svg width="36" height="36" viewBox="0 0 36 36" fill="none" xmlns="http://www.w3.org/2000/svg">
<rect width="36" height="36" rx="4" fill="#7C96BC"/>
<path d="M27.8142 22.7671C27.8142 22.6849 27.7346 22.6849 27.7346 22.6027C27.4163 21.9452 26.7002 21.1233 25.7453 20.2192C25.2678 19.8082 25.0291 19.4795 24.8699 19.3151C24.6312 18.9863 24.6312 18.7397 24.7108 18.411C24.7904 18.1644 25.1087 17.7534 25.6657 17.0137C25.984 16.6027 26.1431 16.3562 26.3819 16.1096C27.5755 14.4658 28.1325 13.3973 27.9734 12.9041L27.8938 12.8219C27.8142 12.7397 27.7346 12.6575 27.5755 12.6575C27.4163 12.5753 27.1776 12.5753 26.9389 12.6575H23.9151C23.8355 12.6575 23.8355 12.6575 23.6763 12.6575C23.5967 12.6575 23.5172 12.6575 23.5172 12.6575H23.4376H23.358L23.2784 12.7397C23.1989 12.8219 23.1989 12.8219 23.1989 12.9041C22.8806 13.8082 22.4827 14.5479 22.0848 15.3699C21.8461 15.7808 21.6074 16.1918 21.3686 16.5206C21.1299 16.8493 20.9707 17.0959 20.8116 17.2603C20.6524 17.4247 20.4933 17.5068 20.4137 17.6712C20.3341 17.7534 20.175 17.8356 20.175 17.7534C20.0954 17.7534 20.0158 17.7534 20.0158 17.6712C19.9363 17.589 19.8567 17.5068 19.7771 17.4247C19.6976 17.3425 19.6975 17.1781 19.618 17.0137C19.618 16.8493 19.618 16.6849 19.618 16.6027C19.618 16.5205 19.618 16.274 19.618 16.1096C19.618 15.863 19.618 15.6986 19.618 15.6164C19.618 15.3699 19.618 15.0411 19.618 14.7123C19.618 14.3836 19.618 14.137 19.618 13.9726C19.618 13.8082 19.618 13.5616 19.618 13.3973C19.618 13.1507 19.618 12.9863 19.618 12.9041C19.618 12.8219 19.5384 12.6575 19.5384 12.5753C19.4588 12.4931 19.3792 12.411 19.2997 12.3288C19.2201 12.2466 19.061 12.2466 18.9814 12.1644C18.5835 12.0822 18.1061 12 17.549 12C16.2758 12 15.4005 12.0822 15.0822 12.2466C14.923 12.3288 14.7639 12.411 14.6843 12.5753C14.5252 12.7397 14.5252 12.8219 14.6047 12.8219C15.0026 12.9041 15.3209 13.0685 15.4801 13.3151L15.5597 13.4795C15.6392 13.5616 15.6392 13.726 15.7188 13.9726C15.7984 14.2192 15.7984 14.4657 15.7984 14.7945C15.7984 15.2877 15.7984 15.7808 15.7984 16.1096C15.7984 16.5206 15.7188 16.7671 15.7188 17.0137C15.7188 17.2603 15.6392 17.4247 15.5597 17.5069C15.4801 17.6712 15.4801 17.7534 15.4005 17.7534C15.4005 17.7534 15.4005 17.8356 15.3209 17.8356C15.2413 17.8356 15.1618 17.9178 15.0026 17.9178C14.923 17.9178 14.7639 17.8356 14.6843 17.7534C14.5252 17.6712 14.366 17.5069 14.2864 17.3425C14.1273 17.1781 13.9681 16.9315 13.809 16.6027C13.6498 16.274 13.4111 15.9452 13.252 15.4521L13.0928 15.1233C13.0132 14.9589 12.8541 14.6301 12.6949 14.2192C12.5358 13.8082 12.3766 13.4795 12.2175 13.0685C12.1379 12.9041 12.0583 12.8219 11.9788 12.7397H11.8992C11.8992 12.7397 11.8196 12.6575 11.74 12.6575C11.6605 12.6575 11.5809 12.5753 11.5013 12.5753H8.6366C8.3183 12.5753 8.15916 12.6575 8.07958 12.7397L8 12.8219C8 12.8219 8 12.9041 8 12.9863C8 13.0685 8 13.1507 8.07958 13.3151C8.47746 14.3014 8.9549 15.2877 9.43236 16.274C9.90981 17.1781 10.3873 18 10.7056 18.5753C11.1034 19.1507 11.4217 19.726 11.8196 20.2192C12.2175 20.7123 12.4562 21.0411 12.5358 21.2055C12.6949 21.3699 12.7745 21.4521 12.8541 21.5342L13.0928 21.7808C13.252 21.9452 13.4907 22.1918 13.809 22.4384C14.1273 22.6849 14.5252 22.9315 14.923 23.1781C15.3209 23.4247 15.7984 23.5891 16.2758 23.7534C16.8329 23.9178 17.3103 24 17.7878 23.9178H18.9814C19.2201 23.9178 19.3793 23.8356 19.5384 23.6712L19.618 23.589C19.618 23.5068 19.6976 23.5069 19.6976 23.4247C19.6976 23.3425 19.6976 23.2603 19.6976 23.0959C19.6976 22.7671 19.6976 22.5206 19.7771 22.274C19.8567 22.0274 19.8567 21.863 19.9363 21.6986C20.0159 21.5343 20.0954 21.4521 20.175 21.3699C20.2546 21.2877 20.3342 21.2055 20.3342 21.2055H20.4137C20.5729 21.1233 20.8116 21.2055 20.9708 21.3699C21.2095 21.5342 21.4482 21.7808 21.6074 22.0274C21.7665 22.274 22.0052 22.5206 22.3235 22.8493C22.6418 23.1781 22.8806 23.4247 23.0397 23.5069L23.2784 23.6712C23.4376 23.7534 23.5967 23.8356 23.8355 23.9178C24.0742 24 24.2333 24 24.3925 24L27.0981 23.9178C27.3368 23.9178 27.5755 23.8356 27.7346 23.7534C27.8938 23.6712 27.9734 23.589 27.9734 23.4247C27.9734 23.3425 27.9734 23.1781 27.9734 23.0959C27.8142 22.9315 27.8142 22.8493 27.8142 22.7671Z" fill="white"/>
</svg>
