<svg width="36" height="36" viewBox="0 0 36 36" fill="none" xmlns="http://www.w3.org/2000/svg">
<rect width="36" height="36" rx="4" fill="#7C96BC"/>
<path d="M18 11C15.3783 11 13.058 11.2712 11.6468 11.4821C10.4916 11.6529 9.57255 12.5569 9.36161 13.7171C9.1808 14.7316 9 16.2132 9 18.0714C9 19.9297 9.1808 21.4113 9.36161 22.4258C9.57255 23.5859 10.4916 24.4849 11.6468 24.6607C13.0631 24.8717 15.3934 25.1429 18 25.1429C20.6066 25.1429 22.9319 24.8717 24.3482 24.6607H24.3532C25.5084 24.49 26.4275 23.5859 26.6384 22.4258C26.8192 21.4062 27 19.9247 27 18.0714C27 16.2132 26.8192 14.7316 26.6334 13.7171C26.4275 12.5569 25.5084 11.6529 24.3532 11.4821C22.942 11.2712 20.6217 11 18 11ZM18 12.2857C20.5312 12.2857 22.7963 12.5469 24.1624 12.7528C24.7651 12.8432 25.2522 13.3153 25.3677 13.9431C25.5385 14.8923 25.7143 16.2985 25.7143 18.0714C25.7143 19.8443 25.5385 21.2506 25.3728 22.1948C25.2573 22.8276 24.7701 23.2997 24.1624 23.3901C22.7863 23.591 20.5162 23.8571 18 23.8571C15.4838 23.8571 13.2087 23.591 11.8376 23.3901C11.2349 23.2997 10.7427 22.8276 10.6272 22.1948C10.4615 21.2455 10.2857 19.8443 10.2857 18.0714C10.2857 16.2935 10.4615 14.8923 10.6272 13.9431C10.7427 13.3153 11.2299 12.8432 11.8326 12.7578H11.8376C13.2037 12.5519 15.4687 12.2857 18 12.2857ZM15.4286 14.8571V21.2857L21.8571 18.0714L15.4286 14.8571Z" fill="white"/>
</svg>
